<?xml version="1.0" encoding="utf-8"?>
<!-- Generator: Adobe Illustrator 24.0.1, SVG Export Plug-In . SVG Version: 6.00 Build 0)  -->
<svg version="1.1" id="Layer_1" xmlns="http://www.w3.org/2000/svg" xmlns:xlink="http://www.w3.org/1999/xlink" x="0px" y="0px"
	 viewBox="0 0 280.01 270" style="enable-background:new 0 0 280.01 270;" xml:space="preserve">
<style type="text/css">
	.st0{fill:#692B11;}
	.st1{fill:#544842;}
	.st2{fill:#FFDCB2;}
	.st3{fill:#4C3617;}
	.st4{fill:#8A4C20;}
	.st5{fill:#070707;}
	.st6{fill:#FFE3B2;}
	.st7{fill:#010101;}
	.st8{fill:#603A17;}
	.st9{fill:#046937;}
	.st10{fill:#412312;}
	.st11{fill:#A55F41;}
	.st12{fill:#231F20;}
	.st13{fill:#4B4E53;}
	.st14{fill:#50575C;}
	.st15{fill:#025138;}
	.st16{fill:#B4B4B4;stroke:#040404;stroke-width:2;stroke-miterlimit:10;}
	.st17{fill:#22120B;}
	.st18{fill:#4E4E4E;}
	.st19{fill:#B4B4B4;}
	.st20{fill:#F6EB16;}
	.st21{fill:#F15B27;}
	.st22{fill:#FAED24;}
</style>
<rect x="27.76" y="168.21" class="st0" width="4.39" height="80.86"/>
<path class="st1" d="M98.31,227.79H82.54v-60.66c0-3.3,2.7-6,6-6h3.77c3.3,0,6,2.7,6,6V227.79z"/>
<path class="st1" d="M59.04,228.95h15.77v-61.81c0-3.3-2.7-6-6-6h-3.77c-3.3,0-6,2.7-6,6V228.95z"/>
<path class="st2" d="M85.99,98.89H71.35c-1.96,0-3.56-1.6-3.56-3.56V77.15c0-1.96,1.6-3.56,3.56-3.56h14.63
	c1.96,0,3.56,1.6,3.56,3.56v18.18C89.55,97.29,87.94,98.89,85.99,98.89z"/>
<path class="st2" d="M102.34,56.28c-0.11-0.31,0.08-0.53,0.33-0.59V32.6c0-10.49-8.51-19-19-19h-12c-10.49,0-19,8.51-19,19v38
	c0,12.7,10.3,23,23,23h4c12.7,0,23-10.3,23-23V57.18C102.56,56.88,102.45,56.58,102.34,56.28z"/>
<path class="st3" d="M72.34,40.61h-9c-1.1,0-2-0.9-2-2v-0.67c0-1.1,0.9-2,2-2h9c1.1,0,2,0.9,2,2v0.67
	C74.34,39.71,73.44,40.61,72.34,40.61z"/>
<path class="st3" d="M92.84,40.61h-9c-1.1,0-2-0.9-2-2v-0.67c0-1.1,0.9-2,2-2h9c1.1,0,2,0.9,2,2v0.67
	C94.84,39.71,93.94,40.61,92.84,40.61z"/>
<path class="st4" d="M52.68,54.51h-3.15c-1.1,0-2-0.9-2-2v-4.63c0-1.1,0.9-2,2-2h3.15V54.51z"/>
<path class="st4" d="M105.82,54.51h-3.15v-8.63h3.15c1.1,0,2,0.9,2,2v4.63C107.82,53.62,106.93,54.51,105.82,54.51z"/>
<circle class="st5" cx="67.84" cy="43.87" r="2.06"/>
<circle class="st5" cx="88.99" cy="43.87" r="2.06"/>
<path class="st4" d="M79.58,62.02h-1.81c-1.1,0-2-0.9-2-2V52.2c0-1.1,0.9-2,2-2h1.81c1.1,0,2,0.9,2,2v7.83
	C81.58,61.12,80.68,62.02,79.58,62.02z"/>
<rect x="97.11" y="53.97" class="st6" width="5.57" height="6.06"/>
<ellipse class="st7" cx="78.67" cy="75.14" rx="5.88" ry="2.81"/>
<circle class="st8" cx="102.68" cy="43.13" r="2.52"/>
<circle class="st8" cx="101.22" cy="40.56" r="2.52"/>
<circle class="st8" cx="104.28" cy="39.29" r="2.52"/>
<circle class="st8" cx="101.22" cy="35.95" r="2.52"/>
<circle class="st8" cx="105" cy="35.52" r="2.52"/>
<circle class="st8" cx="100.16" cy="32.1" r="2.52"/>
<circle class="st8" cx="103.74" cy="33" r="2.52"/>
<circle class="st8" cx="104.28" cy="28.59" r="2.52"/>
<circle class="st8" cx="101.53" cy="29.01" r="2.52"/>
<circle class="st8" cx="98.7" cy="28.59" r="2.52"/>
<circle class="st8" cx="102.48" cy="25.35" r="2.52"/>
<circle class="st8" cx="98.7" cy="24.91" r="2.52"/>
<circle class="st8" cx="105.49" cy="43.08" r="2.52"/>
<circle class="st8" cx="103.74" cy="44.33" r="2.52"/>
<circle class="st8" cx="52.68" cy="43.87" r="2.52"/>
<circle class="st8" cx="53.88" cy="39.29" r="2.52"/>
<circle class="st8" cx="51.9" cy="35.95" r="2.52"/>
<circle class="st8" cx="49.86" cy="38.28" r="2.52"/>
<circle class="st8" cx="50.1" cy="40.61" r="2.52"/>
<circle class="st8" cx="53.34" cy="27.43" r="2.52"/>
<circle class="st8" cx="53.88" cy="31.11" r="2.52"/>
<circle class="st8" cx="52.68" cy="33" r="2.52"/>
<circle class="st8" cx="50.81" cy="30.48" r="2.52"/>
<circle class="st8" cx="50.81" cy="26.31" r="2.52"/>
<circle class="st8" cx="49.86" cy="34.07" r="2.52"/>
<circle class="st8" cx="56" cy="24.41" r="2.52"/>
<circle class="st8" cx="54.66" cy="27.43" r="2.52"/>
<circle class="st8" cx="52.68" cy="24" r="2.52"/>
<g>
	<g>
		<path class="st7" d="M88.35,73.81c-0.42-0.7-0.95-1.35-1.57-1.88c-0.2-0.18-0.43-0.29-0.71-0.29c-0.25,0-0.54,0.11-0.71,0.29
			c-0.17,0.19-0.3,0.44-0.29,0.71c0.01,0.25,0.09,0.54,0.29,0.71c0.35,0.3,0.67,0.64,0.96,1.01c-0.05-0.07-0.1-0.13-0.16-0.2
			c0.16,0.21,0.32,0.44,0.45,0.67c0.13,0.22,0.35,0.39,0.6,0.46c0.24,0.07,0.56,0.04,0.77-0.1c0.21-0.14,0.4-0.34,0.46-0.6
			C88.52,74.32,88.49,74.05,88.35,73.81L88.35,73.81z"/>
	</g>
</g>
<g>
	<path class="st8" d="M60.77,20.85c-0.44-0.52-0.95-0.98-1.51-1.37"/>
	<g>
		<path class="st8" d="M61.47,20.15c-0.5-0.59-1.08-1.09-1.71-1.53c-0.11-0.07-0.24-0.11-0.37-0.12c-0.13-0.03-0.27-0.02-0.4,0.02
			c-0.23,0.06-0.48,0.24-0.6,0.46c-0.12,0.23-0.18,0.51-0.1,0.77c0.03,0.08,0.07,0.16,0.1,0.24c0.09,0.15,0.21,0.27,0.36,0.36
			c0.1,0.07,0.2,0.15,0.3,0.22c-0.07-0.05-0.13-0.1-0.2-0.16c0.44,0.34,0.84,0.73,1.2,1.15c0.09,0.1,0.2,0.17,0.32,0.21
			c0.12,0.06,0.25,0.09,0.39,0.09c0.25,0,0.54-0.11,0.71-0.29c0.17-0.19,0.3-0.44,0.29-0.71c-0.01-0.09-0.02-0.18-0.04-0.27
			C61.68,20.42,61.6,20.27,61.47,20.15L61.47,20.15z"/>
	</g>
</g>
<g>
	<path class="st8" d="M63.95,18.56c-0.6-0.72-1.26-1.38-1.98-1.98"/>
	<g>
		<path class="st8" d="M64.66,17.85c-0.6-0.72-1.26-1.38-1.98-1.98c-0.21-0.17-0.43-0.29-0.71-0.29c-0.25,0-0.54,0.11-0.71,0.29
			c-0.17,0.19-0.3,0.44-0.29,0.71c0.01,0.25,0.09,0.54,0.29,0.71c0.72,0.6,1.38,1.26,1.98,1.98c0.16,0.19,0.47,0.29,0.71,0.29
			c0.25,0,0.54-0.11,0.71-0.29c0.17-0.19,0.3-0.44,0.29-0.71c-0.01-0.09-0.02-0.18-0.04-0.27C64.86,18.13,64.78,17.98,64.66,17.85
			L64.66,17.85z"/>
	</g>
</g>
<g>
	<path class="st8" d="M68.52,18c-0.3-1.18-0.89-2.29-1.7-3.21"/>
	<g>
		<path class="st8" d="M69.48,17.73c-0.35-1.36-1.04-2.6-1.96-3.65c-0.35-0.39-1.06-0.38-1.41,0c-0.39,0.42-0.37,0.99,0,1.41
			c0.12,0.13,0.23,0.27,0.34,0.42c-0.05-0.07-0.1-0.13-0.16-0.2c0.4,0.53,0.74,1.11,1,1.72c-0.03-0.08-0.07-0.16-0.1-0.24
			c0.15,0.35,0.27,0.71,0.36,1.07c0.13,0.51,0.72,0.86,1.23,0.7C69.3,18.8,69.62,18.28,69.48,17.73L69.48,17.73z"/>
	</g>
</g>
<g>
	<path class="st8" d="M72.44,17.48c-0.01-1.33-0.4-2.65-1.13-3.77"/>
	<g>
		<path class="st8" d="M73.44,17.48c-0.01-1.5-0.45-3.01-1.26-4.27c-0.28-0.44-0.9-0.66-1.37-0.36c-0.44,0.28-0.66,0.9-0.36,1.37
			c0.18,0.27,0.34,0.56,0.47,0.86c0.02,0.04,0.04,0.08,0.05,0.12c0.04,0.1,0.04,0.08-0.02-0.06c0.02,0,0.07,0.17,0.07,0.18
			c0.06,0.15,0.11,0.31,0.16,0.46c0.09,0.3,0.15,0.61,0.21,0.92c0.02,0.11,0.01,0.09-0.01-0.07c0.01,0.04,0.01,0.09,0.02,0.13
			c0.01,0.06,0.01,0.13,0.02,0.2c0.01,0.17,0.02,0.35,0.02,0.52c0,0.52,0.46,1.02,1,1C72.98,18.45,73.45,18.04,73.44,17.48
			L73.44,17.48z"/>
	</g>
</g>
<g>
	<path class="st8" d="M76.02,17.84c0.27-1.24,0.27-2.54,0-3.79"/>
	<g>
		<path class="st8" d="M76.99,18.1c0.31-1.43,0.31-2.89,0-4.32c-0.11-0.51-0.74-0.86-1.23-0.7c-0.54,0.17-0.82,0.68-0.7,1.23
			c0.03,0.15,0.06,0.31,0.09,0.46c0.01,0.04,0.01,0.07,0.02,0.11c0.02,0.11,0.01,0.09-0.01-0.05c0.02,0.06,0.02,0.15,0.02,0.21
			c0.03,0.3,0.04,0.6,0.04,0.9c0,0.3-0.02,0.6-0.05,0.9c-0.01,0.07-0.02,0.15-0.02,0.21c0-0.26,0.01-0.05-0.01,0.02
			c-0.03,0.17-0.06,0.33-0.09,0.49c-0.11,0.51,0.15,1.11,0.7,1.23C76.26,18.92,76.87,18.65,76.99,18.1L76.99,18.1z"/>
	</g>
</g>
<g>
	<path class="st8" d="M79.81,18.02c-0.08-1.38-0.15-2.76-0.23-4.14"/>
	<g>
		<path class="st8" d="M80.81,18.02c-0.08-1.38-0.15-2.76-0.23-4.14c-0.03-0.52-0.44-1.03-1-1c-0.52,0.02-1.03,0.44-1,1
			c0.08,1.38,0.15,2.76,0.23,4.14c0.03,0.52,0.44,1.03,1,1C80.33,18.99,80.84,18.57,80.81,18.02L80.81,18.02z"/>
	</g>
</g>
<g>
	<path class="st8" d="M84.2,18.55c-0.03-1.51,0.11-3.03,0.41-4.51"/>
	<g>
		<path class="st8" d="M85.2,18.55c-0.01-0.74,0.01-1.48,0.08-2.22c0.02-0.19,0.04-0.38,0.06-0.56c0.01-0.09,0.02-0.17,0.03-0.26
			c-0.03,0.18,0,0,0.01-0.08c0.05-0.37,0.12-0.75,0.19-1.12c0.1-0.51-0.15-1.1-0.7-1.23c-0.5-0.11-1.12,0.15-1.23,0.7
			c-0.31,1.57-0.47,3.17-0.45,4.77c0.01,0.52,0.45,1.02,1,1C84.73,19.53,85.21,19.11,85.2,18.55L85.2,18.55z"/>
	</g>
</g>
<g>
	<path class="st8" d="M88.21,19.46c0.09-1.49,0.6-2.95,1.44-4.18"/>
	<g>
		<path class="st8" d="M89.21,19.46c0.01-0.1,0.01-0.19,0.02-0.29c0.01-0.07,0-0.38,0.01-0.09c0-0.16,0.06-0.34,0.09-0.5
			c0.07-0.35,0.17-0.7,0.29-1.04c0.03-0.09,0.06-0.18,0.1-0.27c0.02-0.05,0.08-0.15,0.08-0.2c-0.05,0.13-0.06,0.14-0.02,0.04
			c0.02-0.04,0.04-0.09,0.06-0.13c0.04-0.09,0.08-0.17,0.13-0.26c0.16-0.32,0.35-0.63,0.55-0.93c0.29-0.43,0.1-1.13-0.36-1.37
			c-0.51-0.27-1.05-0.11-1.37,0.36c-0.94,1.39-1.46,3.02-1.57,4.69c-0.04,0.52,0.49,1.02,1,1C88.78,20.44,89.17,20.02,89.21,19.46
			L89.21,19.46z"/>
	</g>
</g>
<g>
	<path class="st8" d="M92.1,20.19c0.21-1.2,0.75-2.34,1.53-3.27"/>
	<g>
		<path class="st8" d="M93.07,20.45c0.09-0.51,0.24-1,0.44-1.48c-0.03,0.08-0.07,0.16-0.1,0.24c0.13-0.31,0.29-0.62,0.46-0.91
			c0.09-0.14,0.18-0.28,0.27-0.42c0.05-0.07,0.09-0.14,0.15-0.2c-0.02,0.02-0.14,0.18-0.05,0.07c0.03-0.04,0.07-0.09,0.11-0.13
			c0.17-0.21,0.29-0.43,0.29-0.71c0-0.25-0.11-0.54-0.29-0.71c-0.37-0.34-1.06-0.43-1.41,0c-0.89,1.07-1.54,2.34-1.79,3.71
			c-0.05,0.27-0.04,0.53,0.1,0.77c0.12,0.21,0.36,0.41,0.6,0.46C92.33,21.26,92.97,21,93.07,20.45L93.07,20.45z"/>
	</g>
</g>
<g>
	<path class="st8" d="M95.16,21.74c0.83-0.45,1.53-1.15,1.99-1.98"/>
	<g>
		<path class="st8" d="M95.67,22.6c0.98-0.53,1.81-1.36,2.35-2.34c0.13-0.23,0.17-0.51,0.1-0.77c-0.06-0.23-0.24-0.48-0.46-0.6
			c-0.23-0.12-0.51-0.18-0.77-0.1c-0.24,0.08-0.47,0.23-0.6,0.46c-0.12,0.22-0.26,0.44-0.42,0.64c0.05-0.07,0.1-0.13,0.16-0.2
			c-0.26,0.34-0.56,0.64-0.9,0.9c0.07-0.05,0.13-0.1,0.2-0.16c-0.21,0.16-0.43,0.31-0.67,0.44c-0.22,0.12-0.39,0.36-0.46,0.6
			c-0.07,0.24-0.04,0.56,0.1,0.77C94.6,22.71,95.17,22.87,95.67,22.6L95.67,22.6z"/>
	</g>
</g>
<path class="st9" d="M83.17,165.26h-9.18c-14.85,0-27-12.15-27-27v-29.17c0-7.4,6.06-13.46,13.46-13.46h36.26
	c7.4,0,13.46,6.06,13.46,13.46v29.17C110.17,153.11,98.02,165.26,83.17,165.26z"/>
<path class="st2" d="M89.46,95.63l-9.93,14.98c-0.39,0.59-1.26,0.6-1.66,0.01L67.71,95.63H89.46z"/>
<path class="st9" d="M117.6,129.24h-4.32c-3.3,0-6-2.7-6-6v-13.26c0-3.3,2.7-6,6-6h4.32c3.3,0,6,2.7,6,6v13.26
	C123.6,126.54,120.9,129.24,117.6,129.24z"/>
<rect x="107.28" y="122.98" class="st2" width="16.32" height="39.46"/>
<ellipse class="st2" cx="115.44" cy="160.44" rx="9.31" ry="9.77"/>
<path class="st9" d="M44.62,129.24H40.3c-3.3,0-6-2.7-6-6v-13.26c0-3.3,2.7-6,6-6h4.32c3.3,0,6,2.7,6,6v13.26
	C50.62,126.54,47.92,129.24,44.62,129.24z"/>
<rect x="34.3" y="122.98" class="st2" width="16.32" height="39.46"/>
<ellipse class="st2" cx="42.46" cy="160.44" rx="9.31" ry="9.77"/>
<g>
	<g>
		<path class="st10" d="M27.5,171.53c1.97-1.64,2.84-2.2,4.93-0.62c1.11,0.84,2.24,1.55,3.55,2.06c2.78,1.08,5.64,1.15,8.54,0.54
			c3.15-0.67,1.81-5.49-1.33-4.82c-2.11,0.45-4.3,0.29-6.23-0.74c-1.63-0.86-2.81-2.4-4.55-3.06c-3.19-1.19-6.12,1.17-8.44,3.1
			C21.49,170.05,25.04,173.57,27.5,171.53L27.5,171.53z"/>
	</g>
</g>
<path class="st7" d="M98.74,166.37H58.42c-1.1,0-2-0.9-2-2v-3.03c0-1.1,0.9-2,2-2h40.32c1.1,0,2,0.9,2,2v3.03
	C100.74,165.47,99.84,166.37,98.74,166.37z"/>
<g>
	<path class="st11" d="M118.71,256.4H82.54v-23.33h18.17c9.9,0,18,8.1,18,18V256.4z"/>
	<rect x="82.54" y="252.5" class="st11" width="36.17" height="3.9"/>
	<rect x="82.54" y="254.45" class="st11" width="36.17" height="0.98"/>
	<g>
		<path class="st11" d="M104.49,234.77c0.38,1.54-0.15,3.24-1.04,4.47s-2.11,2.06-3.3,2.86"/>
		<g>
			<path class="st12" d="M103.53,235.03c0.28,1.2-0.11,2.49-0.84,3.56c-0.77,1.12-1.92,1.89-3.04,2.64
				c-0.45,0.3-0.64,0.88-0.36,1.37c0.26,0.45,0.92,0.66,1.37,0.36c1.44-0.96,2.86-1.99,3.83-3.45c0.96-1.46,1.38-3.29,0.98-5
				c-0.12-0.53-0.72-0.84-1.23-0.7C103.69,233.95,103.41,234.5,103.53,235.03L103.53,235.03z"/>
		</g>
	</g>
	<g>
		<path class="st11" d="M109.82,236.41c0.38,1.54-0.15,3.24-1.04,4.47c-0.89,1.22-2.11,2.06-3.3,2.86"/>
		<g>
			<path class="st12" d="M108.86,236.67c0.28,1.2-0.11,2.49-0.84,3.56c-0.77,1.12-1.92,1.89-3.04,2.64
				c-0.45,0.3-0.64,0.88-0.36,1.37c0.26,0.45,0.92,0.66,1.37,0.36c1.44-0.96,2.86-1.99,3.83-3.45c0.96-1.46,1.38-3.29,0.98-5
				c-0.12-0.53-0.72-0.84-1.23-0.7C109.02,235.59,108.74,236.14,108.86,236.67L108.86,236.67z"/>
		</g>
	</g>
	<g>
		<path class="st11" d="M113.44,239.59c0.38,1.54-0.15,3.24-1.04,4.47c-0.89,1.22-2.11,2.06-3.3,2.86"/>
		<g>
			<path class="st12" d="M112.48,239.86c0.28,1.2-0.11,2.49-0.84,3.56c-0.77,1.12-1.92,1.89-3.04,2.64
				c-0.45,0.3-0.64,0.88-0.36,1.37c0.26,0.45,0.92,0.66,1.37,0.36c1.44-0.96,2.86-1.99,3.83-3.45c0.96-1.46,1.38-3.29,0.98-5
				c-0.12-0.53-0.72-0.84-1.23-0.7C112.64,238.78,112.35,239.33,112.48,239.86L112.48,239.86z"/>
		</g>
	</g>
</g>
<rect x="82.54" y="214.58" class="st13" width="15.77" height="14.95"/>
<g>
	<path class="st11" d="M37.68,256.4h37.14v-23.33H55.68c-9.9,0-18,8.1-18,18V256.4z"/>
	
		<rect x="37.68" y="252.5" transform="matrix(-1 -5.103929e-11 5.103929e-11 -1 112.4861 508.8967)" class="st11" width="37.14" height="3.9"/>
	
		<rect x="37.68" y="254.45" transform="matrix(-1 -5.094159e-11 5.094159e-11 -1 112.4861 509.8718)" class="st11" width="37.14" height="0.98"/>
	<g>
		<path class="st11" d="M52.27,234.77c-0.39,1.54,0.15,3.24,1.07,4.47c0.92,1.22,2.16,2.06,3.39,2.86"/>
		<g>
			<path class="st12" d="M51.31,234.5c-0.41,1.71,0.02,3.55,1,5c1,1.47,2.45,2.5,3.92,3.45c0.45,0.29,1.1,0.09,1.37-0.36
				c0.28-0.49,0.1-1.07-0.36-1.37c-1.15-0.74-2.34-1.51-3.14-2.64c-0.75-1.07-1.15-2.36-0.87-3.56c0.13-0.52-0.17-1.08-0.7-1.23
				C52.03,233.66,51.43,233.97,51.31,234.5L51.31,234.5z"/>
		</g>
	</g>
	<g>
		<path class="st11" d="M46.8,236.41c-0.39,1.54,0.15,3.24,1.07,4.47c0.92,1.22,2.16,2.06,3.39,2.86"/>
		<g>
			<path class="st12" d="M45.84,236.14c-0.41,1.71,0.02,3.55,1,5c1,1.47,2.45,2.5,3.92,3.45c0.45,0.29,1.1,0.09,1.37-0.36
				c0.28-0.49,0.1-1.07-0.36-1.37c-1.15-0.74-2.34-1.51-3.14-2.64c-0.75-1.07-1.15-2.36-0.87-3.56c0.13-0.52-0.17-1.08-0.7-1.23
				C46.56,235.3,45.96,235.61,45.84,236.14L45.84,236.14z"/>
		</g>
	</g>
	<g>
		<path class="st11" d="M43.09,239.59c-0.39,1.54,0.15,3.24,1.07,4.47c0.92,1.22,2.16,2.06,3.39,2.86"/>
		<g>
			<path class="st12" d="M42.12,239.33c-0.41,1.71,0.02,3.55,1,5c1,1.47,2.45,2.5,3.92,3.45c0.45,0.29,1.1,0.09,1.37-0.36
				c0.28-0.49,0.1-1.07-0.36-1.37c-1.15-0.74-2.34-1.51-3.14-2.64c-0.75-1.07-1.15-2.36-0.87-3.56c0.13-0.52-0.17-1.08-0.7-1.23
				C42.85,238.49,42.25,238.8,42.12,239.33L42.12,239.33z"/>
		</g>
	</g>
</g>
<rect x="59.04" y="215.67" transform="matrix(-1 -3.299106e-11 3.299106e-11 -1 133.8531 445.3477)" class="st14" width="15.77" height="14.02"/>
<rect x="59.06" y="221.46" class="st11" width="15.75" height="14.95"/>
<rect x="82.55" y="221.46" class="st11" width="15.75" height="14.95"/>
<path class="st15" d="M60.37,226.31h13.1c1.66,0,3-1.34,3-3v-1.29c0-1.66-1.34-3-3-3h-13.1c-1.66,0-3,1.34-3,3v1.29
	C57.37,224.97,58.72,226.31,60.37,226.31z"/>
<path class="st15" d="M96.98,226.32h-13.1c-1.66,0-3-1.34-3-3v-1.29c0-1.66,1.34-3,3-3h13.1c1.66,0,3,1.34,3,3v1.29
	C99.98,224.98,98.64,226.32,96.98,226.32z"/>
<path class="st16" d="M82.39,168.16h-7.44c-2.06,0-3.74-1.68-3.74-3.74v-3.96c0-2.06,1.68-3.74,3.74-3.74h7.44
	c2.06,0,3.74,1.68,3.74,3.74v3.96C86.13,166.48,84.45,168.16,82.39,168.16z"/>
<rect x="82.55" y="251.07" class="st17" width="36.16" height="5.22"/>
<rect x="37.68" y="251.07" class="st17" width="37.13" height="5.22"/>
<polygon class="st7" points="33.83,256.37 26.09,256.37 27.76,248.62 32.16,248.62 "/>
<rect x="154.1" y="155.38" class="st18" width="83.02" height="63.64"/>
<rect x="168.61" y="144.05" class="st7" width="54" height="11.34"/>
<rect x="154.1" y="213.36" class="st7" width="83.02" height="5.67"/>
<rect x="154.1" y="207.69" class="st7" width="9.65" height="5.67"/>
<rect x="227.47" y="207.69" class="st7" width="9.65" height="5.67"/>
<rect x="190.78" y="207.69" class="st7" width="9.65" height="5.67"/>
<rect x="172.44" y="207.69" class="st7" width="9.65" height="5.67"/>
<rect x="209.13" y="207.69" class="st7" width="9.65" height="5.67"/>
<rect x="154.1" y="196.49" class="st19" width="9.65" height="4.59"/>
<rect x="227.47" y="196.49" class="st19" width="9.65" height="4.59"/>
<circle class="st19" cx="163.75" cy="164.98" r="7.12"/>
<circle class="st19" cx="227.47" cy="164.98" r="7.12"/>
<rect x="159.97" y="164.24" class="st7" width="7.56" height="1.49"/>
<rect x="159.97" y="164.24" transform="matrix(-1.836970e-16 1 -1 -1.836970e-16 328.7287 1.2337)" class="st7" width="7.56" height="1.49"/>
<rect x="223.69" y="164.24" class="st7" width="7.56" height="1.49"/>
<polygon class="st20" points="192.11,180.36 186.34,180.39 187.92,164.98 197.88,164.98 "/>
<polygon class="st20" points="200.93,180.39 186.34,180.39 186.79,176 205.2,176 "/>
<polygon class="st20" points="193.29,190.91 193.29,190.91 197.88,176 205.2,176 "/>
<g>
	<g>
		<path class="st7" d="M185.99,102.04c-2.69,1.15-5.46,2.54-7.33,4.86c-2.49,3.08-2.68,6.92-1.29,10.56
			c2.6,6.8,6.82,13.09,11.48,18.64c1.04,1.24,3.17,1.08,4.24,0c1.23-1.23,1.05-3,0-4.24c-3.83-4.56-7-9.65-9.52-15.04
			c-0.52-1.12-1.04-2.37-1.11-3.62c-0.06-1.03,0.29-1.82,0.66-2.31c1.39-1.78,3.76-2.74,5.91-3.66c1.49-0.64,1.82-2.83,1.08-4.1
			C189.19,101.58,187.49,101.4,185.99,102.04L185.99,102.04z"/>
	</g>
</g>
<g>
	<g>
		<path class="st7" d="M203.61,107.22c2.12,0.91,4.38,1.86,5.8,3.54c0.41,0.49,0.78,1.22,0.78,2.21c-0.01,1.32-0.56,2.65-1.12,3.84
			c-2.51,5.4-5.69,10.48-9.52,15.04c-1.04,1.24-1.22,3.03,0,4.24c1.07,1.07,3.2,1.25,4.24,0c4.67-5.55,8.86-11.83,11.48-18.64
			c1.39-3.62,1.19-7.48-1.29-10.56c-1.88-2.32-4.64-3.71-7.33-4.86c-1.49-0.64-3.22-0.44-4.1,1.08
			C201.8,104.38,202.12,106.58,203.61,107.22L203.61,107.22z"/>
	</g>
</g>
<path class="st18" d="M192.43,88.79l5.2,17.64c-7.95,2.2-16.48-3.53-19.05-12.81s1.79-18.58,9.75-20.79L192.43,88.79z"/>
<path class="st18" d="M200.63,80.96l-7.23,25.47c7.95,2.2,16.48-3.53,19.05-12.81c2.57-9.28-1.79-18.58-9.75-20.79L200.63,80.96z"/>
<path class="st21" d="M201.88,107.89H189.6c-1.65,0-3-1.35-3-3v-1.87c0-1.65,1.35-3,3-3h12.28c1.65,0,3,1.35,3,3v1.87
	C204.88,106.54,203.53,107.89,201.88,107.89z"/>
<circle class="st22" cx="191.85" cy="103.95" r="2.92"/>
<circle class="st22" cx="200.63" cy="103.95" r="2.92"/>
</svg>
