<?xml version="1.0" encoding="utf-8"?>
<!-- Generator: Adobe Illustrator 24.0.1, SVG Export Plug-In . SVG Version: 6.00 Build 0)  -->
<svg version="1.1" id="Layer_1" xmlns="http://www.w3.org/2000/svg" xmlns:xlink="http://www.w3.org/1999/xlink" x="0px" y="0px"
	 viewBox="0 0 280.01 270" style="enable-background:new 0 0 280.01 270;" xml:space="preserve">
<style type="text/css">
	.st0{fill:#401B19;}
	.st1{fill:#FED5B3;}
	.st2{fill:#4C3617;}
	.st3{fill:#D89281;}
	.st4{fill:#070707;}
	.st5{fill:#005780;}
	.st6{fill:#A3722A;}
	.st7{fill:#231F20;}
	.st8{fill:#33472B;}
	.st9{fill:#4B4E53;}
	.st10{fill:#50575C;}
	.st11{fill:#172314;stroke:#040404;stroke-miterlimit:10;}
	.st12{fill:#0F1B10;}
	.st13{fill:#C49C2D;stroke:#040404;stroke-width:0.75;stroke-miterlimit:10;}
	.st14{fill:#CCCCCC;stroke:#333333;stroke-miterlimit:10;}
	.st15{fill:#333333;}
	.st16{fill:#403E1B;}
	.st17{fill:#19120B;}
	.st18{fill:#263B82;}
	.st19{fill:#603A17;}
	.st20{fill:#A77D52;}
	.st21{fill:#BE2326;}
	.st22{fill:#941A1D;}
	.st23{fill:#010101;}
	.st24{fill:#9ADBF9;stroke:#010101;stroke-width:2;stroke-miterlimit:10;}
	.st25{fill:#E6E6E5;}
	.st26{fill:#FFFFFF;}
	.st27{fill:#EDA232;}
	.st28{fill:#D7CFC8;}
	.st29{fill:none;stroke:#010101;stroke-width:0.5;stroke-miterlimit:10;}
	.st30{fill:#775622;}
	.st31{fill:#1A130B;}
</style>
<rect x="154.89" y="113.23" class="st0" width="4.52" height="75.56"/>
<path class="st1" d="M70,94.98H55.37c-1.96,0-3.56-1.6-3.56-3.56V73.24c0-1.96,1.6-3.56,3.56-3.56H70c1.96,0,3.56,1.6,3.56,3.56
	v18.18C73.56,93.38,71.96,94.98,70,94.98z"/>
<path class="st1" d="M86.36,52.37c-0.11-0.31,0.08-0.53,0.33-0.59v-23.1c0-10.49-8.51-19-19-19h-12c-10.49,0-19,8.51-19,19v38
	c0,12.7,10.3,23,23,23h4c12.7,0,23-10.3,23-23V53.27C86.58,52.97,86.47,52.67,86.36,52.37z"/>
<path class="st2" d="M56.36,36.7h-9c-1.1,0-2-0.9-2-2v-0.67c0-1.1,0.9-2,2-2h9c1.1,0,2,0.9,2,2v0.67
	C58.36,35.8,57.46,36.7,56.36,36.7z"/>
<path class="st2" d="M76.86,36.7h-9c-1.1,0-2-0.9-2-2v-0.67c0-1.1,0.9-2,2-2h9c1.1,0,2,0.9,2,2v0.67
	C78.86,35.8,77.96,36.7,76.86,36.7z"/>
<path class="st3" d="M36.69,50.6h-3.15c-1.1,0-2-0.9-2-2v-4.63c0-1.1,0.9-2,2-2h3.15V50.6z"/>
<path class="st3" d="M89.84,50.6h-3.15v-8.63h3.15c1.1,0,2,0.9,2,2v4.63C91.84,49.71,90.95,50.6,89.84,50.6z"/>
<ellipse class="st4" cx="62.69" cy="67.56" rx="4.48" ry="3.49"/>
<path class="st3" d="M63.19,54.14h-1.15c-1.1,0-2-0.9-2-2V47.3c0-1.1,0.9-2,2-2h1.15c1.1,0,2,0.9,2,2v4.84
	C65.19,53.24,64.29,54.14,63.19,54.14z"/>
<path class="st5" d="M84.34,160.55H41.03c-3.49,0-6.35-2.86-6.35-6.35V98.53c0-3.49,2.86-6.35,6.35-6.35h43.31
	c3.49,0,6.35,2.86,6.35,6.35v55.66C90.7,157.69,87.84,160.55,84.34,160.55z"/>
<g>
	<path class="st6" d="M107.84,256.81H65.68v-23.33h24.17c9.9,0,18,8.1,18,18V256.81z"/>
	<rect x="65.68" y="252.91" class="st6" width="42.17" height="3.9"/>
	<rect x="65.68" y="254.86" class="st6" width="42.17" height="0.98"/>
	<g>
		<path class="st6" d="M91.27,235.18c0.45,1.54-0.17,3.24-1.21,4.47c-1.04,1.22-2.46,2.06-3.85,2.86"/>
		<g>
			<path class="st7" d="M90.31,235.44c0.17,0.62,0.14,1.17-0.05,1.82c-0.18,0.59-0.55,1.25-0.95,1.72c-1,1.15-2.29,1.9-3.61,2.66
				c-0.47,0.27-0.63,0.91-0.36,1.37c0.28,0.47,0.9,0.63,1.37,0.36c1.57-0.89,3.16-1.86,4.28-3.3c1.13-1.45,1.74-3.33,1.24-5.16
				c-0.14-0.52-0.71-0.84-1.23-0.7C90.48,234.36,90.16,234.92,90.31,235.44L90.31,235.44z"/>
		</g>
	</g>
	<g>
		<path class="st6" d="M97.48,236.82c0.45,1.54-0.17,3.24-1.21,4.47c-1.04,1.22-2.46,2.06-3.85,2.86"/>
		<g>
			<path class="st7" d="M96.52,237.08c0.17,0.62,0.14,1.17-0.05,1.82c-0.18,0.59-0.55,1.25-0.95,1.72c-1,1.15-2.29,1.9-3.61,2.66
				c-0.47,0.27-0.63,0.91-0.36,1.37c0.28,0.47,0.9,0.63,1.37,0.36c1.57-0.89,3.16-1.86,4.28-3.3c1.13-1.45,1.74-3.33,1.24-5.16
				c-0.14-0.52-0.71-0.84-1.23-0.7C96.69,236,96.38,236.56,96.52,237.08L96.52,237.08z"/>
		</g>
	</g>
	<g>
		<path class="st6" d="M101.7,240.01c0.45,1.54-0.17,3.24-1.21,4.47c-1.04,1.22-2.46,2.06-3.85,2.86"/>
		<g>
			<path class="st7" d="M100.73,240.27c0.17,0.62,0.14,1.17-0.05,1.82c-0.18,0.59-0.55,1.25-0.95,1.72c-1,1.15-2.29,1.9-3.61,2.66
				c-0.47,0.27-0.63,0.91-0.36,1.37c0.28,0.47,0.9,0.63,1.37,0.36c1.57-0.89,3.16-1.86,4.28-3.3c1.13-1.45,1.74-3.33,1.24-5.16
				c-0.14-0.52-0.71-0.84-1.23-0.7C100.91,239.19,100.59,239.75,100.73,240.27L100.73,240.27z"/>
		</g>
	</g>
</g>
<path class="st8" d="M81.45,228.21H65.68v-68.73c0-3.3,2.7-6,6-6h3.77c3.3,0,6,2.7,6,6V228.21z"/>
<rect x="65.68" y="214.99" class="st9" width="15.77" height="14.95"/>
<g>
	<path class="st6" d="M15.78,256.81h42.17v-23.33H33.78c-9.9,0-18,8.1-18,18V256.81z"/>
	
		<rect x="15.78" y="252.91" transform="matrix(-1 -4.494994e-11 4.494994e-11 -1 73.7242 509.7213)" class="st6" width="42.17" height="3.9"/>
	
		<rect x="15.78" y="254.86" transform="matrix(-1 -4.486379e-11 4.486379e-11 -1 73.7242 510.6964)" class="st6" width="42.17" height="0.98"/>
	<g>
		<path class="st6" d="M32.35,235.18c-0.45,1.54,0.17,3.24,1.21,4.47s2.46,2.06,3.85,2.86"/>
		<g>
			<path class="st7" d="M31.39,234.91c-0.5,1.82,0.11,3.7,1.24,5.16c1.12,1.44,2.72,2.41,4.28,3.3c0.47,0.27,1.09,0.11,1.37-0.36
				c0.27-0.46,0.11-1.1-0.36-1.37c-1.32-0.75-2.61-1.5-3.61-2.66c-0.39-0.45-0.76-1.09-0.93-1.66c-0.1-0.34-0.16-0.6-0.17-0.88
				c-0.02-0.41,0-0.61,0.11-1c0.14-0.52-0.18-1.09-0.7-1.23C32.1,234.07,31.53,234.39,31.39,234.91L31.39,234.91z"/>
		</g>
	</g>
	<g>
		<path class="st6" d="M26.14,236.82c-0.45,1.54,0.17,3.24,1.21,4.47c1.04,1.22,2.46,2.06,3.85,2.86"/>
		<g>
			<path class="st7" d="M25.17,236.55c-0.5,1.82,0.11,3.7,1.24,5.16c1.12,1.44,2.72,2.41,4.28,3.3c0.47,0.27,1.09,0.11,1.37-0.36
				c0.27-0.46,0.11-1.1-0.36-1.37c-1.32-0.75-2.61-1.5-3.61-2.66c-0.39-0.45-0.76-1.09-0.93-1.66c-0.1-0.34-0.16-0.6-0.17-0.88
				c-0.02-0.41,0-0.61,0.11-1c0.14-0.52-0.18-1.09-0.7-1.23C25.88,235.71,25.32,236.03,25.17,236.55L25.17,236.55z"/>
		</g>
	</g>
	<g>
		<path class="st6" d="M21.92,240.01c-0.45,1.54,0.17,3.24,1.21,4.47c1.04,1.22,2.46,2.06,3.85,2.86"/>
		<g>
			<path class="st7" d="M20.96,239.74c-0.5,1.82,0.11,3.7,1.24,5.16c1.12,1.44,2.72,2.41,4.28,3.3c0.47,0.27,1.09,0.11,1.37-0.36
				c0.27-0.46,0.11-1.1-0.36-1.37c-1.32-0.75-2.61-1.5-3.61-2.66c-0.39-0.45-0.76-1.09-0.93-1.66c-0.1-0.34-0.16-0.6-0.17-0.88
				c-0.02-0.41,0-0.61,0.11-1c0.14-0.52-0.18-1.09-0.7-1.23C21.67,238.9,21.1,239.22,20.96,239.74L20.96,239.74z"/>
		</g>
	</g>
</g>
<path class="st8" d="M42.18,229.36h15.77v-69.88c0-3.3-2.7-6-6-6h-3.77c-3.3,0-6,2.7-6,6V229.36z"/>
<rect x="42.18" y="216.08" transform="matrix(-1 -3.299106e-11 3.299106e-11 -1 100.122 446.1724)" class="st10" width="15.77" height="14.02"/>
<rect x="33.54" y="152.78" class="st7" width="56" height="7.77"/>
<circle class="st1" cx="96.3" cy="159.58" r="9.39"/>
<circle class="st1" cx="29.39" cy="160.39" r="9.39"/>
<rect x="81.12" y="51.1" class="st1" width="5.57" height="6.06"/>
<polygon class="st1" points="62.35,99.16 51.81,91.85 73.56,91.85 "/>
<rect x="42.19" y="221.87" class="st6" width="15.75" height="14.95"/>
<rect x="65.68" y="221.87" class="st6" width="15.75" height="14.95"/>
<path class="st1" d="M96.66,163.84h-3.06c-3.49,0-6.35-2.86-6.35-6.35v-48.96c0-3.49,2.86-6.35,6.35-6.35h3.06
	c3.49,0,6.35,2.86,6.35,6.35v48.96C103.01,160.98,100.15,163.84,96.66,163.84z"/>
<path class="st1" d="M31.34,163.84h-3.06c-3.49,0-6.35-2.86-6.35-6.35v-48.96c0-3.49,2.86-6.35,6.35-6.35h3.06
	c3.49,0,6.35,2.86,6.35,6.35v48.96C37.7,160.98,34.84,163.84,31.34,163.84z"/>
<path class="st11" d="M66.07,162.1h-7.44c-2.06,0-3.74-1.68-3.74-3.74v-3.96c0-2.06,1.68-3.74,3.74-3.74h7.44
	c2.06,0,3.74,1.68,3.74,3.74v3.96C69.81,160.42,68.13,162.1,66.07,162.1z"/>
<path class="st5" d="M31.34,94.98h-3.06c-3.49,0-6.35,4.23-6.35,9.41v14.98H37.7v-14.98C37.7,99.21,34.84,94.98,31.34,94.98z"/>
<path class="st5" d="M96.66,96.8h-3.06c-3.49,0-6.35,3.92-6.35,8.71v13.86h15.77V105.5C103.01,100.72,100.15,96.8,96.66,96.8z"/>
<path class="st12" d="M43.51,230.09h13.1c1.66,0,3-1.34,3-3v-4.66c0-1.66-1.34-3-3-3h-13.1c-1.66,0-3,1.34-3,3v4.66
	C40.51,228.75,41.85,230.09,43.51,230.09z"/>
<path class="st12" d="M80.11,229.95h-13.1c-1.66,0-3-1.34-3-3v-4.51c0-1.66,1.34-3,3-3h13.1c1.66,0,3,1.34,3,3v4.51
	C83.11,228.6,81.77,229.95,80.11,229.95z"/>
<circle class="st13" cx="62.58" cy="106.06" r="1.44"/>
<path class="st14" d="M58.3,46.49H43.82c-1.1,0-2-0.9-2-2v-6.94c0-1.1,0.9-2,2-2H58.3c1.1,0,2,0.9,2,2v6.94
	C60.3,45.59,59.4,46.49,58.3,46.49z"/>
<path class="st14" d="M80.8,46.49H66.32c-1.1,0-2-0.9-2-2v-6.94c0-1.1,0.9-2,2-2H80.8c1.1,0,2,0.9,2,2v6.94
	C82.8,45.59,81.9,46.49,80.8,46.49z"/>
<rect x="60.3" y="41.97" class="st15" width="4.02" height="1.17"/>
<rect x="82.67" y="40.33" class="st15" width="4.02" height="1.64"/>
<g>
	<g>
		<g>
			<g>
				<path class="st16" d="M62.47,59.95c0.75,1.14,0.88,2.59,0.18,3.97c-0.68,1.37-2.21,2.62-4.17,3.08
					c-0.97,0.23-3.48,0.43-6.46-0.24c-2.97-0.63-6.35-2.28-8.71-4.59c-2.41-2.27-3.89-4.97-4.59-7c-0.37-1.01-0.55-1.87-0.67-2.46
					c-0.09-0.59-0.14-0.93-0.14-0.93s0.19,0.27,0.54,0.75c0.36,0.46,0.88,1.12,1.6,1.8c1.4,1.39,3.58,2.87,5.95,3.61
					c2.37,0.8,4.76,0.75,6.57,0.39c1.83-0.35,3.07-0.95,3.6-1.07c1.06-0.25,2.14-0.09,3.26,0.35C60.55,58.08,61.7,58.79,62.47,59.95
					z"/>
			</g>
		</g>
	</g>
	<g>
		<g>
			<g>
				<path class="st16" d="M62.91,59.95c0.77-1.16,1.92-1.88,3.03-2.33c1.13-0.44,2.21-0.6,3.26-0.35c0.53,0.12,1.77,0.72,3.6,1.07
					c1.81,0.36,4.21,0.4,6.57-0.39c2.37-0.74,4.55-2.22,5.95-3.61c0.72-0.68,1.23-1.34,1.6-1.8c0.34-0.48,0.54-0.75,0.54-0.75
					s-0.05,0.33-0.14,0.93c-0.12,0.59-0.3,1.45-0.67,2.46c-0.7,2.03-2.18,4.73-4.59,7c-2.35,2.31-5.74,3.97-8.71,4.59
					c-2.98,0.67-5.49,0.47-6.46,0.24c-1.96-0.46-3.49-1.71-4.17-3.08C62.02,62.55,62.15,61.09,62.91,59.95z"/>
			</g>
		</g>
	</g>
</g>
<rect x="36.69" y="40.21" class="st15" width="4.78" height="1.64"/>
<path class="st17" d="M55.69,8.1h12c10.49,0,19,8.51,19,19v13.23l-3.4,0l0.05-2.3c0-10.49-9.16-17.74-19.65-17.74h-12
	c-6.11,0-11.52,2.89-15,7.37V27.1C36.69,16.6,45.2,8.1,55.69,8.1z"/>
<circle class="st13" cx="62.58" cy="113.8" r="1.44"/>
<circle class="st13" cx="62.69" cy="122.11" r="1.44"/>
<circle class="st13" cx="62.69" cy="129.86" r="1.44"/>
<circle class="st13" cx="62.69" cy="137.78" r="1.44"/>
<circle class="st13" cx="62.69" cy="145.34" r="1.44"/>
<path class="st18" d="M80.26,120.1h-6.55c-0.55,0-1-0.45-1-1v-9.61c0-0.55,0.45-1,1-1h6.55c0.55,0,1,0.45,1,1v9.61
	C81.26,119.65,80.82,120.1,80.26,120.1z"/>
<circle class="st13" cx="76.99" cy="111.26" r="1.11"/>
<circle class="st19" cx="135.63" cy="233.65" r="11.77"/>
<circle class="st19" cx="151" cy="240.01" r="11.77"/>
<circle class="st19" cx="163.82" cy="233.65" r="11.77"/>
<circle class="st19" cx="183.71" cy="240.3" r="11.77"/>
<circle class="st19" cx="201.62" cy="243.01" r="11.77"/>
<circle class="st19" cx="198.03" cy="232.43" r="11.77"/>
<circle class="st19" cx="166.83" cy="247.63" r="11.77"/>
<circle class="st19" cx="126.69" cy="247.42" r="11.77"/>
<circle class="st19" cx="143.28" cy="248.35" r="11.77"/>
<circle class="st19" cx="189.84" cy="248.35" r="11.77"/>
<circle class="st19" cx="157.12" cy="247.15" r="11.77"/>
<circle class="st19" cx="206.98" cy="251.13" r="11.77"/>
<circle class="st19" cx="178.07" cy="248.35" r="11.77"/>
<circle class="st20" cx="123.86" cy="234.65" r="5"/>
<circle class="st20" cx="144.87" cy="227.31" r="5"/>
<circle class="st20" cx="139.23" cy="224.69" r="5"/>
<circle class="st20" cx="175.59" cy="231.23" r="5"/>
<circle class="st20" cx="152.04" cy="227.43" r="5"/>
<circle class="st20" cx="128.58" cy="228.18" r="5"/>
<circle class="st20" cx="134.23" cy="223.18" r="5"/>
<circle class="st20" cx="135.63" cy="229.8" r="5"/>
<circle class="st20" cx="191.26" cy="227.3" r="5"/>
<circle class="st20" cx="180.93" cy="230.93" r="5"/>
<circle class="st20" cx="188.71" cy="230.86" r="5"/>
<circle class="st20" cx="195.48" cy="220.65" r="5"/>
<circle class="st20" cx="185.93" cy="225.65" r="5"/>
<circle class="st20" cx="190.93" cy="222.68" r="5"/>
<circle class="st20" cx="180.93" cy="224.8" r="5"/>
<circle class="st20" cx="173.61" cy="223.52" r="5"/>
<path class="st21" d="M157.9,219.67h-0.68c-5.32,0-10.25-2.78-13-7.32l-3.6-5.94c-0.88-1.46-1.4-3.11-1.49-4.81l-0.46-8.14
	c-0.15-2.58,1.9-4.75,4.48-4.75h27.61c2.44,0,4.44,1.96,4.49,4.4l0.18,8.82c0.03,1.48-0.34,2.94-1.06,4.23l-3.26,5.79
	C168.42,216.72,163.37,219.67,157.9,219.67z"/>
<path class="st22" d="M158.15,214.04h-2c-0.55,0-1-0.45-1-1v-24.25h4v24.25C159.15,213.59,158.7,214.04,158.15,214.04z"/>
<path class="st0" d="M172.55,98.04l-15.4,0.06h-15.4c0,8.65,6.95,15.77,15.4,15.77s15.4-7.12,15.4-15.77
	C172.55,98.08,172.55,98.06,172.55,98.04z M157.15,111.81c-6.05,0-11.03-5.27-11.03-11.67h11.03l11.03-0.04c0,0.01,0,0.03,0,0.04
	C168.18,106.54,163.2,111.81,157.15,111.81z"/>
<path class="st23" d="M186.68,183.4h-2.32c-0.55,0-1-0.45-1-1v-22.2c0-0.55,0.45-1,1-1h2.32c0.55,0,1,0.45,1,1v22.2
	C187.68,182.95,187.23,183.4,186.68,183.4z"/>
<ellipse class="st24" cx="185.52" cy="147.92" rx="13.27" ry="13.69"/>
<g>
	<g>
		<path class="st25" d="M182.05,137.22c-0.55,0.24-1.04,0.58-1.52,0.93c-0.48,0.35-0.96,0.7-1.41,1.08
			c-0.87,0.73-1.62,1.66-1.9,2.78c-0.13,0.51,0.16,1.11,0.7,1.23c0.52,0.12,1.09-0.16,1.23-0.7c0.03-0.12,0.06-0.23,0.1-0.35
			c0.05-0.15,0.04-0.05-0.02,0.03c0.03-0.05,0.06-0.12,0.08-0.18c0.05-0.1,0.1-0.19,0.16-0.28c0.03-0.06,0.07-0.11,0.11-0.16
			c0.02-0.03,0.12-0.19,0.04-0.06c-0.08,0.13,0.02-0.03,0.05-0.05c0.04-0.05,0.09-0.1,0.13-0.15c0.07-0.08,0.15-0.16,0.23-0.24
			c0.18-0.18,0.36-0.34,0.55-0.5c0.09-0.07,0.18-0.14,0.26-0.21c0.05-0.04,0.19-0.19,0.01-0.01c0.04-0.04,0.09-0.07,0.14-0.1
			c0.2-0.15,0.4-0.3,0.6-0.44c0.46-0.33,0.93-0.65,1.46-0.88c0.48-0.21,0.63-0.95,0.36-1.37
			C183.1,137.08,182.56,136.99,182.05,137.22L182.05,137.22z"/>
	</g>
</g>
<path class="st19" d="M257.13,211.12h-42.19c-3.9,0-7.09-3.19-7.09-7.09v-60.08c0-3.9,3.19-7.09,7.09-7.09h42.19
	c3.9,0,7.09,3.19,7.09,7.09v60.08C264.23,207.92,261.04,211.12,257.13,211.12z"/>
<rect x="211.08" y="140.24" class="st26" width="49.93" height="68.58"/>
<path class="st27" d="M253.11,142.24h-34.14c-1.65,0-3-1.35-3-3v-0.5c0-1.65,1.35-3,3-3h34.14c1.65,0,3,1.35,3,3v0.5
	C256.11,140.89,254.76,142.24,253.11,142.24z"/>
<circle class="st27" cx="236.04" cy="134.53" r="7.71"/>
<circle class="st28" cx="236.04" cy="133.07" r="3.77"/>
<path class="st23" d="M257.66,148.71h-43.24c-1.05,0-1.9-0.86-1.9-1.9l0,0c0-1.05,0.86-1.9,1.9-1.9h43.24c1.05,0,1.9,0.86,1.9,1.9
	l0,0C259.56,147.85,258.71,148.71,257.66,148.71z"/>
<path class="st23" d="M257.66,155.18h-43.24c-1.05,0-1.9-0.86-1.9-1.9v0c0-1.05,0.86-1.9,1.9-1.9h43.24c1.05,0,1.9,0.86,1.9,1.9v0
	C259.56,154.32,258.71,155.18,257.66,155.18z"/>
<path class="st23" d="M257.66,161.65h-43.24c-1.05,0-1.9-0.86-1.9-1.9l0,0c0-1.05,0.86-1.9,1.9-1.9h43.24c1.05,0,1.9,0.86,1.9,1.9
	l0,0C259.56,160.79,258.71,161.65,257.66,161.65z"/>
<path class="st23" d="M257.96,168.12h-43.24c-1.05,0-1.9-0.86-1.9-1.9l0,0c0-1.05,0.86-1.9,1.9-1.9h43.24c1.05,0,1.9,0.86,1.9,1.9
	l0,0C259.86,167.26,259,168.12,257.96,168.12z"/>
<path class="st23" d="M257.96,174.59h-43.24c-1.05,0-1.9-0.86-1.9-1.9v0c0-1.05,0.86-1.9,1.9-1.9h43.24c1.05,0,1.9,0.86,1.9,1.9v0
	C259.86,173.73,259,174.59,257.96,174.59z"/>
<path class="st23" d="M257.44,181.06h-29.3c-1.05,0-1.9-0.86-1.9-1.9l0,0c0-1.05,0.86-1.9,1.9-1.9h29.3c1.05,0,1.9,0.86,1.9,1.9l0,0
	C259.34,180.2,258.48,181.06,257.44,181.06z"/>
<ellipse class="st19" cx="218.44" cy="194.39" rx="2.35" ry="1.58"/>
<ellipse class="st19" cx="220.88" cy="195.23" rx="2.35" ry="1.58"/>
<ellipse class="st19" cx="216.92" cy="192.81" rx="2.35" ry="1.58"/>
<ellipse class="st19" cx="218.94" cy="191.58" rx="2.35" ry="1.58"/>
<ellipse class="st19" cx="216.59" cy="192.07" rx="1.17" ry="1.58"/>
<ellipse class="st19" cx="220.79" cy="193.16" rx="1.17" ry="1.58"/>
<ellipse class="st19" cx="216.09" cy="194.74" rx="1.17" ry="1.58"/>
<ellipse class="st19" cx="221.29" cy="190.85" rx="1.17" ry="1.58"/>
<ellipse class="st19" cx="219.71" cy="190.85" rx="1.17" ry="1.58"/>
<rect x="213.21" y="186.31" class="st29" width="13" height="13"/>
<rect x="229.84" y="186.31" class="st29" width="13" height="13"/>
<rect x="246.34" y="186.5" class="st29" width="13" height="13"/>
<ellipse class="st30" cx="239" cy="195.97" rx="1.17" ry="1.58"/>
<ellipse class="st30" cx="237.39" cy="194.74" rx="1.85" ry="1.58"/>
<ellipse class="st30" cx="234.19" cy="195.97" rx="1.85" ry="1.58"/>
<ellipse class="st30" cx="235.55" cy="194.19" rx="1.85" ry="1.58"/>
<ellipse class="st30" cx="236.94" cy="196.32" rx="1.85" ry="1.58"/>
<ellipse class="st30" cx="233.52" cy="193.65" rx="1.85" ry="1.58"/>
<ellipse class="st30" cx="239.24" cy="194.74" rx="1.4" ry="1.58"/>
<path class="st23" d="M224.02,202.57h-10.01c-0.55,0-1-0.45-1-1l0,0c0-0.55,0.45-1,1-1h10.01c0.55,0,1,0.45,1,1l0,0
	C225.02,202.12,224.57,202.57,224.02,202.57z"/>
<path class="st23" d="M241.78,202.57h-11.24c-0.55,0-1-0.45-1-1l0,0c0-0.55,0.45-1,1-1h11.24c0.55,0,1,0.45,1,1l0,0
	C242.78,202.12,242.34,202.57,241.78,202.57z"/>
<path class="st23" d="M252.59,202.57h-5.49c-0.55,0-1-0.45-1-1l0,0c0-0.55,0.45-1,1-1h5.49c0.55,0,1,0.45,1,1l0,0
	C253.59,202.12,253.14,202.57,252.59,202.57z"/>
<ellipse class="st31" cx="250.76" cy="196.81" rx="2.39" ry="1.34"/>
<ellipse class="st31" cx="253.14" cy="196.81" rx="1.1" ry="1.34"/>
<ellipse class="st31" cx="254.69" cy="196.32" rx="1.1" ry="1.34"/>
<ellipse class="st31" cx="256.2" cy="197.11" rx="1.1" ry="1.34"/>
<ellipse class="st31" cx="252.78" cy="195.14" rx="1.44" ry="1.34"/>
<ellipse class="st31" cx="249.5" cy="194.74" rx="1.44" ry="1.34"/>
<ellipse class="st31" cx="251.28" cy="193.8" rx="1.44" ry="1.34"/>
<ellipse class="st31" cx="250.76" cy="195.23" rx="1.44" ry="1.34"/>
<ellipse class="st31" cx="254.69" cy="196.81" rx="1.85" ry="1.34"/>
</svg>
