<?xml version="1.0" encoding="utf-8"?>
<!-- Generator: Adobe Illustrator 24.0.1, SVG Export Plug-In . SVG Version: 6.00 Build 0)  -->
<svg version="1.1" id="Layer_1" xmlns="http://www.w3.org/2000/svg" xmlns:xlink="http://www.w3.org/1999/xlink" x="0px" y="0px"
	 viewBox="0 0 280.01 270" style="enable-background:new 0 0 280.01 270;" xml:space="preserve">
<style type="text/css">
	.st0{fill:#602615;}
	.st1{fill:#181048;}
	.st2{fill:#D7BD9E;}
	.st3{fill:#BADAD4;}
	.st4{fill:#231F20;}
	.st5{fill:none;stroke:#FFFFFF;stroke-width:0.75;stroke-miterlimit:10;}
	.st6{fill:#3B2416;}
	.st7{fill:#595A5C;}
	.st8{fill:#A87D50;}
	.st9{fill:#010101;}
	.st10{fill:#FFE4B4;stroke:#010101;stroke-miterlimit:10;}
	.st11{fill:none;stroke:#010101;stroke-width:0.5;stroke-miterlimit:10;}
	.st12{fill:#F69320;}
	.st13{fill:#DDADCF;}
	.st14{fill:#E31F44;}
	.st15{fill:#F39984;}
	.st16{fill:#CAEBFC;}
</style>
<g>
	<g>
		<g>
			<path class="st0" d="M93.67,59.75c0.2,0.1,0.4,0.21,0.6,0.3c0.86,0.41-0.31-0.38,0.04-0.02c0.15,0.15,0.32,0.34,0.48,0.47
				c0.4,0.31-0.46-0.81,0.02,0.02c0.03,0.05,0.35,0.57,0.34,0.58c-0.03,0.02-0.26-0.88-0.07-0.14c0.04,0.15,0.38,1.04,0.15,0.38
				c-0.19-0.55,0,0.19,0,0.41c0.03,2.35,2.05,4.61,4.5,4.5c2.41-0.11,4.53-1.98,4.5-4.5c-0.05-4.01-2.32-8.03-6.02-9.76
				c-2.13-1-4.95-0.67-6.16,1.61C91.01,55.59,91.4,58.69,93.67,59.75L93.67,59.75z"/>
		</g>
	</g>
	<g>
		<g>
			<path class="st0" d="M91.01,47.64c1.26,5.69,0.01,13.12-4.49,17.11c-4.34,3.85,2.04,10.2,6.36,6.36
				c6.91-6.13,8.72-17.19,6.8-25.87C98.44,39.59,89.76,41.98,91.01,47.64L91.01,47.64z"/>
		</g>
	</g>
	<g>
		<g>
			<path class="st0" d="M38.08,48.59c-1.4,8.37,1.14,16.77,7.63,22.42c4.35,3.79,10.74-2.55,6.36-6.36
				c-3.94-3.43-6.2-8.38-5.32-13.67C47.7,45.31,39.03,42.88,38.08,48.59L38.08,48.59z"/>
		</g>
	</g>
	<g>
		<g>
			<path class="st0" d="M35.54,60.79c0,0.23-0.02,0.46-0.04,0.68c0.09-0.63,0.09-0.69-0.01-0.18c-0.1,0.29-0.1,0.75-0.3,0.98
				c0.22-0.49,0.26-0.59,0.11-0.29c-0.07,0.15-0.15,0.31-0.24,0.45c-0.11,0.2-0.24,0.39-0.37,0.58c0.36-0.45,0.39-0.49,0.06-0.11
				c-1.55,1.77-1.87,4.64,0,6.36c1.7,1.56,4.71,1.89,6.36,0c2.12-2.43,3.29-5.24,3.42-8.48c0.09-2.35-2.14-4.61-4.5-4.5
				C37.52,56.4,35.64,58.26,35.54,60.79L35.54,60.79z"/>
		</g>
	</g>
	<g>
		<g>
			<path class="st0" d="M39.88,48.74c0.52,0.46,1.04,0.93,1.55,1.39c1.09,0.98,2.32,1.43,3.78,1.24c0.6-0.03,1.16-0.21,1.67-0.53
				c0.68-0.4,1.21-0.94,1.61-1.61c1.19-2.01,1.16-4.52,0.02-6.54c-0.55-0.98-1.62-1.77-2.69-2.07c-1.08-0.3-2.51-0.16-3.47,0.45
				c-0.96,0.62-1.81,1.54-2.07,2.69c-0.27,1.19-0.16,2.39,0.45,3.47c0.04,0.07,0.08,0.14,0.11,0.22c-0.15-0.36-0.3-0.72-0.45-1.07
				c0.06,0.16,0.1,0.31,0.13,0.47c-0.05-0.4-0.11-0.8-0.16-1.2c0.02,0.17,0.02,0.33,0.01,0.49c0.05-0.4,0.11-0.8,0.16-1.2
				c-0.03,0.21-0.08,0.4-0.16,0.59c0.15-0.36,0.3-0.72,0.45-1.07c-0.03,0.08-0.07,0.15-0.12,0.22c2.36-0.3,4.71-0.61,7.07-0.91
				c-0.52-0.46-1.04-0.93-1.55-1.39c-0.89-0.8-1.96-1.32-3.18-1.32c-1.1,0-2.42,0.49-3.18,1.32c-0.79,0.86-1.37,1.98-1.32,3.18
				C38.61,46.71,38.99,47.94,39.88,48.74L39.88,48.74z"/>
		</g>
	</g>
	<g>
		<g>
			<path class="st0" d="M96.43,62.06c0.74-5.06-0.37-10.6,1.49-15.42c2.09-5.41-6.61-7.75-8.68-2.39
				c-1.96,5.08-0.73,10.2-1.49,15.42c-0.35,2.42,0.6,4.81,3.14,5.54C93.01,65.81,96.08,64.46,96.43,62.06L96.43,62.06z"/>
		</g>
	</g>
</g>
<g>
	<path class="st1" d="M68.98,165.41c0,0,23.32,7.02,22.89,1.3c-0.69-9.11-4.59-11.1-5.07-20.49c-0.35-6.78-0.5-22.58,0.38-31.12
		c0.57-5.47,1.92-4.13,2.75-8.13c2.17-10.35-1.24-20.38-1.24-20.38s-5.8-5.31-8.4-5.77c-8.82-1.58-11.32,5.77-11.32,5.77V165.41z"/>
	<path class="st1" d="M69.99,165.41c0,0-21.95,6.51-21.94,0.67c0.01-8.8,3.64-10.47,4.12-19.85c0.46-8.88,1.68-21.46,0.26-31.37
		c-0.36-2.49-2.76-4.77-3.19-6.83c-2.17-10.35,1.04-21.44,1.04-21.44s2.24-4.72,8.84-5.3c7.89-0.69,10.87,5.3,10.87,5.3V165.41z"/>
</g>
<path class="st2" d="M103.88,141.09l-4.69,0.28c-2.2,0.13-4.1-1.55-4.23-3.75l-1.61-26.49c-0.13-2.2,1.55-4.1,3.75-4.23l4.69-0.28
	c2.2-0.13,4.1,1.55,4.23,3.75l1.61,26.49C107.76,139.06,106.07,140.96,103.88,141.09z"/>
<path class="st2" d="M35.63,140.67l4.69,0.28c2.2,0.13,4.1-1.55,4.23-3.75l1.61-26.49c0.13-2.2-1.55-4.1-3.75-4.23l-4.69-0.28
	c-2.2-0.13-4.1,1.55-4.23,3.75l-1.61,26.49C31.75,138.63,33.44,140.54,35.63,140.67z"/>
<path class="st2" d="M73.84,86.24h-10c-1.1,0-2-0.9-2-2V74.23c0-1.1,0.9-2,2-2h10c1.1,0,2,0.9,2,2v10.01
	C75.84,85.34,74.94,86.24,73.84,86.24z"/>
<path class="st2" d="M68.59,75.74L68.59,75.74c-12.2,0-22.1-9.89-22.1-22.1V34.17c0-10.25,8.31-18.56,18.56-18.56h7.07
	c10.25,0,18.56,8.31,18.56,18.56v19.47C90.69,65.84,80.8,75.74,68.59,75.74z"/>
<path class="st3" d="M68.18,86.24l1.34,8.94c0,0,3.66,0.13,10.27,0.76c7.46,0.71,11.86,4.94,11.86,4.94
	c0.43-8.19-2.07-15.01-2.07-15.01s-6.27-5.31-9.08-5.77c-7.41-1.23-4.02,4.76-12.1,4.53C67.56,84.41,68.18,86.24,68.18,86.24z"/>
<path class="st3" d="M69.36,85.89l0.16,9.28c0,0-7.61-0.08-10.44-0.08c-2.64,0-11.61,5.8-11.61,5.8
	c-0.42-8.19,2.03-15.01,2.03-15.01s6.16-5.31,8.92-5.77c7.28-1.23,1.01,2.33,9.99,4.5C67.98,85.18,69.36,85.89,69.36,85.89z"/>
<path class="st2" d="M36.17,112.96l4.36,1.76c2.04,0.82,4.38-0.17,5.21-2.21l6.98-17.31c0.82-2.04-0.17-4.38-2.21-5.21l-4.36-1.76
	c-2.04-0.82-4.38,0.17-5.21,2.21l-6.98,17.31C33.14,109.8,34.13,112.14,36.17,112.96z"/>
<path class="st2" d="M103.33,113.39l-4.36,1.76c-2.04,0.82-4.38-0.17-5.21-2.21l-6.98-17.31c-0.82-2.04,0.17-4.38,2.21-5.21
	l4.36-1.76c2.04-0.82,4.38,0.17,5.21,2.21l6.98,17.31C106.37,110.22,105.37,112.56,103.33,113.39z"/>
<path class="st3" d="M88.49,100.41l12-4.41l-4.51-11.53c-1.01-2.57-4-3.88-6.65-2.9l-2.35,0.87c-2.65,0.97-4,3.88-2.99,6.45
	L88.49,100.41z"/>
<path class="st3" d="M51.01,99.99l-12-4.41l4.51-11.53c1.01-2.57,4-3.88,6.65-2.9l2.35,0.87c2.65,0.97,4,3.88,2.99,6.45L51.01,99.99
	z"/>
<path class="st1" d="M79.83,92.43L79.83,92.43c-1.38,0-2.5-1.13-2.5-2.5v-7.56c0-1.38,1.13-2.5,2.5-2.5h0c1.38,0,2.5,1.13,2.5,2.5
	v7.56C82.33,91.31,81.21,92.43,79.83,92.43z"/>
<path class="st1" d="M58.84,92.43L58.84,92.43c-1.38,0-2.5-1.13-2.5-2.5v-7.56c0-1.38,1.13-2.5,2.5-2.5h0c1.37,0,2.5,1.13,2.5,2.5
	v7.56C61.34,91.31,60.22,92.43,58.84,92.43z"/>
<ellipse class="st4" cx="79.83" cy="93.65" rx="2.67" ry="3.25"/>
<ellipse class="st4" cx="58.84" cy="93.65" rx="2.67" ry="3.25"/>
<path class="st5" d="M77.71,120.73H61.02c-1.66,0-3-1.34-3-3v-6.5c0-1.66,1.34-3,3-3h16.69c1.66,0,3,1.34,3,3v6.5
	C80.71,119.38,79.36,120.73,77.71,120.73z"/>
<path class="st5" d="M80.71,112.73H58.02v-1.5c0-1.66,1.34-3,3-3h16.69c1.66,0,3,1.34,3,3V112.73z"/>
<path class="st0" d="M64.58,251.76l-9.14,0.62c-1.65,0.11-3.08-1.14-3.2-2.79l-1.45-21.45c-0.11-1.65,1.14-3.08,2.79-3.2l9.14-0.62
	c1.65-0.11,3.08,1.14,3.2,2.79l1.45,21.45C67.49,250.21,66.23,251.65,64.58,251.76z"/>
<path class="st6" d="M65.98,227.6H50.44c-1.1,0-2-0.9-2-2v-0.33c0-1.1,0.9-2,2-2h15.53c1.1,0,2,0.9,2,2v0.33
	C67.98,226.7,67.08,227.6,65.98,227.6z"/>
<path class="st0" d="M53.68,264.77L30,264.85c0-2.55,0.72-10.03,6.84-10.42c7.83-0.5,16.73-3.79,15.67-7.5
	c-2.8-9.81,3.5-4.77,10.17-3c8.17,2.17,2.17,6.67,6.34,12.58c1.34,1.9,0.95,5.8,0.97,8.2l-7.65,0.05l-0.17-2.83L53.68,264.77z"/>
<polygon class="st7" points="70.03,264.85 62.28,264.85 62.18,261.93 70.03,261.93 "/>
<polygon class="st7" points="53.49,264.85 30,264.85 30.12,262.86 62.18,261.93 "/>
<path class="st0" d="M74.42,251.76l9.14,0.62c1.65,0.11,3.08-1.14,3.2-2.79l1.45-21.45c0.11-1.65-1.14-3.08-2.79-3.2l-9.14-0.62
	c-1.65-0.11-3.08,1.14-3.2,2.79l-1.45,21.45C71.52,250.21,72.77,251.65,74.42,251.76z"/>
<path class="st6" d="M73.03,227.6h15.53c1.1,0,2-0.9,2-2v-0.33c0-1.1-0.9-2-2-2H73.03c-1.1,0-2,0.9-2,2v0.33
	C71.03,226.7,71.92,227.6,73.03,227.6z"/>
<path class="st0" d="M85.33,264.77l23.68,0.08c0-2.55-0.72-10.03-6.84-10.42c-7.83-0.5-16.73-3.79-15.67-7.5
	c2.8-9.81-3.5-4.77-10.17-3c-8.17,2.17-2.17,6.67-6.34,12.58c-1.34,1.9-0.95,5.8-0.97,8.2l7.65,0.05l0.17-2.83L85.33,264.77z"/>
<polygon class="st7" points="68.98,264.85 76.72,264.85 76.83,261.93 68.98,261.93 "/>
<polygon class="st7" points="85.51,264.85 109.01,264.85 108.89,262.86 76.83,261.93 "/>
<circle class="st2" cx="100.82" cy="138.51" r="8.18"/>
<circle class="st2" cx="37.79" cy="138.29" r="8.18"/>
<g>
	<g>
		<path class="st4" d="M59.21,41.98c3.86,0,3.87-6,0-6C55.35,35.98,55.34,41.98,59.21,41.98L59.21,41.98z"/>
	</g>
</g>
<g>
	<g>
		<path class="st4" d="M78.17,41.98c3.86,0,3.87-6,0-6C74.31,35.98,74.3,41.98,78.17,41.98L78.17,41.98z"/>
	</g>
</g>
<g>
	<g>
		<path class="st4" d="M75.1,34.92c1.45,0.2,2.84-0.07,4.28-0.22c1.18-0.13,2.43-0.14,3.47,0.52c0.82,0.52,1.57-0.78,0.76-1.3
			c-1.14-0.72-2.51-0.86-3.83-0.76c-1.41,0.11-2.85,0.51-4.28,0.31c-0.4-0.06-0.81,0.1-0.92,0.52
			C74.48,34.35,74.69,34.86,75.1,34.92L75.1,34.92z"/>
	</g>
</g>
<g>
	<g>
		<path class="st4" d="M62.55,33.42c-1.76-0.27-3.56-0.68-5.34-0.74c-1.56-0.05-3.17,0.33-4.31,1.46c-0.69,0.68,0.38,1.74,1.06,1.06
			c0.94-0.94,2.31-1.09,3.58-1.01c1.54,0.1,3.08,0.43,4.61,0.67c0.4,0.06,0.81-0.1,0.92-0.52C63.17,33.99,62.95,33.48,62.55,33.42
			L62.55,33.42z"/>
	</g>
</g>
<path class="st8" d="M69.52,53.39L69.52,53.39c-1.1,0-2-0.9-2-2v-3.81c0-1.1,0.9-2,2-2l0,0c1.1,0,2,0.9,2,2v3.81
	C71.52,52.49,70.62,53.39,69.52,53.39z"/>
<g>
	<g>
		<path class="st4" d="M75.77,61.19c-2.75,0.34-5.51,0.56-8.28,0.65c-1.21,0.04-2.59,0.21-3.77-0.15c-1.07-0.33-1.88-1.15-2.6-1.97
			c-0.85-0.97-2.26,0.45-1.41,1.41c0.79,0.9,1.69,1.73,2.8,2.22c1.29,0.57,2.7,0.53,4.08,0.5c3.07-0.06,6.13-0.3,9.18-0.68
			c0.54-0.07,0.99-0.41,1-1C76.77,61.7,76.3,61.12,75.77,61.19L75.77,61.19z"/>
	</g>
</g>
<path class="st1" d="M100.37,234.27l-55.14-1.4c-3.04-0.08-5.51-2.49-5.64-5.53l-1.8-40.63c-0.3-1.82,2.33-23.6,2.99-25.32
	c2.24-5.84,9.13-17.64,15.4-18.71c13.75-2.35,17.12-3.41,30.62,3.55c8.7,4.49,16.64,29.66,16.49,36.86
	c-0.26,12.48,1.39,35.26,2.23,45.76C105.75,231.83,103.36,234.35,100.37,234.27z"/>
<path class="st9" d="M85.43,145.87H53.3c-0.55,0-1,0.1-1-0.45l0.21-4.95c0-0.55,0.24-0.75,0.79-0.75h32.13c0.55,0,1.16-0.55,1.16,0
	l0.17,5.54C86.75,145.81,85.98,145.87,85.43,145.87z"/>
<g>
	<g>
		<path class="st0" d="M73.72,19.29c9.63-2.73,17.08,11.12,19.05,18.79c1.13,4.39,0.75,8.54,2.54,12.85
			c1.99,4.82,4.3,9.52,6.47,14.26c2.4,5.26,10.16,0.69,7.77-4.54c-2.75-6.01-6.68-12.31-7.31-18.95
			c-0.59-6.19-2.58-11.22-5.58-16.66C91.55,15.77,82.7,7.4,71.33,10.61C65.76,12.19,68.13,20.87,73.72,19.29L73.72,19.29z"/>
	</g>
</g>
<g>
	<g>
		<path class="st0" d="M68.06,10c-11.38-3.22-20.21,5.17-25.33,14.43c-3.03,5.48-4.89,10.45-5.58,16.66
			c-0.74,6.67-4.54,12.9-7.31,18.95c-2.39,5.23,5.36,9.81,7.77,4.54c2.09-4.57,4.26-9.11,6.24-13.72c1.93-4.51,1.58-8.78,2.77-13.39
			c1.97-7.68,9.41-21.52,19.05-18.79C71.25,20.26,73.64,11.58,68.06,10L68.06,10z"/>
	</g>
</g>
<path class="st8" d="M93.24,42.65h-2.55v-8.9h1.55c1.66,0,3,1.34,3,3v3.9C95.24,41.76,94.35,42.65,93.24,42.65z"/>
<path class="st8" d="M43.94,42.65h2.55v-8.9h-1.55c-1.66,0-3,1.34-3,3v3.9C41.94,41.76,42.84,42.65,43.94,42.65z"/>
<path class="st10" d="M251.55,209.09h-84.78c-2.75,0-5-2.25-5-5V82.85c0-2.75,2.25-5,5-5h84.78c2.75,0,5,2.25,5,5v121.24
	C256.55,206.84,254.3,209.09,251.55,209.09z"/>
<polygon class="st11" points="186.34,140.9 166.9,150.3 166.9,126.72 186.34,132.53 "/>
<polygon class="st11" points="186.34,140.9 205.78,150.3 205.78,126.72 186.34,132.53 "/>
<rect x="205.78" y="135.93" class="st11" width="5.14" height="5.14"/>
<path class="st11" d="M249.97,114.89h-80.44c-0.55,0-1-0.45-1-1V85.47c0-0.55,0.45-1,1-1h80.44c0.55,0,1,0.45,1,1v28.42
	C250.97,114.44,250.53,114.89,249.97,114.89z"/>
<line class="st11" x1="175.51" y1="129.29" x2="175.67" y2="146.05"/>
<line class="st11" x1="166.98" y1="127.06" x2="175.67" y2="146.05"/>
<line class="st11" x1="175.59" y1="129.56" x2="166.9" y2="150.3"/>
<path class="st11" d="M251.58,152.15h-33.4c-0.55,0-1-0.45-1-1v-24.19c0-0.55,0.45-1,1-1h33.4c0.55,0,1,0.45,1,1v24.19
	C252.58,151.7,252.13,152.15,251.58,152.15z"/>
<path class="st11" d="M179.82,200.15h-14.2c-0.55,0-1-0.45-1-1v-32.64c0-0.55,0.45-1,1-1h14.2c0.55,0,1,0.45,1,1v32.64
	C180.82,199.7,180.37,200.15,179.82,200.15z"/>
<polygon class="st11" points="194.65,179.9 206.38,197.75 182.91,197.75 "/>
<polygon class="st11" points="217.83,179.9 229.57,197.75 206.1,197.75 "/>
<polygon class="st11" points="241.3,179.9 253.03,197.75 229.57,197.75 "/>
<line class="st11" x1="194.51" y1="179.72" x2="241.3" y2="179.72"/>
<path class="st9" d="M235.74,130.49h-15.52c-0.55,0-1-0.45-1-1v-0.34c0-0.55,0.45-1,1-1h15.52c0.55,0,1,0.45,1,1v0.34
	C236.74,130.04,236.29,130.49,235.74,130.49z"/>
<path class="st9" d="M235.74,134.96h-15.52c-0.55,0-1-0.45-1-1v-0.34c0-0.55,0.45-1,1-1h15.52c0.55,0,1,0.45,1,1v0.34
	C236.74,134.51,236.29,134.96,235.74,134.96z"/>
<path class="st9" d="M235.74,139.43h-15.52c-0.55,0-1-0.45-1-1v-0.34c0-0.55,0.45-1,1-1h15.52c0.55,0,1,0.45,1,1v0.34
	C236.74,138.98,236.29,139.43,235.74,139.43z"/>
<path class="st9" d="M178.56,169.71h-11.72c-0.55,0-1-0.45-1-1v-0.34c0-0.55,0.45-1,1-1h11.72c0.55,0,1,0.45,1,1v0.34
	C179.56,169.26,179.11,169.71,178.56,169.71z"/>
<path class="st9" d="M178.56,173.75h-11.72c-0.55,0-1-0.45-1-1v-0.34c0-0.55,0.45-1,1-1h11.72c0.55,0,1,0.45,1,1v0.34
	C179.56,173.3,179.11,173.75,178.56,173.75z"/>
<path class="st9" d="M178.58,177.8h-11.72c-0.55,0-1-0.45-1-1v-0.34c0-0.55,0.45-1,1-1h11.72c0.55,0,1,0.45,1,1v0.34
	C179.58,177.35,179.13,177.8,178.58,177.8z"/>
<path class="st9" d="M178.58,181.85h-11.72c-0.55,0-1-0.45-1-1v-0.34c0-0.55,0.45-1,1-1h11.72c0.55,0,1,0.45,1,1v0.34
	C179.58,181.4,179.13,181.85,178.58,181.85z"/>
<path class="st9" d="M175.02,185.9h-8.16c-0.55,0-1-0.45-1-1v-0.34c0-0.55,0.45-1,1-1h8.16c0.55,0,1,0.45,1,1v0.34
	C176.02,185.45,175.57,185.9,175.02,185.9z"/>
<path class="st9" d="M246.9,92.43h-73.84c-0.55,0-1-0.45-1-1v-2.37c0-0.55,0.45-1,1-1h73.84c0.55,0,1,0.45,1,1v2.37
	C247.9,91.98,247.45,92.43,246.9,92.43z"/>
<path class="st9" d="M239.52,100.41h-66.46c-0.55,0-1-0.45-1-1v-2.37c0-0.55,0.45-1,1-1h66.46c0.55,0,1,0.45,1,1v2.37
	C240.52,99.96,240.07,100.41,239.52,100.41z"/>
<rect x="144" y="121.75" class="st12" width="7.33" height="62.31"/>
<path class="st13" d="M150.34,186.06H145c-0.55,0-1-0.45-1-1v-7.67h7.33v7.67C151.34,185.61,150.89,186.06,150.34,186.06z"/>
<rect x="144" y="176.48" class="st14" width="7.33" height="3.5"/>
<polygon class="st15" points="147.67,108.7 151.34,121.75 144,121.75 "/>
<polygon class="st4" points="149.35,114.69 147.67,108.7 145.99,114.69 "/>
<rect x="121.9" y="77.65" class="st16" width="12.06" height="116.08"/>
<path class="st9" d="M133.93,81.25h-7.19c-0.55,0-1-0.45-1-1l0,0c0-0.55,0.45-1,1-1h7.19V81.25z"/>
<path class="st9" d="M133.93,85.19h-3.1c-0.55,0-1-0.45-1-1v0c0-0.55,0.45-1,1-1h3.1V85.19z"/>
<path class="st9" d="M133.93,89.12h-3.1c-0.55,0-1-0.45-1-1v0c0-0.55,0.45-1,1-1h3.1V89.12z"/>
<path class="st9" d="M133.93,93.06h-3.1c-0.55,0-1-0.45-1-1v0c0-0.55,0.45-1,1-1h3.1V93.06z"/>
<path class="st9" d="M133.96,96.99h-7.19c-0.55,0-1-0.45-1-1v0c0-0.55,0.45-1,1-1h7.19V96.99z"/>
<path class="st9" d="M133.93,100.93h-3.1c-0.55,0-1-0.45-1-1v0c0-0.55,0.45-1,1-1h3.1V100.93z"/>
<path class="st9" d="M133.93,104.86h-3.1c-0.55,0-1-0.45-1-1v0c0-0.55,0.45-1,1-1h3.1V104.86z"/>
<path class="st9" d="M133.93,108.8h-3.1c-0.55,0-1-0.45-1-1v0c0-0.55,0.45-1,1-1h3.1V108.8z"/>
<path class="st9" d="M133.96,112.73h-7.19c-0.55,0-1-0.45-1-1v0c0-0.55,0.45-1,1-1h7.19V112.73z"/>
<path class="st9" d="M133.93,116.69h-3.1c-0.55,0-1-0.45-1-1v0c0-0.55,0.45-1,1-1h3.1V116.69z"/>
<path class="st9" d="M133.93,120.62h-3.1c-0.55,0-1-0.45-1-1l0,0c0-0.55,0.45-1,1-1h3.1V120.62z"/>
<path class="st9" d="M133.93,124.56h-3.1c-0.55,0-1-0.45-1-1l0,0c0-0.55,0.45-1,1-1h3.1V124.56z"/>
<path class="st9" d="M133.96,128.49h-7.19c-0.55,0-1-0.45-1-1l0,0c0-0.55,0.45-1,1-1h7.19V128.49z"/>
<path class="st9" d="M133.9,132.43h-3.1c-0.55,0-1-0.45-1-1l0,0c0-0.55,0.45-1,1-1h3.1V132.43z"/>
<path class="st9" d="M133.9,136.36h-3.1c-0.55,0-1-0.45-1-1l0,0c0-0.55,0.45-1,1-1h3.1V136.36z"/>
<path class="st9" d="M133.9,140.3h-3.1c-0.55,0-1-0.45-1-1l0,0c0-0.55,0.45-1,1-1h3.1V140.3z"/>
<path class="st9" d="M133.93,144.23h-7.19c-0.55,0-1-0.45-1-1l0,0c0-0.55,0.45-1,1-1h7.19V144.23z"/>
<path class="st9" d="M133.9,148.17h-3.1c-0.55,0-1-0.45-1-1l0,0c0-0.55,0.45-1,1-1h3.1V148.17z"/>
<path class="st9" d="M133.9,152.1h-3.1c-0.55,0-1-0.45-1-1l0,0c0-0.55,0.45-1,1-1h3.1V152.1z"/>
<path class="st9" d="M133.9,156.04h-3.1c-0.55,0-1-0.45-1-1l0,0c0-0.55,0.45-1,1-1h3.1V156.04z"/>
<path class="st9" d="M133.93,159.97h-7.19c-0.55,0-1-0.45-1-1l0,0c0-0.55,0.45-1,1-1h7.19V159.97z"/>
<path class="st9" d="M133.9,163.91h-3.1c-0.55,0-1-0.45-1-1l0,0c0-0.55,0.45-1,1-1h3.1V163.91z"/>
<path class="st9" d="M133.9,167.84h-3.1c-0.55,0-1-0.45-1-1l0,0c0-0.55,0.45-1,1-1h3.1V167.84z"/>
<path class="st9" d="M133.9,171.78h-3.1c-0.55,0-1-0.45-1-1l0,0c0-0.55,0.45-1,1-1h3.1V171.78z"/>
<path class="st9" d="M133.93,175.71h-7.19c-0.55,0-1-0.45-1-1l0,0c0-0.55,0.45-1,1-1h7.19V175.71z"/>
<path class="st9" d="M133.9,179.65h-3.1c-0.55,0-1-0.45-1-1l0,0c0-0.55,0.45-1,1-1h3.1V179.65z"/>
<path class="st9" d="M133.9,183.58h-3.1c-0.55,0-1-0.45-1-1l0,0c0-0.55,0.45-1,1-1h3.1V183.58z"/>
<path class="st9" d="M133.9,187.52h-3.1c-0.55,0-1-0.45-1-1l0,0c0-0.55,0.45-1,1-1h3.1V187.52z"/>
<path class="st9" d="M133.93,191.45h-7.19c-0.55,0-1-0.45-1-1l0,0c0-0.55,0.45-1,1-1h7.19V191.45z"/>
</svg>
