<?xml version="1.0" encoding="utf-8"?>
<!-- Generator: Adobe Illustrator 24.0.1, SVG Export Plug-In . SVG Version: 6.00 Build 0)  -->
<svg version="1.1" id="Layer_1" xmlns="http://www.w3.org/2000/svg" xmlns:xlink="http://www.w3.org/1999/xlink" x="0px" y="0px"
	 viewBox="0 0 280.01 270" style="enable-background:new 0 0 280.01 270;" xml:space="preserve">
<style type="text/css">
	.st0{fill:#046937;}
	.st1{fill:#FFE6AC;}
	.st2{fill:#C0D7F0;}
	.st3{fill:#FFFAEC;}
	.st4{fill:#A7C6E8;}
	.st5{fill:#231F20;}
	.st6{fill:#FEF1EC;}
	.st7{fill:#22110E;}
	.st8{fill:#010101;}
	.st9{fill:#732B8D;}
	.st10{fill:#F7F9E8;stroke:#040404;stroke-width:0.75;stroke-miterlimit:10;}
	.st11{fill:#D2EDF3;}
	.st12{fill:#732B8D;stroke:#211D12;stroke-width:0.5;stroke-miterlimit:10;}
	.st13{fill:#8C6C2A;}
	.st14{fill:#B0862D;}
	.st15{fill:#403E1B;}
	.st16{fill:#725723;}
	.st17{fill:#3E2D17;}
	.st18{fill:#3E1613;}
	.st19{fill:#6D5121;}
	.st20{fill:#CFECF6;stroke:#010101;stroke-width:0.75;stroke-miterlimit:10;}
	.st21{fill:none;stroke:#010101;stroke-width:0.75;stroke-miterlimit:10;}
	.st22{fill:#B4E3F3;}
	.st23{fill:#704220;}
	.st24{fill:#432610;}
	.st25{fill:#9B54A1;}
	.st26{fill:#ED247F;}
	.st27{fill:#8B4C20;}
	.st28{fill:#626364;}
	.st29{fill:#351222;}
	.st30{fill:#303232;}
	.st31{fill:#F99D26;}
	.st32{fill:#ED2224;}
</style>
<g>
	<g>
		<path class="st0" d="M255.48,158.88c3.13-0.79,5.76,0.92,7.16,3.66c1.44,2.83,2.43,5.42,5.32,7.09c1.25,0.72,2.82,1.29,3.68,2.51
			c0.99,1.42-0.13,3.34-0.36,4.86c-0.49,3.27,0.56,6.49,2.71,8.96c1.27,1.46,3.39-0.67,2.12-2.12c-1.14-1.3-1.85-2.98-1.95-4.71
			c-0.11-1.95,0.84-3.65,0.88-5.57c0.09-3.93-3.56-5.09-6.24-6.93c-2.64-1.82-3.06-5.52-5.07-7.89c-2.19-2.59-5.82-3.56-9.05-2.75
			C252.81,156.45,253.6,159.35,255.48,158.88L255.48,158.88z"/>
	</g>
</g>
<path class="st1" d="M83.46,103.81H68.82c-1.96,0-3.56-1.6-3.56-3.56v-8.79c0-1.96,1.6-3.56,3.56-3.56h14.63
	c1.96,0,3.56,1.6,3.56,3.56v8.79C87.02,102.21,85.42,103.81,83.46,103.81z"/>
<path class="st2" d="M97.8,169.38H54.49c-3.49,0-6.35-2.86-6.35-6.35v-55.66c0-3.49,2.86-6.35,6.35-6.35H97.8
	c3.49,0,6.35,2.86,6.35,6.35v55.66C104.15,166.52,101.29,169.38,97.8,169.38z"/>
<rect x="85.62" y="111.2" class="st3" width="7.82" height="7.82"/>
<path class="st4" d="M91.8,124.18h-4.53c-1.59,0-2.89-1.3-2.89-2.89v-4.53c0-1.59,1.3-2.89,2.89-2.89h4.53
	c1.59,0,2.89,1.3,2.89,2.89v4.53C94.69,122.88,93.39,124.18,91.8,124.18z"/>
<g>
	<path class="st5" d="M121.3,265.64H79.13v-23.33h24.17c9.9,0,18,8.1,18,18V265.64z"/>
	<rect x="79.13" y="261.74" class="st6" width="42.17" height="3.9"/>
	<rect x="79.13" y="263.69" class="st7" width="42.17" height="0.98"/>
</g>
<path class="st1" d="M89.74,249.31H84.3c-2.85,0-5.17-2.31-5.17-5.17v-8.81c0-2.85,2.31-5.17,5.17-5.17h5.44
	c2.85,0,5.17,2.31,5.17,5.17v8.81C94.9,247,92.59,249.31,89.74,249.31z"/>
<path class="st8" d="M94.9,240.55H79.13v-72.25c0-3.3,2.7-6,6-6h3.77c3.3,0,6,2.7,6,6V240.55z"/>
<path class="st9" d="M93.57,241.55h-13.1c-1.66,0-3-1.34-3-3v-1.29c0-1.66,1.34-3,3-3h13.1c1.66,0,3,1.34,3,3v1.29
	C96.57,240.21,95.23,241.55,93.57,241.55z"/>
<g>
	<path class="st5" d="M29.23,265.64H71.4v-23.33H47.23c-9.9,0-18,8.1-18,18V265.64z"/>
	
		<rect x="29.23" y="261.74" transform="matrix(-1 -4.486379e-11 4.486379e-11 -1 100.6326 527.3798)" class="st6" width="42.17" height="3.9"/>
	
		<rect x="29.23" y="263.69" transform="matrix(-1 -4.494994e-11 4.494994e-11 -1 100.6326 528.3549)" class="st7" width="42.17" height="0.98"/>
</g>
<path class="st1" d="M60.8,249.31h5.44c2.85,0,5.17-2.31,5.17-5.17v-8.81c0-2.85-2.31-5.17-5.17-5.17H60.8
	c-2.85,0-5.17,2.31-5.17,5.17v8.81C55.63,247,57.94,249.31,60.8,249.31z"/>
<path class="st8" d="M55.63,240.55H71.4v-72.25c0-3.3-2.7-6-6-6h-3.77c-3.3,0-6,2.7-6,6V240.55z"/>
<path class="st9" d="M56.96,241.55h13.1c1.66,0,3-1.34,3-3v-1.29c0-1.66-1.34-3-3-3h-13.1c-1.66,0-3,1.34-3,3v1.29
	C53.96,240.21,55.31,241.55,56.96,241.55z"/>
<rect x="47" y="161.61" class="st5" width="56" height="7.77"/>
<path class="st10" d="M79.53,170.93h-7.44c-2.06,0-3.74-1.68-3.74-3.74v-3.96c0-2.06,1.68-3.74,3.74-3.74h7.44
	c2.06,0,3.74,1.68,3.74,3.74v3.96C83.27,169.25,81.58,170.93,79.53,170.93z"/>
<path class="st11" d="M108.62,106.74h-5.21c-10.17,0-4.18,12.21-4.18,24.92v36.77H115v-36.77
	C115,118.95,117.68,109.64,108.62,106.74z"/>
<path class="st11" d="M43.86,105.58h5.21c10.17,0,4.18,12.21,4.18,24.92v36.77H37.49v-36.77C37.49,117.79,34.81,108.48,43.86,105.58
	z"/>
<polygon class="st12" points="74.92,109.13 71.02,105.82 74.87,101.64 78.74,106.01 "/>
<polygon class="st12" points="75.29,145.88 69.89,140.79 71.82,106.49 74.92,109.13 78.02,106.6 80.68,140.54 "/>
<path class="st11" d="M103.42,217.62H90.53c-0.55,0-1-0.45-1-1V101.01h7.89c4.97,0,9,4.03,9,9v104.61
	C106.42,216.28,105.08,217.62,103.42,217.62z"/>
<path class="st11" d="M46.74,217.62h17.53c0.55,0,1-0.45,1-1V101.01H53.74c-5.52,0-10,4.48-10,10v103.61
	C43.74,216.28,45.08,217.62,46.74,217.62z"/>
<circle class="st1" cx="44.26" cy="170.93" r="9.39"/>
<circle class="st1" cx="107.37" cy="170.93" r="9.39"/>
<circle class="st8" cx="93.44" cy="148.36" r="2.49"/>
<circle class="st8" cx="93.44" cy="164.03" r="2.49"/>
<g>
	<path class="st1" d="M78.24,98.61h-4c-12.7,0-23-10.3-23-23v-38c0-10.49,8.51-19,19-19h12c10.49,0,19,8.51,19,19v38
		C101.24,88.31,90.94,98.61,78.24,98.61z"/>
	<path class="st13" d="M70.9,44.11h-9c-1.1,0-2-0.9-2-2v-0.67c0-1.1,0.9-2,2-2h9c1.1,0,2,0.9,2,2v0.67
		C72.9,43.21,72,44.11,70.9,44.11z"/>
	<path class="st13" d="M91.4,44.11h-9c-1.1,0-2-0.9-2-2v-0.67c0-1.1,0.9-2,2-2h9c1.1,0,2,0.9,2,2v0.67
		C93.4,43.21,92.5,44.11,91.4,44.11z"/>
	<path class="st14" d="M51.24,59.01h-3.15c-1.1,0-2-0.9-2-2v-4.63c0-1.1,0.9-2,2-2h3.15V59.01z"/>
	<path class="st14" d="M104.38,59.01h-3.15v-8.63h3.15c1.1,0,2,0.9,2,2v4.63C106.38,58.11,105.49,59.01,104.38,59.01z"/>
	<circle class="st15" cx="66.4" cy="48.37" r="2.06"/>
	<circle class="st15" cx="87.55" cy="48.37" r="2.06"/>
	<ellipse class="st16" cx="76.95" cy="68.41" rx="7" ry="5"/>
	<path class="st14" d="M77.74,62.54h-1.15c-1.1,0-2-0.9-2-2v-8.17c0-1.1,0.9-2,2-2h1.15c1.1,0,2,0.9,2,2v8.17
		C79.74,61.64,78.84,62.54,77.74,62.54z"/>
	<path class="st17" d="M82.24,18.61h-12c-10.49,0-19,8.51-19,19v7.65c0.48-1.98,2.04-3.65,4.67-3.65c0.11,0,0.22,0.01,0.32,0.02
		c1.15-9.4,9.14-16.68,18.84-16.68h12c4.71,0,9.01,1.72,12.33,4.56C96.36,23.07,89.83,18.61,82.24,18.61z"/>
	<path class="st18" d="M83.1,85.47h-4c-12.7,0-23-10.3-23-23l0.13-20.85c0.13-12.54-0.61-1.67-1.82-2.18
		c-3.74-1.57-3.14,7.2-3.14,14.45v21.89c0,12.7,10.3,23,23,23h4c12.43,0,22.55-9.87,22.98-22.2C97.03,81.99,90.47,85.47,83.1,85.47z
		"/>
	<g>
		<g>
			<g>
				<g>
					<path class="st15" d="M76.95,61.77c0.75,1.14,0.88,2.59,0.18,3.97c-0.68,1.37-2.21,2.62-4.17,3.08
						c-0.97,0.23-3.48,0.43-6.46-0.24c-2.97-0.63-6.35-2.28-8.71-4.59c-2.41-2.27-3.89-4.97-4.59-7c-0.37-1.01-0.55-1.87-0.67-2.46
						c-0.09-0.59-0.14-0.93-0.14-0.93s0.19,0.27,0.54,0.75c0.36,0.46,0.88,1.12,1.6,1.8c1.4,1.39,3.58,2.87,5.95,3.61
						c2.37,0.8,4.76,0.75,6.57,0.39c1.83-0.35,3.07-0.95,3.6-1.07c1.06-0.25,2.14-0.09,3.26,0.35
						C75.02,59.89,76.18,60.6,76.95,61.77z"/>
				</g>
			</g>
		</g>
		<g>
			<g>
				<g>
					<path class="st15" d="M77.38,61.77c0.77-1.16,1.92-1.88,3.03-2.33c1.13-0.44,2.21-0.6,3.26-0.35c0.53,0.12,1.77,0.72,3.6,1.07
						c1.81,0.36,4.21,0.4,6.57-0.39c2.37-0.74,4.55-2.22,5.95-3.61c0.72-0.68,1.23-1.34,1.6-1.8c0.34-0.48,0.54-0.75,0.54-0.75
						s-0.05,0.33-0.14,0.93c-0.12,0.59-0.3,1.45-0.67,2.46c-0.7,2.03-2.18,4.73-4.59,7c-2.35,2.31-5.74,3.97-8.71,4.59
						c-2.98,0.67-5.49,0.47-6.46,0.24c-1.96-0.46-3.49-1.71-4.17-3.08C76.5,64.36,76.63,62.91,77.38,61.77z"/>
				</g>
			</g>
		</g>
	</g>
	<path class="st18" d="M101.24,37.44h-50v0c0-16.5,13.5-30,30-30h20c8.25,0,15,6.75,15,15v0C116.24,30.69,109.49,37.44,101.24,37.44
		z"/>
	<g>
		<g>
			<path class="st19" d="M105.79,10.21c-2.83,3.07-6.96,3.49-10.91,3.57c-4.3,0.1-8.65,0.16-12.93-0.32
				c-1.97-0.22-3.94-0.76-5.93-0.78c-2.1-0.02-4.04,0.68-5.96,1.46c-3.88,1.57-7.69,3.3-11.44,5.16c-0.42,0.21-0.83,0.61-0.31,0.92
				c0.51,0.31,1.57-0.1,2.04-0.33c3.93-1.94,7.94-3.87,12.06-5.36c2.29-0.83,4.45-0.14,6.77,0.17c2.14,0.29,4.31,0.41,6.47,0.46
				c4.3,0.11,8.78,0.27,13.04-0.39c3.63-0.56,7.24-1.92,9.77-4.66c0.46-0.5-0.4-0.64-0.73-0.64
				C107.08,9.48,106.24,9.73,105.79,10.21L105.79,10.21z"/>
		</g>
	</g>
	<g>
		<g>
			<path class="st19" d="M109.45,13.44c-4.14,6.98-12.99,7.98-20.32,7.78c-8.48-0.24-16.9-1.2-24.86,2.46
				c-4.05,1.86-7.68,4.49-11.26,7.11c-0.51,0.37-0.72,1.05-0.16,1.47c0.57,0.43,1.55,0.2,2.08-0.18c3.27-2.39,6.56-4.8,10.23-6.54
				c4-1.9,8.24-2.55,12.64-2.6c8.54-0.08,17.33,1.61,25.49-1.75c3.67-1.51,6.89-3.99,8.93-7.43c0.37-0.63-0.33-1.11-0.88-1.19
				C110.62,12.46,109.82,12.82,109.45,13.44L109.45,13.44z"/>
		</g>
	</g>
	<g>
		<g>
			<path class="st19" d="M110.85,15.52c0.32,3.67-1.65,7.22-4.59,9.34c-3.23,2.34-7.26,3.06-11.16,3.27
				c-8.3,0.45-16.64-0.64-24.67,2.1c-3.85,1.32-7.43,3.34-10.25,6.32c-1.21,1.28,1.59,1.49,2.37,0.67
				c5.82-6.15,14.59-7.15,22.61-7.18c8.1-0.03,17.2,0.73,23.87-4.8c3.12-2.58,5.07-6.4,4.71-10.49
				C113.64,13.61,110.74,14.27,110.85,15.52L110.85,15.52z"/>
		</g>
	</g>
	<g>
		<g>
			<path class="st19" d="M112.29,18.67c-0.44,2.48-1.01,5.15-2.66,7.14c-1.69,2.05-4.33,2.55-6.81,2.99
				c-2.56,0.45-5.07,0.91-7.42,2.08c-2.41,1.21-4.52,2.94-6.18,5.06c-1.14,1.45,1.59,1.98,2.44,0.9c1.7-2.18,3.92-3.9,6.53-4.85
				c2.58-0.94,5.38-1.03,8.02-1.76c2.53-0.7,4.87-2.01,6.37-4.22c1.53-2.25,2.17-4.91,2.64-7.55
				C115.49,16.99,112.53,17.33,112.29,18.67L112.29,18.67z"/>
		</g>
	</g>
</g>
<ellipse class="st20" cx="66.4" cy="48.37" rx="8.52" ry="5.42"/>
<ellipse class="st20" cx="88.02" cy="48.37" rx="8.52" ry="5.42"/>
<line class="st21" x1="74.93" y1="48.37" x2="79.49" y2="48.37"/>
<path class="st22" d="M167.77,162.56L167.77,162.56c-1.52,0-2.77-1.24-2.77-2.77v-25.77h5.53v25.77
	C170.53,161.32,169.29,162.56,167.77,162.56z"/>
<path class="st22" d="M171.41,134.18h-7.28c-0.62,0-1.12-0.51-1.12-1.12l0,0c0-0.62,0.51-1.12,1.12-1.12h7.28
	c0.62,0,1.12,0.51,1.12,1.12l0,0C172.53,133.67,172.03,134.18,171.41,134.18z"/>
<rect x="155.19" y="177.54" class="st23" width="6.43" height="86.64"/>
<rect x="250.06" y="177.54" class="st23" width="6.43" height="86.64"/>
<rect x="201.95" y="118.5" transform="matrix(6.123234e-17 -1 1 6.123234e-17 30.8337 379.4873)" class="st23" width="6.43" height="111.64"/>
<polygon class="st24" points="175.18,177.54 161.62,193.13 161.62,198.03 179.44,177.54 "/>
<polygon class="st24" points="236.5,177.54 250.06,193.13 250.06,198.03 232.24,177.54 "/>
<path class="st25" d="M167.77,162.71L167.77,162.71c-1.52,0-2.77-1.24-2.77-2.77v-13.21h5.53v13.21
	C170.53,161.47,169.29,162.71,167.77,162.71z"/>
<g>
	<path class="st22" d="M218.46,146.03l12.82,22.21c0.74,1.28-0.18,2.87-1.66,2.87h-25.65c-1.48,0-2.4-1.6-1.66-2.87l12.82-22.21
		C215.88,144.75,217.73,144.75,218.46,146.03z"/>
	<rect x="213.75" y="130.69" class="st22" width="6.12" height="24.46"/>
	<path class="st22" d="M221.46,130.69h-9.32c-0.62,0-1.12-0.51-1.12-1.12v-0.48c0-0.62,0.51-1.12,1.12-1.12h9.32
		c0.62,0,1.12,0.51,1.12,1.12v0.48C222.59,130.18,222.08,130.69,221.46,130.69z"/>
</g>
<path class="st22" d="M180.61,162.56L180.61,162.56c-1.52,0-2.77-1.24-2.77-2.77v-25.77h5.53v25.77
	C183.38,161.32,182.13,162.56,180.61,162.56z"/>
<path class="st22" d="M184.25,134.18h-7.28c-0.62,0-1.12-0.51-1.12-1.12l0,0c0-0.62,0.51-1.12,1.12-1.12h7.28
	c0.62,0,1.12,0.51,1.12,1.12l0,0C185.38,133.67,184.87,134.18,184.25,134.18z"/>
<path class="st26" d="M180.61,162.71L180.61,162.71c-1.52,0-2.77-1.24-2.77-2.77v-16.97h5.53v16.97
	C183.38,161.47,182.13,162.71,180.61,162.71z"/>
<path class="st22" d="M193.66,162.56L193.66,162.56c-1.52,0-2.77-1.24-2.77-2.77v-25.77h5.53v25.77
	C196.43,161.32,195.18,162.56,193.66,162.56z"/>
<path class="st22" d="M197.3,134.18h-7.28c-0.62,0-1.12-0.51-1.12-1.12l0,0c0-0.62,0.51-1.12,1.12-1.12h7.28
	c0.62,0,1.12,0.51,1.12,1.12l0,0C198.43,133.67,197.92,134.18,197.3,134.18z"/>
<path class="st27" d="M193.66,162.71L193.66,162.71c-1.52,0-2.77-1.24-2.77-2.77v-8.2h5.53v8.2
	C196.43,161.47,195.18,162.71,193.66,162.71z"/>
<rect x="163" y="144.49" class="st5" width="1.98" height="26.62"/>
<rect x="170.42" y="144.49" class="st5" width="1.98" height="26.62"/>
<rect x="196.43" y="144.49" class="st5" width="1.98" height="26.62"/>
<rect x="183.13" y="144.49" class="st5" width="1.98" height="26.62"/>
<rect x="175.85" y="144.49" class="st5" width="1.98" height="26.62"/>
<rect x="188.9" y="144.49" class="st5" width="1.98" height="26.62"/>
<rect x="172.4" y="144.49" class="st5" width="3.44" height="2.25"/>
<rect x="185.11" y="144.49" class="st5" width="3.78" height="2.25"/>
<rect x="215.92" y="132.54" class="st5" width="3.9" height="1.14"/>
<rect x="215.92" y="138.56" class="st5" width="3.9" height="1.14"/>
<rect x="215.92" y="144.57" class="st5" width="3.9" height="1.14"/>
<path class="st28" d="M257.73,171.04h-23.11c-0.55,0-1-0.45-1-1v-1.3c0-0.55,0.45-1,1-1h23.11c0.55,0,1,0.45,1,1v1.3
	C258.73,170.59,258.28,171.04,257.73,171.04z"/>
<rect x="242.76" y="147.48" class="st28" width="8.19" height="20.25"/>
<path class="st29" d="M253.72,159.71h-2.78v-4.96h2.78c0.55,0,1,0.45,1,1v2.96C254.72,159.26,254.28,159.71,253.72,159.71z"/>
<rect x="243.82" y="144.78" class="st30" width="6.07" height="2.7"/>
<g>
	<path class="st31" d="M243.8,144.39c-0.65-0.45-1.22-1.03-1.64-1.7c-0.29-0.45-0.51-0.96-0.53-1.5c-0.02-0.54,0.19-1.1,0.63-1.41
		c0.02,0.26,0.23,0.49,0.49,0.56c0.25,0.07,0.54-0.01,0.74-0.17c0.28-0.22,0.42-0.6,0.36-0.95c-0.03-0.19-0.12-0.37-0.21-0.54
		c-0.12-0.24-0.25-0.47-0.39-0.7c-0.33-0.53-0.75-1-1.1-1.51c-0.36-0.51-0.67-1.08-0.75-1.69c-0.09-0.62,0.08-1.3,0.55-1.71
		c-0.07,0.45,0.27,0.89,0.71,1.02c0.43,0.13,0.91-0.03,1.26-0.32c0.34-0.29,0.57-0.7,0.73-1.13c0.11-0.3,0.2-0.63,0.42-0.86
		c-0.12,0.43-0.19,0.9-0.04,1.32c0.16,0.42,0.62,0.75,1.05,0.63c0.33-0.09,0.55-0.41,0.73-0.71c0.35,0.36,0.71,0.81,0.67,1.31
		c-0.05,0.7-0.85,1.27-0.67,1.95c0.12,0.46,0.7,0.7,1.15,0.54c0.45-0.16,0.74-0.62,0.8-1.1c0.19,0.27,0.37,0.53,0.56,0.8
		c0.12,0.17,0.24,0.35,0.26,0.56c0.02,0.29-0.17,0.55-0.31,0.8c-0.27,0.47-0.4,1-0.51,1.52c-0.05,0.25-0.1,0.5-0.04,0.75
		c0.06,0.24,0.27,0.47,0.52,0.47c0.31,0,0.52-0.32,0.6-0.62c0.08-0.3,0.09-0.63,0.26-0.88c0.28,0.45,0.56,0.91,0.72,1.42
		s0.21,1.07,0.02,1.56c-0.28,0.75-1.06,1.3-1.13,2.1c-0.01,0.09-0.02,0.21-0.11,0.24c-0.04,0.02-0.09,0.01-0.13,0
		c-0.77-0.11-1.56,0.03-2.34,0.08c-1.03,0.07-2.07-0.04-3.1-0.14"/>
	<g>
		<path class="st32" d="M243.99,144.06c-1.04-0.74-2.95-2.83-1.47-4.01c-0.21-0.06-0.42-0.11-0.63-0.17
			c0.16,0.7,0.87,1.03,1.52,0.75c0.71-0.29,0.96-1.11,0.7-1.79c-0.35-0.93-1.03-1.68-1.59-2.47c-0.62-0.87-1.24-2.14-0.33-3.05
			c-0.21-0.09-0.43-0.18-0.64-0.27c-0.04,0.94,0.85,1.6,1.75,1.4c0.46-0.1,0.86-0.38,1.15-0.75c0.4-0.5,0.46-1.18,0.85-1.67
			c-0.21-0.12-0.42-0.24-0.63-0.36c-0.21,0.83-0.23,1.84,0.63,2.3c0.78,0.42,1.39-0.14,1.79-0.77c-0.2,0.03-0.39,0.05-0.59,0.08
			c0.34,0.36,0.65,0.74,0.5,1.26c-0.09,0.31-0.33,0.58-0.47,0.87c-0.21,0.47-0.25,0.99,0.11,1.4c0.89,1.03,2.23,0.07,2.44-1
			c-0.23,0.03-0.46,0.06-0.69,0.09c0.27,0.39,0.86,0.95,0.68,1.48c-0.12,0.35-0.37,0.67-0.49,1.03c-0.2,0.58-0.48,1.43-0.2,2.02
			c0.2,0.43,0.69,0.68,1.14,0.48c0.67-0.29,0.56-1.06,0.85-1.61c-0.22,0-0.43,0-0.65,0c0.54,0.87,1.13,1.9,0.59,2.91
			c-0.16,0.31-0.4,0.57-0.6,0.87c-0.2,0.3-0.25,0.62-0.41,0.93c-0.04,0.11-0.01,0.12,0.11,0.05c-0.12-0.02-0.23-0.03-0.35-0.03
			c-0.23-0.01-0.47-0.01-0.7,0.01c-0.47,0.03-0.94,0.09-1.41,0.12c-1,0.05-1.99-0.05-2.98-0.15c-0.48-0.05-0.48,0.7,0,0.75
			c1.28,0.13,2.52,0.19,3.8,0.08c0.55-0.05,1.09,0.01,1.63-0.02c0.37-0.02,0.49-0.18,0.6-0.52c0.26-0.85,0.98-1.45,1.2-2.32
			c0.28-1.1-0.28-2.15-0.85-3.05c-0.14-0.23-0.51-0.25-0.65,0c-0.11,0.2-0.17,0.38-0.23,0.6c-0.04,0.16-0.09,0.92-0.47,0.51
			c-0.13-0.14,0.1-0.83,0.14-1c0.09-0.34,0.2-0.67,0.37-0.98c0.19-0.35,0.41-0.67,0.35-1.09c-0.08-0.54-0.56-1.02-0.85-1.45
			c-0.17-0.24-0.62-0.25-0.69,0.09c-0.06,0.3-0.17,0.65-0.47,0.8c-0.38,0.19-0.85-0.04-0.75-0.49c0.08-0.37,0.38-0.68,0.52-1.02
			c0.35-0.83-0.05-1.53-0.63-2.14c-0.17-0.18-0.46-0.12-0.59,0.08c-0.22,0.35-0.54,0.78-0.95,0.35c-0.33-0.35-0.21-0.88-0.11-1.3
			c0.08-0.33-0.38-0.68-0.63-0.36c-0.35,0.45-0.44,0.98-0.72,1.46c-0.18,0.3-0.43,0.59-0.76,0.71c-0.48,0.17-1.01-0.08-0.99-0.62
			c0.02-0.33-0.42-0.49-0.64-0.27c-0.89,0.9-0.79,2.19-0.24,3.24c0.35,0.67,0.86,1.23,1.29,1.84c0.2,0.29,0.38,0.59,0.54,0.9
			c0.1,0.18,0.23,0.4,0.22,0.62c-0.01,0.4-0.71,0.97-0.87,0.29c-0.07-0.3-0.42-0.33-0.63-0.17c-1.93,1.55,0.21,4.19,1.62,5.19
			C244,144.99,244.38,144.34,243.99,144.06L243.99,144.06z"/>
	</g>
</g>
</svg>
