<?xml version="1.0" encoding="utf-8"?>
<!-- Generator: Adobe Illustrator 24.0.1, SVG Export Plug-In . SVG Version: 6.00 Build 0)  -->
<svg version="1.1" id="Layer_1" xmlns="http://www.w3.org/2000/svg" xmlns:xlink="http://www.w3.org/1999/xlink" x="0px" y="0px"
	 viewBox="0 0 280 270" style="enable-background:new 0 0 280 270;" xml:space="preserve">
<style type="text/css">
	.st0{fill:#E9B785;}
	.st1{fill:#71522D;}
	.st2{fill:#C0AA82;}
	.st3{fill:#070707;}
	.st4{fill:#56B047;}
	.st5{fill:#044955;}
	.st6{fill:#9E4B24;}
	.st7{fill:#231F20;}
	.st8{fill:#8C722C;stroke:#040404;stroke-width:2;stroke-miterlimit:10;}
	.st9{fill:#4B7182;}
	.st10{fill:#928572;stroke:#040404;stroke-width:0.75;stroke-miterlimit:10;}
	.st11{fill:#B7762A;}
	.st12{fill:none;stroke:#010101;stroke-miterlimit:10;}
	.st13{fill:none;stroke:#010101;stroke-width:1.0006;stroke-linecap:round;stroke-miterlimit:10;}
	.st14{fill:none;stroke:#010101;stroke-width:1.0006;stroke-linecap:round;stroke-linejoin:round;stroke-miterlimit:10;}
	.st15{fill:#2A251D;}
	.st16{fill:#78C144;stroke:#046937;stroke-miterlimit:10;}
	.st17{fill:#5F4739;}
	.st18{fill:#DE2D27;}
	.st19{fill:#38469B;}
	.st20{fill:#D4DE2A;}
	.st21{fill:#CD962D;}
	.st22{fill:#ED2224;}
	.st23{fill:#3A53A4;}
	.st24{fill:#F6EB16;}
	.st25{fill:#926D29;}
	.st26{fill:#6A0E39;}
	.st27{fill:#94705E;}
	.st28{fill:#010101;}
	.st29{fill:#949494;stroke:#000000;stroke-miterlimit:10;}
	.st30{fill:#4C4C4C;}
	.st31{fill:#606060;}
	.st32{fill:#4A4A4A;}
	.st33{fill:#C7C7C7;}
	.st34{fill:#9B9B9B;}
	.st35{fill:none;stroke:#000000;stroke-width:1.0006;stroke-linecap:round;stroke-miterlimit:10;}
	.st36{fill:#6E6E6E;}
	.st37{fill:#2E2E2E;}
	.st38{fill:#787878;}
	.st39{fill:none;}
</style>
<path class="st0" d="M80.99,104.43H66.36c-1.96,0-3.56-1.6-3.56-3.56V82.69c0-1.96,1.6-3.56,3.56-3.56h14.63
	c1.96,0,3.56,1.6,3.56,3.56v18.18C84.55,102.83,82.95,104.43,80.99,104.43z"/>
<path class="st0" d="M97.68,46.34v32.39c0,10.83-10.3,19.6-23,19.6h-4c-12.71,0-23-8.78-23-19.6V46.34c0-8.95,8.5-16.2,19-16.2h12
	C89.17,30.14,97.68,37.39,97.68,46.34z"/>
<path class="st1" d="M67.35,57.15h-9c-1.1,0-2-0.9-2-2v-0.67c0-1.1,0.9-2,2-2h9c1.1,0,2,0.9,2,2v0.67
	C69.35,56.25,68.45,57.15,67.35,57.15z"/>
<path class="st1" d="M87.85,57.15h-9c-1.1,0-2-0.9-2-2v-0.67c0-1.1,0.9-2,2-2h9c1.1,0,2,0.9,2,2v0.67
	C89.85,56.25,88.95,57.15,87.85,57.15z"/>
<path class="st2" d="M47.68,66.05h-3.15c-1.1,0-2-0.9-2-2v-4.63c0-1.1,0.9-2,2-2h3.15V66.05z"/>
<path class="st2" d="M100.83,66.05h-3.15v-8.63h3.15c1.1,0,2,0.9,2,2v4.63C102.83,65.16,101.93,66.05,100.83,66.05z"/>
<circle class="st3" cx="62.85" cy="60.41" r="2.06"/>
<circle class="st3" cx="83.99" cy="60.41" r="2.06"/>
<path class="st2" d="M74.18,74.59h-1.15c-1.1,0-2-0.9-2-2v-4.84c0-1.1,0.9-2,2-2h1.15c1.1,0,2,0.9,2,2v4.84
	C76.18,73.69,75.28,74.59,74.18,74.59z"/>
<path class="st4" d="M95.33,170H52.02c-3.49,0-6.35-2.86-6.35-6.35v-55.66c0-3.49,2.86-6.35,6.35-6.35h43.31
	c3.49,0,6.35,2.86,6.35,6.35v55.66C101.68,167.14,98.82,170,95.33,170z"/>
<path class="st5" d="M92.43,237.66H76.66v-68.73c0-3.3,2.7-6,6-6h3.77c3.3,0,6,2.7,6,6V237.66z"/>
<rect x="76.66" y="224.44" class="st6" width="15.77" height="14.95"/>
<path class="st5" d="M53.52,238.81h15.77v-69.88c0-3.3-2.7-6-6-6h-3.77c-3.3,0-6,2.7-6,6V238.81z"/>
<rect x="53.52" y="225.53" transform="matrix(-1 -3.299106e-11 3.299106e-11 -1 122.8118 465.0732)" class="st6" width="15.77" height="14.02"/>
<rect x="44.53" y="162.23" class="st7" width="56" height="7.77"/>
<polygon class="st0" points="73.34,108.61 62.8,101.3 84.55,101.3 "/>
<path class="st5" d="M59.49,118.1h-6.15v-15.17c0-1.1,0.9-2,2-2h2.15c1.1,0,2,0.9,2,2V118.1z"/>
<path class="st5" d="M93.43,118.1h-5.88v-15.17c0-1.1,0.9-2,2-2h1.88c1.1,0,2,0.9,2,2V118.1z"/>
<path class="st5" d="M101.68,162.93H45.66V122.1c0-2.2,1.9-1.21,4.1-1.21l3.58-2.79h6.15l2.42,2.79h10.96h7.93l6.75-2.79h5.88
	l4.25,2.79c2.2,0,4-0.99,4,1.21V162.93z"/>
<path class="st0" d="M109.16,169.29h-1.47c-3.49,0-6.35-2.86-6.35-6.35v-13.67c0-3.49,2.86-6.35,6.35-6.35h1.47
	c3.49,0,6.35,2.86,6.35,6.35v13.67C115.51,166.44,112.66,169.29,109.16,169.29z"/>
<path class="st0" d="M39.31,170.29h-1.04c-3.49,0-6.35-2.86-6.35-6.35v-17.99c0-3.49,2.86-6.35,6.35-6.35h1.04
	c3.49,0,6.35,2.86,6.35,6.35v17.99C45.66,167.44,42.8,170.29,39.31,170.29z"/>
<path class="st8" d="M74.17,170.78h-1.85c-2.06,0-3.74-1.68-3.74-3.74v-1.85c0-2.06,1.68-3.74,3.74-3.74h1.85
	c2.06,0,3.74,1.68,3.74,3.74v1.85C77.92,169.09,76.23,170.78,74.17,170.78z"/>
<path class="st4" d="M45.87,104.83l-3.24-0.43c-3.7-0.49-7.67,6.24-8.82,14.96l-3.32,25.23l16.71,2.2l3.32-25.23
	C51.67,112.85,49.57,105.32,45.87,104.83z"/>
<path class="st4" d="M104.83,106.23l-3.04,0.4c-3.46,0.46-5.42,7.48-4.35,15.62l3.1,23.54l15.63-2.06l-3.1-23.54
	C112.01,112.06,108.3,105.77,104.83,106.23z"/>
<path class="st9" d="M54.85,229.66h13.1c1.66,0,3-1.34,3-3v-1.29c0-1.66-1.34-3-3-3h-13.1c-1.66,0-3,1.34-3,3v1.29
	C51.85,228.31,53.2,229.66,54.85,229.66z"/>
<path class="st9" d="M91.1,229.66h-13.1c-1.66,0-3-1.34-3-3v-1.29c0-1.66,1.34-3,3-3h13.1c1.66,0,3,1.34,3,3v1.29
	C94.1,228.31,92.76,229.66,91.1,229.66z"/>
<circle class="st10" cx="56.42" cy="122.72" r="2.88"/>
<circle class="st10" cx="90.49" cy="122.72" r="2.88"/>
<g>
	<g>
		<path class="st11" d="M60.7,30.87c1.28,0.75,2.7,1.39,4.19,0.94c1.34-0.41,2.34-1.67,2.23-3.09c-0.1-1.33-2.11-2.23-2.8-0.76
			c-0.79,1.7-0.2,3.96,1.77,4.54c2.05,0.6,3.94-1.1,3.97-3.13c0.02-1.21-1.27-1.78-2.26-1.3c-2.51,1.22-2.08,4.91,0.29,5.99
			c3.14,1.44,5.74-1.35,6.65-4.09c0.41-1.25-1.12-2.36-2.2-1.69c-2.11,1.29-1.9,4.39,0.22,5.57c2.58,1.44,5.12-0.53,6.77-2.39
			c0.66-0.75,0.54-1.8-0.3-2.36c-1.39-0.91-3.2-0.03-3.7,1.47c-0.61,1.81,0.81,3.2,2.12,4.18c0.49,0.37,1.42,0.22,1.82-0.23
			c1-1.16,1.69-2.44,2.02-3.95c0.27-1.26-1.02-2.36-2.2-1.69c-1.67,0.95-1.76,3.23-0.45,4.54c1.56,1.56,4.55,1.96,6.62,2.31
			c2.44,0.42,4.93,0.58,7.4,0.42c1.97-0.13,4.45-0.68,4-3.21c-0.19-1.04-1.41-1.26-2.2-0.9c-2.13,0.98-3.65,2.85-4.31,5.09
			c-0.34,1.17,1.12,2.48,2.2,1.69c1.37-0.99,2.22-2.48,2-4.21c-0.21-1.64-2.36-2.09-2.95-0.4c-0.72,2.07-0.8,4.19-0.36,6.33
			c0.25,1.22,1.7,1.3,2.51,0.66c0.85-0.66,1.39-1.55,1.7-2.57c-0.96-0.27-1.93-0.53-2.89-0.8c-0.45,1.68-0.77,3.67,0.49,5.1
			c1.05,1.19,2.57,1.52,3.99,0.82c-0.68-0.68-1.37-1.37-2.05-2.05c-1,1.89-2,3.78-3,5.67c-0.25,0.46-0.3,1.05,0,1.51
			c0.84,1.31,2.08,1.77,3.59,1.56c-0.62-0.62-1.23-1.23-1.85-1.85c-0.18,0.76-0.36,1.51-0.53,2.27c-0.38,1.62,1.87,2.67,2.74,1.16
			c0.19-0.33,0.38-0.66,0.57-0.99c-0.79,0.1-1.57,0.2-2.36,0.3c1.42,1.35,3.49,0.8,4.44-0.81c0.49-0.83,0.73-1.83,1.04-2.73
			c0.41-1.21,0.83-2.41,1.24-3.62c0.55-1.6-1.96-2.67-2.74-1.16c-0.29,0.57-0.59,1.14-0.88,1.71c0.86,0.5,1.73,1.01,2.59,1.51
			c0.93-1.97,1.41-4.01,1.39-6.2c-0.01-0.9-0.96-1.8-1.9-1.45c-1.25,0.47-2.11,1.3-2.48,2.6c-0.47,1.62,1.91,2.65,2.74,1.16
			c0.52-0.94,0.78-1.93,0.67-3c-0.11-1.12-1.19-1.89-2.26-1.3c-1.26,0.7-1.8,2.06-1.44,3.44c0.36,1.36,2.62,1.5,2.89,0
			c0.3-1.66,0.52-4.34-0.59-5.78c-1.14-1.48-3.2-0.49-3.71,0.97c0.98,0.13,1.96,0.27,2.95,0.4c0.08-0.94,0.16-1.88,0.23-2.82
			c0.09-1.08-1.02-1.57-1.9-1.45c0.69,0.48,0.97,0.5,0.85,0.07c-0.01-0.19,0-0.38,0.04-0.56c0.13-1.1-1.38-1.91-2.26-1.3
			c0.2,0.08,0.4,0.16,0.6,0.24c-0.09-0.51-0.58-0.91-1.05-1.05c-1.78-0.53-3.61-0.51-5.37,0.07c-1.82,0.61-1.09,3.35,0.8,2.89
			c2.44-0.59,3.24-4.17,1.1-5.62c-2.35-1.59-5.54,1.08-4.62,3.68c0.4,1.13,1.6,1.39,2.51,0.66c0.92-0.74,1.13-1.81,0.92-2.91
			c-0.09-0.48-0.58-0.95-1.05-1.05c-2.22-0.45-4.03,0.97-4.3,3.18c-0.21,1.67,2.02,1.76,2.8,0.76c0.95-1.24,0.11-3.18-1.42-3.38
			c-1.54-0.21-2.86,1.45-2.26,2.9c0.52,1.26,2.5,1.58,2.89,0c0.34-1.39,0.18-2.67-0.51-3.93c-0.33-0.61-1.05-0.82-1.69-0.69
			c-0.78,0.16-1.42,0.64-1.75,1.38c-0.66,1.48,1.05,3.08,2.36,1.82c0.73-0.71,0.93-1.77,0.49-2.69c-0.51-1.05-1.61-1.36-2.71-1.3
			c-2.29,0.11-4.19,1.66-4.91,3.8c-0.55,1.65,1.87,2.57,2.74,1.16c0.5-0.82,0.73-1.66,0.68-2.62c-0.03-0.68-0.44-1.25-1.1-1.45
			c-2.35-0.71-4.82,0.29-6.08,2.38c-1.01,1.68,1.49,3.06,2.59,1.51c1.61-2.26-0.23-5.31-2.77-5.66c-3.23-0.44-5.28,2.3-6.66,4.78
			c0.79-0.1,1.57-0.2,2.36-0.3c-1.58-1.6-4.02-1.91-5.95-0.75c0.68,0.68,1.37,1.37,2.05,2.05c1.05-2.19,0.12-5.11-2.36-5.84
			c-2.62-0.77-5.34,1.62-5.07,4.3c0.16,1.55,2.59,2.19,2.95,0.4c0.1-0.52,0.2-1.03,0.31-1.55c0.23-1.17-1.04-2.49-2.2-1.69
			c-1.41,0.97-2.18,2.3-2.27,4.02c0.25-0.43,0.5-0.86,0.74-1.3c-1.13,0.58-1.69,1.62-1.76,2.86c0.25-0.43,0.5-0.86,0.74-1.3
			c-1.41,0.85-2.4,2.18-2.7,3.81c-0.24,1.31,1.46,2.74,2.51,1.46c1.27-1.55,1.09-3.97-0.8-4.98c-2.11-1.14-4.52,0.76-4.51,2.97
			c0,1,0.95,1.67,1.9,1.45c1.39-0.33,2.21-1.75,1.75-3.11c-0.27-0.81-1.01-1.21-1.85-1.05c-2,0.4-3.53,1.91-4.09,3.85
			c-0.4,1.41,1.48,2.57,2.51,1.46c1.19-1.29,1.14-2.9,0.08-4.24c-0.49-0.62-1.62-0.54-2.12,0c-0.96,1.04-1.32,2.36-0.87,3.72
			c0.25,0.75,1.04,1.3,1.85,1.05c1.96-0.61,3.1-2.13,3.35-4.13c0.14-1.11-1.39-1.89-2.26-1.3c-1.46,1-2.29,2.45-2.29,4.24
			c0,1.14,1.28,1.87,2.26,1.3c1.29-0.75,1.86-2.15,1.45-3.59c-0.31-1.07-1.71-1.48-2.51-0.66c-2.42,2.47-4.17,5.46-5.15,8.77
			c-0.32,1.08,0.76,2.17,1.85,1.85c1.67-0.5,2.56-1.74,2.79-3.43c0.17-1.26-1.78-2.02-2.56-1.06c-0.88,1.08-1.18,2.17-0.91,3.54
			c0.15,0.76,1.12,1.3,1.85,1.05c1.83-0.63,3.23-2.06,3.56-4c0.23-1.32-1.44-2.72-2.51-1.46c-0.88,1.04-1.14,2.07-0.95,3.42
			c0.15,1.13,1.81,1.41,2.51,0.66c1.33-1.43,2.25-3.08,2.73-4.97c0.38-1.53-1.39-2.39-2.51-1.46c-0.98,0.82-1.31,2.11-0.95,3.33
			c0.33,1.15,1.66,1.38,2.51,0.66c0.87-0.73,1.65-1.54,2.35-2.44c0.7-0.89,1.53-1.65,2.2-2.57c1.31-1.77,1.99-3.84,2.19-6.02
			c0.1-1.08-1.37-1.94-2.26-1.3c-1.52,1.11-2.55,2.46-3.15,4.25c-0.25,0.75,0.29,1.66,1.05,1.85c3.25,0.8,6.71-1.2,7.49-4.5
			c0.38-1.59-1.94-2.73-2.74-1.16c-0.75,1.46-0.94,2.94-0.61,4.55c0.17,0.81,1.1,1.23,1.85,1.05c2.27-0.56,4.09-2.44,4.43-4.77
			c0.14-0.93-0.37-1.92-1.45-1.9c-4.02,0.08-6.62,4.96-3.7,8.06c3.21,3.4,7.76,0.79,9.36-2.82c0.83-1.88,0.65-4.12-0.98-5.51
			c-1.39-1.18-3.43-1.12-4.68,0.23c-1.1,1.19-1.34,3.08-0.75,4.55c0.73,1.82,2.63,2.83,4.48,3.16c4.17,0.74,9.43-0.25,12.16-3.74
			c0.73-0.94,0.37-2.62-1.06-2.56c-2.1,0.09-4.08,0.82-5.65,2.24c-1.44,1.3-1.86,3.34-0.29,4.73c1.51,1.33,4.15,1.68,6.07,1.81
			c1.97,0.13,4.03-0.4,5.47-1.8c1.22-1.18,1.94-3.17,1.04-4.75c-1.04-1.82-3.27-1.44-4.83-0.58c-2.69,1.49-5.69,7.42-1.33,8.84
			c1.96,0.64,4.39-0.09,6.22-0.84c2.16-0.89,4.09-2.22,5.66-3.96c1.05-1.16,0-2.76-1.46-2.51c-3.38,0.6-3.27,6.32,0.28,6.52
			c1.72,0.09,3.18-1.25,3.55-2.88c0.41-1.81-0.96-3.93-2.98-3.54c-1.8,0.35-2.87,2.32-2.89,4.03c-0.02,1.87,1.01,3.56,2.66,4.44
			c3.2,1.7,9.28-0.04,8.23-4.52c-0.24-1.02-1.37-1.29-2.2-0.9c-1.68,0.78-2.88,2.36-3.17,4.19c-0.12,0.74,0.1,1.25,0.69,1.69
			c1.83,1.38,4.2,0.11,5.43-1.45c1.5-1.9,2.29-4.36,2.4-6.76c0.1-2.12-0.44-4.65-3.11-4.34c-2.34,0.27-4.57,1.67-6.12,3.39
			c0.84,0.49,1.67,0.97,2.51,1.46c0.76-2.84,0.07-5.66-1.77-7.92c-0.59-0.73-1.95-0.5-2.36,0.3c-0.29,0.57-0.58,1.15-0.87,1.72
			c-0.14,0.28-0.31,0.57-0.44,0.86c-0.28,0.66,0.03-0.08,0.1-0.01c-0.58-0.54-2.21-0.31-2.87-0.13c-1.8,0.49-3.32,2.03-3.59,3.9
			c0.98,0.13,1.96,0.27,2.95,0.4c0.12-2.26-1.55-4.4-3.83-4.69c-2.26-0.28-4.44,1.39-4.85,3.61c0.98,0.13,1.96,0.27,2.95,0.4
			c0.21-2.23-0.19-5.34-2.7-6.12c-3-0.94-6.21,2.16-7.78,4.37c0.91,0.39,1.83,0.77,2.74,1.16c0.55-2.44-1.17-4.68-3.54-5.24
			c-2.76-0.65-5.22,1.14-7.17,2.87c0.71,0,1.41,0,2.12,0c-2.34-2.67-6.83-2.13-8.66,0.82c0.68-0.18,1.37-0.36,2.05-0.54
			c-3.21-2.1-6.13,0.88-7.7,3.47c0.93,0.25,1.86,0.5,2.8,0.76c0.04-0.92,0.07-1.84,0.11-2.76c0.03-0.76-0.71-1.56-1.5-1.5
			c-0.05,0-0.1,0.01-0.15,0.01c-0.49,0.04-1.08,0.25-1.3,0.74c-0.69,1.55,0.62,3.5,2.38,2.52c1.62-0.9,1.2-3.38,0.74-4.82
			c-0.34-1.05-1.69-1.5-2.51-0.66c-1.65,1.7-0.95,4.34,0.89,5.6c2.47,1.7,5.37-0.02,7.39-1.58c-0.71,0-1.41,0-2.12,0
			c2.1,2.52,5.12,3.95,8.37,4.16c1.93,0.12,1.92-2.88,0-3c-2.5-0.16-4.67-1.38-6.25-3.28c-0.56-0.68-1.53-0.46-2.12,0
			c-0.78,0.61-2.27,1.77-3.37,1.35c-0.4-0.16-0.95-0.83-0.67-1.12c-0.84-0.22-1.67-0.44-2.51-0.66c0.13,0.39,0.23,0.76,0.28,1.17
			c0,0.13,0.01,0.27,0.01,0.4c-0.05,0.39,0.03,0.36,0.24-0.09c0.39-0.05,0.77-0.1,1.16-0.15c-0.06-0.02-0.11-0.03-0.17-0.05
			c0.3,0.23,0.6,0.46,0.9,0.69c-0.02,0.35-0.04,0.69-0.06,1.04c-0.43,0.25-0.86,0.5-1.3,0.74c0.05,0,0.1-0.01,0.15-0.01
			c-0.5-0.5-1-1-1.5-1.5c-0.04,0.92-0.07,1.84-0.11,2.76c-0.06,1.53,2.05,1.99,2.8,0.76c0.68-1.12,2-3.44,3.6-2.39
			c0.69,0.45,1.64,0.12,2.05-0.54c0.87-1.39,2.92-1.39,3.95-0.21c0.56,0.64,1.55,0.51,2.12,0c1.02-0.9,2.21-1.95,3.62-2.11
			c0.83-0.09,2.31,0.5,2.07,1.56c-0.39,1.71,1.77,2.53,2.74,1.16c0.55-0.78,1.24-1.49,2.02-2.04c0.49-0.34,1.72-1.28,2.3-0.97
			c0.88,0.47,0.64,2.47,0.56,3.24c-0.16,1.67,2.64,2.06,2.95,0.4c0.37-1.98,2.89-1.76,2.79,0.28c-0.09,1.66,2.7,2.09,2.95,0.4
			c0.12-0.82,0.53-1.47,1.34-1.76c0.77-0.27,1.39,0.17,2.16,0.24c2.3,0.22,3.03-2.44,3.87-4.1c-0.79,0.1-1.57,0.2-2.36,0.3
			c1.15,1.41,1.47,3.26,1,5c-0.37,1.4,1.48,2.6,2.51,1.46c0.84-0.92,1.81-1.68,2.97-2.14c0.3-0.12,0.63-0.17,0.92-0.3
			c0.37-0.16,0.36,0.05,0.18-0.24c0.23,0.36,0.06,1.51,0.02,1.93c-0.11,1.22-0.49,2.43-1.08,3.5c-0.35,0.63-1.35,2.36-2.21,1.71
			c0.23,0.56,0.46,1.13,0.69,1.69c0.18-1.15,0.74-1.91,1.79-2.4c-0.73-0.3-1.47-0.6-2.2-0.9c0.39,1.65-5.33,2.3-5-0.82
			c0.02-0.22,0.11-0.4,0.17-0.6c0.05-0.1,0.11-0.19,0.2-0.26c0.22-0.17,0.08-0.28-0.44-0.32c-0.05,0.02-0.13,0.59-0.35,0.68
			c-0.02,0.01,0.04,0.11,0.05,0.12c-0.1-0.05-0.1-0.26-0.09-0.35c0.01-0.43,0.12-0.36,0.3-0.39c-0.49-0.84-0.97-1.67-1.46-2.51
			c-1.81,1.99-4.1,3.37-6.73,3.94c-0.49,0.11-1.22,0.31-1.72,0.2c-0.54-0.12-0.53-0.2-0.43-0.79c0.2-1.18,1.04-2.25,2.11-2.76
			c0.11-0.05,0.78-0.23,0.6-0.32c-0.1-0.05,0.02-0.16-0.05,0.15c-0.12,0.5-0.52,0.89-0.92,1.17c-1.16,0.8-2.7,0.72-4.02,0.48
			c-0.73-0.13-1.48-0.3-2.19-0.52c-0.23-0.07-0.59-0.17-0.78-0.34c-0.23-0.21-0.14,0.1,0.06-0.14c0.92-1.07,2.45-1.58,3.81-1.64
			c-0.35-0.85-0.71-1.71-1.06-2.56c-1.66,2.12-4.24,2.92-6.85,3.04c-1.27,0.06-6.16-0.14-4.84-2.64c0.55-1.04,1.19,0.65,1.04,1.29
			c-0.26,1.16-1.46,2.76-2.64,3.12c-0.97,0.29-2.21-0.39-2.43-1.4c-0.25-1.16,0.87-2.19,1.95-2.22c-0.48-0.63-0.96-1.27-1.45-1.9
			c-0.2,1.36-0.98,2.34-2.33,2.68c0.62,0.35,1.23,0.7,1.85,1.05c-0.17-0.79-0.06-1.52,0.3-2.24c-0.91-0.39-1.83-0.77-2.74-1.16
			c-0.4,1.68-2.09,2.82-3.8,2.4c0.35,0.62,0.7,1.23,1.05,1.85c0.33-0.99,0.92-1.84,1.77-2.46c-0.75-0.43-1.5-0.86-2.26-1.3
			c-0.16,1.76-0.87,3.48-2.04,4.81c-1.22,1.39-2.39,2.89-3.82,4.09c0.84,0.22,1.67,0.44,2.51,0.66c-0.08-0.29-0.09-0.18,0.18-0.41
			c-0.84-0.49-1.67-0.97-2.51-1.46c-0.35,1.39-0.97,2.59-1.95,3.65c0.84,0.22,1.67,0.44,2.51,0.66c-0.01-0.19,0.05-0.36,0.18-0.5
			c-0.84-0.49-1.67-0.97-2.51-1.46c-0.15,0.89-0.57,1.6-1.47,1.9c0.62,0.35,1.23,0.7,1.85,1.05c-0.06-0.23-0.02-0.44,0.14-0.62
			c-0.85-0.35-1.71-0.71-2.56-1.06c-0.04,0.3-0.34,0.46-0.58,0.54c0.62,0.62,1.23,1.23,1.85,1.85c0.84-2.83,2.32-5.34,4.38-7.45
			c-0.84-0.22-1.67-0.44-2.51-0.66c0.09,0.12,0.06,0.18-0.07,0.2c0.75,0.43,1.5,0.86,2.26,1.3c0-0.68,0.23-1.25,0.81-1.65
			c-0.75-0.43-1.5-0.86-2.26-1.3c-0.08,0.62-0.59,1.06-1.15,1.24c0.62,0.35,1.23,0.7,1.85,1.05c-0.12-0.36-0.17-0.51,0.1-0.8
			c-0.71,0-1.41,0-2.12,0c-0.03,0.02-0.05,0.02-0.08,0c0.84,0.49,1.67,0.97,2.51,1.46c0.28-1,0.99-1.56,1.99-1.76
			c-0.62-0.35-1.23-0.7-1.85-1.05c0.11-0.19,0.23-0.39,0.34-0.58c0.63,0.48,1.27,0.96,1.9,1.45c0-0.54,0.28-0.23,0.19-0.11
			c0.84,0.49,1.67,0.97,2.51,1.46c0.12-0.67,0.34-1.26,0.88-1.72c0.23-0.2,0.54-0.32,0.75-0.54c0.36-0.39,0.21-0.65,0.44-1.06
			c0.24-0.42,0.78-0.59,0.96-1.16c0.23-0.75,0.09-1.31,0.84-1.82c-0.73-0.56-1.47-1.13-2.2-1.69c-0.1,0.52-0.2,1.03-0.31,1.55
			c0.98,0.13,1.96,0.27,2.95,0.4c-0.21-2.1,2.54-1.44,1.84,0.03c-0.62,1.29,0.68,2.87,2.05,2.05c0.79-0.47,1.66-0.37,2.31,0.29
			c0.67,0.68,1.89,0.54,2.36-0.3c0.64-1.14,1.32-2.55,2.57-3.12c0.72-0.33,2.46-0.11,1.69,0.97c0.86,0.5,1.73,1.01,2.59,1.51
			c0.58-0.97,1.62-1.32,2.69-1c-0.37-0.48-0.73-0.96-1.1-1.45c0.02,0.48-0.02,0.69-0.27,1.1c0.91,0.39,1.83,0.77,2.74,1.16
			c0.18-0.55,0.54-0.97,1.04-1.26c0.23-0.13,0.46-0.24,0.72-0.29c0.09-0.02,0.17-0.03,0.26-0.05c0.63,0.1,0.66-0.28,0.09-1.13
			c0.79,0.61,1.57,1.21,2.36,1.82c-0.01,0-0.03,0-0.04,0c-0.56-0.23-1.13-0.46-1.69-0.69c0.3,0.55,0.36,1.01,0.21,1.62
			c0.96,0,1.93,0,2.89,0c-0.6-0.08-1.2-0.16-1.8-0.23c0.93,0.25,1.86,0.5,2.8,0.76c0.02-0.19,0.35-0.31,0.5-0.28
			c-0.35-0.35-0.7-0.7-1.05-1.05c-0.05,0-0.1,0-0.15-0.01c0.84,0.22,1.67,0.44,2.51,0.66c-0.06-0.16,0.28-0.6-0.03-0.47
			c-0.11,0.05-0.01,0.28-0.15,0.32c0.27,0.96,0.53,1.93,0.8,2.89c1.28-0.43,2.48-0.46,3.77-0.07c-0.35-0.35-0.7-0.7-1.05-1.05
			c0.31,1.68,2.41,2.54,3.81,1.55c-0.75-0.43-1.5-0.86-2.26-1.3c-0.23,1.91,0.86,3.69,2.91,3.39c-0.63-0.48-1.27-0.96-1.9-1.45
			c-0.08,0.94-0.16,1.88-0.23,2.82c-0.15,1.77,2.42,1.91,2.95,0.4c-0.37,0.14-0.75,0.29-1.12,0.43c-0.23-0.3-0.46-0.6-0.69-0.9
			c0.4,1.21,0.55,2.41,0.32,3.68c0.96,0,1.93,0,2.89,0c-0.1,0.01-0.08-0.01,0.06-0.05c-0.75-0.43-1.5-0.86-2.26-1.3
			c0.06,0.58,0.02,0.98-0.26,1.49c0.91,0.39,1.83,0.77,2.74,1.16c0.07-0.23,0.15-0.42,0.39-0.51c-0.63-0.48-1.27-0.96-1.9-1.45
			c0.02,1.63-0.28,3.2-0.98,4.68c-0.81,1.72,1.7,3.25,2.59,1.51c0.29-0.57,0.59-1.14,0.88-1.71c-0.91-0.39-1.83-0.77-2.74-1.16
			c-0.39,1.13-0.77,2.26-1.16,3.39c-0.18,0.53-0.34,1.06-0.54,1.58c-0.07,0.23-0.16,0.45-0.28,0.66c-0.07,0.17,0.02,0.24,0.27,0.21
			c-0.69-0.66-1.86-0.55-2.36,0.3c-0.19,0.33-0.38,0.66-0.57,0.99c0.91,0.39,1.83,0.77,2.74,1.16c0.18-0.76,0.36-1.51,0.53-2.27
			c0.29-1.21-0.72-2-1.85-1.85c-0.09-0.03-0.16-0.09-0.2-0.18c0,0.5,0,1.01,0,1.51c1-1.89,2-3.78,3-5.67
			c0.72-1.36-0.71-2.72-2.05-2.05c-0.61,0.3-0.12-2.37-0.08-2.53c0.5-1.87-2.32-2.64-2.89-0.8c-0.17,0.56-0.48,0.89-0.93,1.25
			c0.84,0.22,1.67,0.44,2.51,0.66c-0.34-1.62-0.18-3.17,0.36-4.73c-0.98-0.13-1.96-0.27-2.95-0.4c0.08,0.61,0.03,1.22-0.51,1.62
			c0.73,0.56,1.47,1.13,2.2,1.69c0.45-1.55,1.48-2.63,2.93-3.3c-0.73-0.3-1.47-0.6-2.2-0.9c0.08-0.26,0.16-0.52,0.24-0.78
			c-0.09,0.03-0.17,0.06-0.26,0.09c-0.22-0.05-0.62,0.07-0.85,0.09c-0.62,0.05-1.25,0.07-1.87,0.08c-1.34,0.01-2.68-0.06-4.01-0.23
			c-1.25-0.16-2.49-0.42-3.71-0.75c-0.59-0.16-1.18-0.31-1.75-0.53c-0.23-0.09-0.43-0.21-0.66-0.31c-0.38-0.18,0.04-0.12-0.3,0.07
			c-0.73-0.56-1.47-1.13-2.2-1.69c-0.22,1-0.58,1.84-1.25,2.62c0.61-0.08,1.21-0.16,1.82-0.23c-0.22-0.17-0.43-0.49-0.65-0.61
			c-0.36-0.2-0.1,0.59-0.79,0.14c-0.1-0.79-0.2-1.57-0.3-2.36c-0.62,0.7-1.31,1.61-2.24,1.89c-0.34,0.1-1.49-0.13-1.11-0.36
			c-0.73-0.56-1.47-1.13-2.2-1.69c-0.3,0.91-0.89,2.22-2.02,2.24c-0.47,0.01-1.15-0.44-0.51-0.75c-0.75-0.43-1.5-0.86-2.26-1.3
			c0,0.34-0.25,0.32-0.15,0.11c-0.93-0.25-1.86-0.5-2.8-0.76c0.06,0.72-1.7-0.32-1.91-0.44C60.54,27.31,59.03,29.9,60.7,30.87
			L60.7,30.87z"/>
	</g>
</g>
<g>
	<g>
		<path class="st11" d="M83.27,32.25c2.55,2.16,5.47,3.73,8.71,4.57c-0.3-0.23-0.6-0.46-0.9-0.69c-0.11-0.26-0.37,1.14-0.36,1.4
			c0.01,0.61,0.24,1.23,0.64,1.69c0.85,0.96,2.22,0.84,3.06-0.06c1.08-1.15,1.92-2.64,2.85-3.92c1.02-1.43,2.05-2.85,3.07-4.28
			c-0.93-0.25-1.86-0.5-2.8-0.76c-0.09,2.03-1.03,3.73-2.59,5.01c0.79,0.1,1.57,0.2,2.36,0.3c-0.76-1.3,0-3.1-0.16-4.53
			c-0.16-1.39-0.75-2.76-2.05-3.43c-3.04-1.57-5.24,1.84-6.02,4.3c0.84-0.22,1.67-0.44,2.51-0.66c-1.73-1.39-3.65-2.38-5.83-2.85
			c0.35,0.62,0.7,1.23,1.05,1.85c0.59-1.54-0.52-3.19-2.03-3.62c-1.7-0.49-3.19,0.58-4.39,1.66c-1.3,1.17,0.36,3.15,1.82,2.36
			c1.79-0.97,2.21-3.64,0.58-4.98c-1.71-1.4-4.05-0.37-4.79,1.51c-0.46,1.16,1.19,2.47,2.2,1.69c1.11-0.85,1.72-1.86,1.76-3.29
			c0.03-1.04-0.97-1.62-1.9-1.45c-1.48,0.27-2.36,1.52-2.44,2.96c0.75-0.43,1.5-0.86,2.26-1.3c-2.85-1.76-6.73,0.47-6.78,3.77
			c0.93-0.25,1.86-0.5,2.8-0.76c-2.14-3.12-6.99-2.48-8.36,0.99c-0.63,1.61,1.91,2.59,2.74,1.16c1.04-1.79,0.59-4.27-1.26-5.37
			c-1.86-1.1-4.23-0.28-5.31,1.49c0.79-0.1,1.57-0.2,2.36-0.3c-1.44-1.19-3.27-1.45-4.91-0.46c0.73,0.3,1.47,0.6,2.2,0.9
			c-0.68-1.98-2.74-2.51-4.59-1.8c-0.94,0.37-1.61,0.99-2.19,1.8c-0.6,0.85-1,2.06-1.85,2.71c0.73,0.56,1.47,1.13,2.2,1.69
			c0.1-0.74,0.2-1.48,0.31-2.22c0.14-1.02-0.38-1.8-1.45-1.9c-0.95-0.09-1.75,0.27-2.43,0.91c0.79,0.61,1.57,1.21,2.36,1.82
			c0.89-1.22,1.1-2.8,0.57-4.21c-0.42-1.12-1.59-1.4-2.51-0.66c-1.1,0.89-1.81,1.99-2.34,3.29c-0.18,0.46,0.02,1.14,0.39,1.46
			c1.71,1.49,3.92,1.56,5.96,0.72c2.17-0.89,3.62-2.91,5.77-3.81c-0.56-0.23-1.13-0.46-1.69-0.69c0.82,1.33,2.28,1.92,3.82,1.68
			c1.69-0.26,2.87-1.51,3.88-2.79c-0.84-0.49-1.67-0.97-2.51-1.46c-1.01,4.62-5.07,5.6-9.03,6.81c-3.41,1.05-7.1,3.02-7.88,6.83
			c0.62-0.35,1.23-0.7,1.85-1.05c-2.58-0.52-5.04-0.21-7.43,0.87c-0.74,0.33-0.92,1.41-0.54,2.05c0.66,1.11,1.67,1.69,2.96,1.73
			c-0.35-0.85-0.71-1.71-1.06-2.56c-0.95,1.14-1.88,2.38-1.8,3.95c0.07,1.41,0.96,2.53,2.28,2.97c-0.22-0.84-0.44-1.67-0.66-2.51
			c-1.02,0.95-1.5,2.12-1.64,3.49c-0.05,0.51,0.32,1.05,0.74,1.3c0.95,0.55,1.9,0.67,2.96,0.4c-0.27-0.96-0.53-1.93-0.8-2.89
			c-0.95,0.32-1.91,0.84-2.27,1.84c-0.33,0.92-0.11,1.94,0.73,2.51c1.54,1.04,3.53-0.18,3.19-2.01c-0.18-0.95-1.43-1.37-2.2-0.9
			c-1.95,1.19-3.03,3.74-2.1,5.93c0.86,2.01,4.27,1.35,4.13-0.9c-0.05-0.84-0.65-1.45-1.5-1.5c-0.71-0.04-1.37,0.14-1.94,0.56
			c0.61,0.79,1.21,1.57,1.82,2.36c2.22-2.57,3.75-5.59,4.4-8.93c0.23-1.2-1.02-2.45-2.2-1.69c-0.83,0.53-1.36,1.21-1.61,2.17
			c-0.45,1.74,1.77,2.47,2.74,1.16c1.33-1.8,2.03-3.84,2.26-6.05c0.19-1.84-2.36-1.81-2.95-0.4c-0.51,1.23-0.55,2.46-0.31,3.76
			c0.17,0.91,1.45,1.42,2.2,0.9c2.28-1.6,3.91-3.76,4.75-6.42c0.53-1.65-1.87-2.58-2.74-1.16c-0.57,0.93-0.71,2-0.36,3.03
			c0.39,1.15,1.61,1.37,2.51,0.66c1.29-1.02,2.16-2.37,2.69-3.93c0.38-1.12-0.79-2.11-1.85-1.85c-1.61,0.41-1.86,2.7-0.4,3.48
			c1.79,0.96,3.86-1.33,5.14-2.28c1.55-1.15,0.26-3.4-1.51-2.59c-3.74,1.71-7.22,3.94-10.34,6.61c-2.81,2.41-5.97,5.37-6.88,9.1
			c-0.4,1.63-0.3,3.68,1.5,4.41c1.92,0.78,3.45-0.86,4.59-2.18c3.1-3.58,6.2-7.16,9.31-10.74c-0.84-0.22-1.67-0.44-2.51-0.66
			c0.29,1.86,2.55,1.93,3.88,1.19c0.96-0.54,1.75-1.43,2.57-2.16c0.98-0.87,1.96-1.74,2.94-2.61c-0.61,0.08-1.21,0.16-1.82,0.23
			c1.86,0.89,3.83,0.88,5.62-0.18c-0.73-0.3-1.47-0.6-2.2-0.9c0.19,0.69,0.38,1.38,0.56,2.07c0.23,0.83,1.05,1.19,1.85,1.05
			c3.59-0.64,7.28-0.64,10.87,0.02c-0.3-0.73-0.6-1.47-0.9-2.2c-0.92,1.84-0.05,3.89,1.81,4.69c2.01,0.87,4.54,0.22,6.63,0.03
			c0.63-0.06,1.25-0.12,1.88-0.17c0.41-0.04,1.19-0.26,1.59-0.11c0.71,0.27,1.38,1.6,1.82,2.16c1.18,1.5,2.82,3.42,4.9,2.18
			c-0.73-0.56-1.47-1.13-2.2-1.69c-0.32,1.42-0.64,2.84-0.97,4.26c-0.31,1.35,1.47,2.68,2.51,1.46c-0.17-0.03-0.35-0.07-0.52-0.1
			c0.59,0.54,1.54,0.61,2.12,0c1.29-1.34,2.33-2.85,3.08-4.55c0.48-1.08-0.09-2.15-1.3-2.26c-3.89-0.35-5.31,4.89-1.96,6.73
			c0.9,0.5,2.39-0.11,2.26-1.3c-0.33-3.01,0.79-6.08,3.25-7.92c0.87-0.66,1.05-1.97,0-2.59c-0.27-0.16-0.5-0.48-0.35-0.81
			c0.56-1.2-0.71-3.03-2.05-2.05c-1.91,1.39-3.65,2.95-5.18,4.76c0.84,0.22,1.67,0.44,2.51,0.66c-0.26-0.76-0.36-1.45-0.19-2.24
			c0.29-1.39-1.41-2.61-2.51-1.46c-0.65,0.68-1.36,1.52-2.28,1.83c-0.92,0.31-1.95-0.08-2.83-0.37c-1.93-0.62-3.68-1.1-5.61-0.22
			c0.68,0.68,1.37,1.37,2.05,2.05c0.55-1.06,1.44-1.63,2.64-1.61c1.49,0.02,2.04-2.06,0.76-2.8c-8.98-5.19-19.61-7.01-29.84-5.38
			c-2.55,0.41-5.05,1.04-7.48,1.9c-2.17,0.77-5.04,1.42-5.26,4.11c-0.1,1.25-1.18,2.02-2,2.91c-0.96,1.03-2.14,2.05-2.76,3.33
			c-0.99,2.05-0.02,5,2.59,4.96c1.46-0.02,2.6-1.08,3.59-2.04c1.18-1.15,2.36-2.31,3.54-3.47c2.59-2.54,5.19-5.09,7.78-7.63
			c1.38-1.35-0.74-3.47-2.12-2.12c-3.72,3.64-7.43,7.28-11.15,10.92c-0.35,0.34-0.69,0.74-1.09,1.02c0.02-0.01-0.53,0.37-0.62,0.32
			c0.18,0.1,0.05-0.1,0.04-0.19c-0.07-0.89,1.45-2.07,2-2.65c0.74-0.79,1.53-1.56,2.2-2.41c0.32-0.4,0.58-0.8,0.75-1.28
			c0.17-0.46,0.03-1.31,0.24-1.68c0.09-0.15,0.82-0.34,0.97-0.4c0.44-0.19,0.88-0.36,1.33-0.53c1.08-0.41,2.18-0.77,3.28-1.08
			c2.02-0.58,4.09-1.01,6.18-1.27c4.24-0.52,8.58-0.43,12.79,0.32c4.77,0.86,9.33,2.5,13.53,4.93c0.25-0.93,0.5-1.86,0.76-2.8
			c-2.2-0.03-4.22,1.14-5.23,3.1c-0.72,1.4,0.7,2.67,2.05,2.05c0.81-0.37,1.83,0.05,2.61,0.3c1.04,0.33,2.06,0.69,3.16,0.78
			c2.32,0.2,4.05-1.2,5.56-2.79c-0.84-0.49-1.67-0.97-2.51-1.46c-0.27,1.31-0.24,2.57,0.19,3.84c0.34,0.98,1.73,1.58,2.51,0.66
			c1.36-1.6,2.87-3.05,4.57-4.29c-0.68-0.68-1.37-1.37-2.05-2.05c-0.85,1.81-0.34,3.87,1.42,4.91c0-0.86,0-1.73,0-2.59
			c-3.28,2.46-5.19,6.38-4.74,10.52c0.75-0.43,1.5-0.86,2.26-1.3c-0.86-0.47-0.41-1.21,0.44-1.13c-0.43-0.75-0.86-1.5-1.3-2.26
			c-0.65,1.48-1.5,2.78-2.61,3.95c0.71,0,1.41,0,2.12,0c-1.07-0.98-2.73-1.06-3.72,0.1c0.84,0.49,1.67,0.97,2.51,1.46
			c0.32-1.42,0.64-2.84,0.97-4.26c0.28-1.24-1.04-2.39-2.2-1.69c0.32,0.07,0.38,0.05,0.17-0.06c-0.15-0.08-0.27-0.19-0.38-0.33
			c-0.24-0.24-0.44-0.53-0.65-0.79c-0.51-0.64-1.01-1.3-1.53-1.93c-0.88-1.07-1.88-1.7-3.3-1.62c-1.62,0.09-3.25,0.3-4.87,0.45
			c-0.28,0.03-4.38,0.42-3.97-0.38c0.4-0.79,0.12-2.02-0.9-2.2c-4.16-0.75-8.31-0.76-12.47-0.02c0.62,0.35,1.23,0.7,1.85,1.05
			c-0.19-0.69-0.38-1.38-0.56-2.07c-0.25-0.93-1.37-1.39-2.2-0.9c-0.83,0.49-1.71,0.6-2.6,0.18c-0.64-0.31-1.29-0.24-1.82,0.23
			c-1.04,0.92-2.08,1.85-3.12,2.77c-0.47,0.42-0.92,0.89-1.42,1.27c-0.09,0.07-0.37,0.2-0.43,0.28c-0.04,0.02-0.08,0.03-0.12,0.03
			c-0.35,0.07-0.11,0.25,0.72,0.55c-0.17-1.1-1.81-1.46-2.51-0.66c-2.41,2.78-4.81,5.56-7.22,8.33c-0.59,0.68-1.18,1.36-1.76,2.04
			c-0.32,0.37-0.63,0.75-0.96,1.11c-0.2,0.22-0.77,0.55-0.87,0.76c0.12,0.08,0.24,0.16,0.36,0.24c-0.04-0.13-0.05-0.26-0.04-0.39
			c0.08-0.27,0.08-0.58,0.16-0.85c0.21-0.77,0.56-1.48,0.98-2.16c1.57-2.55,4.07-4.69,6.41-6.51c2.59-2.02,5.43-3.7,8.42-5.06
			c-0.5-0.86-1.01-1.73-1.51-2.59c-0.5,0.37-1,0.74-1.5,1.12c-0.28,0.21-1.01,0.98-1.37,0.96c0.35,0.15,0.71,0.29,1.06,0.44
			c0.03,0.37,0.06,0.75,0.1,1.12c-0.3,0.23-0.6,0.46-0.9,0.69c0.06-0.01,0.12-0.03,0.18-0.04c-0.62-0.62-1.23-1.23-1.85-1.85
			c-0.37,1.08-1.03,1.9-1.91,2.6c0.84,0.22,1.67,0.44,2.51,0.66c-0.13-0.37-0.14-0.4,0.06-0.72c-0.91-0.39-1.83-0.77-2.74-1.16
			c-0.6,1.88-1.75,3.49-3.37,4.62c0.73,0.3,1.47,0.6,2.2,0.9c-0.14-0.78,0.02-1.45,0.31-2.16c-0.98-0.13-1.96-0.27-2.95-0.4
			c-0.17,1.68-0.85,3.18-1.85,4.53c0.91,0.39,1.83,0.77,2.74,1.16c0-0.18,0.07-0.31,0.23-0.38c-0.73-0.56-1.47-1.13-2.2-1.69
			c-0.55,2.82-1.74,5.42-3.63,7.6c-1.03,1.19,0.36,3.44,1.82,2.36c0.11-0.19,0.26-0.24,0.43-0.15c-0.5-0.5-1-1-1.5-1.5
			c0.34-0.94,0.76-1.13,1.24-0.56c0.41,0.44,0.52,0.43,0.33,0c0.06-0.18-0.02-0.44,0.02-0.64c0.11-0.55,0.43-0.95,0.9-1.24
			c-0.73-0.3-1.47-0.6-2.2-0.9c0.51-1.64,0.96-1.9,1.37-0.77c0.08,0.61,0.3,0.79,0.67,0.53c1.82-0.62,1.09-3.37-0.8-2.89
			c-0.23,0.11-0.45,0.07-0.64-0.1c0.25,0.43,0.5,0.86,0.74,1.3c0.06-0.58,0.35-0.99,0.76-1.37c0.87-0.81,0.36-2.17-0.66-2.51
			c-0.56-0.19,0.69-1.72,0.84-1.9c0.83-0.99,0.3-2.51-1.06-2.56c-0.19,0.02-0.31-0.06-0.37-0.25c-0.18,0.68-0.36,1.37-0.54,2.05
			c1.61-0.73,3.39-0.92,5.12-0.57c0.75,0.15,1.67-0.21,1.85-1.05c0.81-3.94,5.72-4.62,8.89-5.66c3.92-1.28,7.1-3.79,8.02-7.98
			c0.29-1.32-1.5-2.73-2.51-1.46c-0.4,0.5-2.24,2.93-2.99,1.71c-0.31-0.51-1.08-0.94-1.69-0.69c-1.75,0.73-3.05,1.9-4.55,3.01
			c-1.07,0.79-3.02,1.94-4.26,0.85c0.13,0.49,0.26,0.97,0.39,1.46c0.33-0.82,0.89-1.42,1.56-1.97c-0.84-0.22-1.67-0.44-2.51-0.66
			c0.28,0.75,0.21,1.25-0.26,1.9c-1.04,1.42,1.16,2.93,2.36,1.82c0-0.14,0.1-0.15,0.31-0.03c-0.48-0.63-0.96-1.27-1.45-1.9
			c-0.1,0.74-0.2,1.48-0.31,2.22c-0.15,1.09,1.02,2.6,2.2,1.69c1.15-0.88,1.79-1.97,2.53-3.19c0.27-0.45,0.55-0.93,1.06-1.14
			c0.18-0.07,0.39-0.11,0.58-0.1c0.24,0.01,0.12,0.15,0.04-0.08c0.31,0.89,1.33,1.43,2.2,0.9c0.41-0.25,0.87-0.34,1.27-0.01
			c0.74,0.62,1.82,0.58,2.36-0.3c0.64-1.05,2-0.21,1.38,0.85c0.91,0.39,1.83,0.77,2.74,1.16c0.4-1.02,2.28-1.14,2.88-0.28
			c0.82,1.2,2.77,0.8,2.8-0.76c0.02-1.09,1.38-1.73,2.26-1.18c1.02,0.63,2.2-0.2,2.26-1.3c-0.04-0.1,0.04-0.12,0.23-0.07
			c-0.63-0.48-1.27-0.96-1.9-1.45c-0.01,0.25-0.06,0.53-0.27,0.7c0.73,0.56,1.47,1.13,2.2,1.69c-0.02,0.05,0.13,0.16-0.03-0.02
			c-0.04-0.04-0.09,0.05-0.17,0.1c0.61,0.79,1.21,1.57,1.82,2.36c0.3-0.27,0.61-0.6,0.99-0.76c0.12-0.09,0.26-0.14,0.41-0.15
			c0.13,0.08,0.13,0.06,0.01-0.05c-0.28,0.73,0.31,1.68,1.05,1.85c1.65,0.36,3.18,1.02,4.5,2.08c0.88,0.71,2.14,0.49,2.51-0.66
			c0.27-0.86,1.83-3.9,2.19-1.46c0.14,0.93-0.11,1.88-0.15,2.81c-0.04,1.08,0.15,2.1,0.7,3.04c0.53,0.9,1.62,0.91,2.36,0.3
			c2.16-1.78,3.35-4.36,3.46-7.14c0.07-1.61-1.99-1.87-2.8-0.76c-1.21,1.69-2.42,3.37-3.63,5.06c-0.28,0.39-0.56,0.78-0.84,1.17
			c-0.14,0.19-0.81,0.93-0.84,1.17c0.81,0.97,1.26,1.08,1.35,0.32c0.04-0.12,0.07-0.25,0.11-0.37c0.1-0.43,0.16-0.87,0.08-1.31
			c-0.35-1.85-2.55-1.86-4-2.49c-1.66-0.72-3.22-1.7-4.6-2.87C83.93,28.88,81.8,31,83.27,32.25L83.27,32.25z"/>
	</g>
</g>
<path class="st5" d="M114.55,148.6l-12.34,1.62c-0.59,0.08-1.12-0.34-1.2-0.92l-0.46-3.51l15.63-2.06l0.31,2.34
	C116.65,147.31,115.78,148.44,114.55,148.6z"/>
<circle class="st0" cx="107.95" cy="166.88" r="9.39"/>
<path class="st5" d="M32.14,149.41l13.4,1.76c0.59,0.08,1.12-0.34,1.2-0.92l0.46-3.51l-16.69-2.2l-0.31,2.34
	C30.04,148.12,30.91,149.25,32.14,149.41z"/>
<circle class="st0" cx="38.56" cy="166.96" r="9.39"/>
<path class="st12" d="M84.81,153.57H63.18c-1.65,0-3-1.35-3-3v-14.09c0-1.65,1.35-3,3-3h21.63c1.65,0,3,1.35,3,3v14.09
	C87.81,152.22,86.46,153.57,84.81,153.57z"/>
<line class="st12" x1="61.05" y1="134.37" x2="61.05" y2="134.37"/>
<line class="st13" x1="61.05" y1="134.37" x2="73.99" y2="143.52"/>
<line class="st14" x1="73.99" y1="143.52" x2="86.94" y2="134.37"/>
<circle class="st10" cx="73.99" cy="139.6" r="1.63"/>
<g>
	<path class="st15" d="M116.82,260.4H76.66v-22.22h22.16c9.9,0,18,8.1,18,18V260.4z"/>
	<rect x="76.66" y="256.69" class="st15" width="40.16" height="3.71"/>
	<rect x="76.66" y="258.55" class="st15" width="40.16" height="0.93"/>
</g>
<g>
	<path class="st15" d="M29.13,260.4h40.16v-22.22H47.13c-9.9,0-18,8.1-18,18V260.4z"/>
	
		<rect x="29.13" y="256.69" transform="matrix(-1 -4.493529e-11 4.493529e-11 -1 98.4242 517.0954)" class="st15" width="40.16" height="3.71"/>
	
		<rect x="29.13" y="258.55" transform="matrix(-1 -4.488999e-11 4.488999e-11 -1 98.4242 518.024)" class="st15" width="40.16" height="0.93"/>
</g>
<g>
	<g>
		<path class="st7" d="M65.29,83.92c3.88,4.01,10.86,4.05,14.82,0.14c1.38-1.36-0.75-3.48-2.12-2.12
			c-2.82,2.78-7.82,2.71-10.58-0.14C66.06,80.41,63.94,82.53,65.29,83.92L65.29,83.92z"/>
	</g>
</g>
<path class="st16" d="M242.26,228.88H154.3c-6.6,0-12-5.4-12-12v-55.84c0-6.6,5.4-12,12-12h87.96c6.6,0,12,5.4,12,12v55.84
	C254.26,223.48,248.86,228.88,242.26,228.88z"/>
<path class="st17" d="M177.24,175.25h-24.6c-1.65,0-3-1.35-3-3v-14.51c0-1.65,1.35-3,3-3h24.6c1.65,0,3,1.35,3,3v14.51
	C180.24,173.9,178.89,175.25,177.24,175.25z"/>
<path class="st17" d="M226.73,219.4v-24.6c0-1.65,1.35-3,3-3h14.51c1.65,0,3,1.35,3,3v24.6c0,1.65-1.35,3-3,3h-14.51
	C228.08,222.4,226.73,221.05,226.73,219.4z"/>
<path class="st18" d="M159.97,225.16h-6c-0.55,0-1-0.45-1-1v-13c0-0.55,0.45-1,1-1h6c0.55,0,1,0.45,1,1v13
	C160.97,224.71,160.52,225.16,159.97,225.16z"/>
<path class="st19" d="M170.21,225.38h-6c-0.55,0-1-0.45-1-1v-13c0-0.55,0.45-1,1-1h6c0.55,0,1,0.45,1,1v13
	C171.21,224.93,170.76,225.38,170.21,225.38z"/>
<path class="st20" d="M180.46,225.16h-6c-0.55,0-1-0.45-1-1v-13c0-0.55,0.45-1,1-1h6c0.55,0,1,0.45,1,1v13
	C181.46,224.71,181.01,225.16,180.46,225.16z"/>
<circle class="st21" cx="191.18" cy="158.85" r="3.4"/>
<circle class="st21" cx="203.86" cy="158.85" r="3.4"/>
<circle class="st21" cx="217.11" cy="158.85" r="3.4"/>
<circle class="st21" cx="198.28" cy="222.4" r="3.4"/>
<circle class="st21" cx="189.03" cy="222.4" r="3.4"/>
<circle class="st21" cx="153.85" cy="186.99" r="3.4"/>
<circle class="st21" cx="188.98" cy="186.81" r="3.4"/>
<circle class="st21" cx="236.98" cy="187.33" r="3.4"/>
<circle class="st21" cx="208.9" cy="222.4" r="3.4"/>
<circle class="st21" cx="153.85" cy="195.72" r="3.4"/>
<circle class="st21" cx="191.18" cy="175.25" r="3.4"/>
<line class="st13" x1="191.18" y1="175.25" x2="191.18" y2="158.64"/>
<circle class="st21" cx="173.46" cy="175.25" r="3.4"/>
<circle class="st21" cx="226.73" cy="213.93" r="3.4"/>
<circle class="st21" cx="226.73" cy="200.2" r="3.4"/>
<circle class="st21" cx="167.21" cy="210.16" r="3.4"/>
<line class="st13" x1="173.46" y1="175" x2="191.18" y2="175.25"/>
<line class="st13" x1="167.21" y1="210.16" x2="188.95" y2="187.06"/>
<line class="st13" x1="153.85" y1="186.99" x2="189.03" y2="186.49"/>
<line class="st13" x1="153.85" y1="186.32" x2="153.85" y2="174.12"/>
<line class="st13" x1="153.57" y1="169.9" x2="153.57" y2="158.85"/>
<line class="st13" x1="157.54" y1="169.9" x2="157.54" y2="158.85"/>
<line class="st13" x1="161.26" y1="169.9" x2="161.26" y2="158.85"/>
<circle class="st21" cx="203.86" cy="179.76" r="3.4"/>
<line class="st13" x1="203.86" y1="179.76" x2="203.86" y2="158.85"/>
<line class="st13" x1="188.98" y1="186.81" x2="203.86" y2="179.76"/>
<circle class="st21" cx="217.11" cy="187.33" r="3.4"/>
<line class="st13" x1="217.11" y1="187.33" x2="217.11" y2="158.64"/>
<line class="st13" x1="203.86" y1="179.76" x2="217.11" y2="187.33"/>
<line class="st13" x1="217.11" y1="187.33" x2="236.98" y2="187.33"/>
<circle class="st21" cx="203.86" cy="195.15" r="3.4"/>
<line class="st13" x1="203.86" y1="195.25" x2="217.11" y2="187.96"/>
<line class="st13" x1="203.86" y1="195.25" x2="189.03" y2="186.49"/>
<line class="st13" x1="203.86" y1="195.25" x2="226.73" y2="200.2"/>
<line class="st13" x1="226.73" y1="200.2" x2="242.3" y2="200.2"/>
<line class="st13" x1="226.73" y1="213.93" x2="242.3" y2="213.93"/>
<g>
	<g>
		<path class="st22" d="M155.63,219.22c-1.43,2.18-1.58,4.79-1.67,7.32c-0.08,2.34-0.01,5.12-2.02,6.73
			c-1.08,0.86-2.42,1.33-3.55,2.11c-1.09,0.75-2.02,1.7-2.62,2.88c-1.23,2.39-1.23,5.12-0.07,7.52c0.84,1.74,3.42,0.22,2.59-1.51
			c-0.98-2.03-0.41-4.65,1.32-6.08c1.95-1.61,4.39-2.16,5.85-4.39c2.58-3.95,0.23-9.19,2.77-13.06
			C159.28,219.11,156.68,217.61,155.63,219.22L155.63,219.22z"/>
	</g>
</g>
<g>
	<g>
		<path class="st23" d="M167,223.37c-0.04,1.54-0.79,2.93-1.29,4.36c-0.5,1.45-0.73,2.97-0.34,4.48c0.39,1.49,1.34,2.73,1.88,4.16
			c0.62,1.64,0,3.08-1.07,4.38c-1.9,2.32-4.77,4.09-5.35,7.25c-0.47,2.55,0.73,5.5,3.43,6.14c1.88,0.44,2.68-2.45,0.8-2.89
			c-0.96-0.23-1.33-1.17-1.34-2.09c-0.02-1.3,0.86-2.41,1.7-3.32c1.88-2.03,4.29-3.84,4.94-6.68c0.31-1.34,0.15-2.66-0.36-3.93
			c-0.52-1.28-1.41-2.46-1.74-3.81c-0.34-1.37,0.26-2.71,0.75-3.97c0.52-1.33,0.95-2.63,0.99-4.08
			C170.05,221.43,167.05,221.44,167,223.37L167,223.37z"/>
	</g>
</g>
<g>
	<g>
		<path class="st24" d="M177.17,222.37c-0.28,2.18-2.04,3.92-2.44,6.09c-0.45,2.47,0.85,4.32,2.74,5.73
			c2.05,1.52,3.61,2.92,4.34,5.47c0.83,2.91,0.42,5.98-0.15,8.89c-0.37,1.89,2.52,2.69,2.89,0.8c1.04-5.33,1.4-11.76-2.98-15.8
			c-1.37-1.26-4.34-2.33-3.89-4.61c0.21-1.09,0.88-2.08,1.36-3.06c0.56-1.14,0.96-2.25,1.12-3.51
			C180.41,220.46,177.41,220.47,177.17,222.37L177.17,222.37z"/>
	</g>
</g>
<path class="st7" d="M151.63,251.06l-3.61,1.71c-0.5,0.24-1.1,0.02-1.33-0.48l-2.47-5.21c-0.24-0.5-0.02-1.1,0.48-1.33l3.61-1.71
	c0.5-0.24,1.1-0.02,1.33,0.48l2.47,5.21C152.34,250.23,152.13,250.83,151.63,251.06z"/>
<path class="st7" d="M183.92,252.16l-3.91-0.85c-0.54-0.12-0.88-0.65-0.77-1.19l1.22-5.63c0.12-0.54,0.65-0.88,1.19-0.77l3.91,0.85
	c0.54,0.12,0.88,0.65,0.77,1.19l-1.22,5.63C184.99,251.93,184.46,252.28,183.92,252.16z"/>
<path class="st7" d="M171.57,253.83l-1.64,3.65c-0.23,0.5-0.82,0.73-1.32,0.5l-5.25-2.37c-0.5-0.23-0.73-0.82-0.5-1.32l1.64-3.65
	c0.23-0.5,0.82-0.73,1.32-0.5l5.25,2.37C171.57,252.73,171.8,253.33,171.57,253.83z"/>
<line class="st13" x1="202.93" y1="202.99" x2="188.1" y2="194.23"/>
<line class="st13" x1="219.16" y1="203.5" x2="203.25" y2="203.21"/>
<line class="st13" x1="202.56" y1="206.7" x2="187.73" y2="197.94"/>
<line class="st13" x1="218.78" y1="207.21" x2="202.88" y2="206.92"/>
<circle class="st21" cx="153.85" cy="204.64" r="3.4"/>
<line class="st13" x1="153.85" y1="204.64" x2="153.85" y2="186.61"/>
<circle class="st21" cx="163.21" cy="195.72" r="3.4"/>
<line class="st13" x1="154.43" y1="195.62" x2="163.81" y2="195.62"/>
<line class="st13" x1="189.03" y1="222.4" x2="208.9" y2="222.4"/>
<circle class="st25" cx="237.92" cy="207.07" r="3.4"/>
<path class="st17" d="M225.49,178.6V157.6c0-1.65,1.35-3,3-3h18.85c1.65,0,3,1.35,3,3v20.99c0,1.65-1.35,3-3,3h-18.85
	C226.84,181.6,225.49,180.24,225.49,178.6z"/>
<path class="st26" d="M198.68,211.53v2c0,0.55-0.45,1-1,1h-13c-0.55,0-1-0.45-1-1v-2c0-0.55,0.45-1,1-1h13
	C198.23,210.53,198.68,210.98,198.68,211.53z"/>
<path class="st26" d="M210.49,211.53v2c0,0.55-0.45,1-1,1h-8c-0.55,0-1-0.45-1-1v-2c0-0.55,0.45-1,1-1h8
	C210.04,210.53,210.49,210.98,210.49,211.53z"/>
<path class="st26" d="M220.9,211.53v2c0,0.55-0.45,1-1,1h-7c-0.55,0-1-0.45-1-1v-2c0-0.55,0.45-1,1-1h7
	C220.45,210.53,220.9,210.98,220.9,211.53z"/>
<path class="st26" d="M210.49,216.33L210.49,216.33c0,0.55-0.45,1-1,1h-8c-0.55,0-1-0.45-1-1l0,0c0-0.55,0.45-1,1-1h8
	C210.04,215.33,210.49,215.78,210.49,216.33z"/>
<line class="st13" x1="189.03" y1="212.53" x2="189.03" y2="222.04"/>
<line class="st13" x1="189.03" y1="212.26" x2="216.41" y2="212.26"/>
<line class="st13" x1="205.5" y1="212.53" x2="205.5" y2="216.33"/>
<line class="st13" x1="219.22" y1="203.46" x2="219.22" y2="207.26"/>
<line class="st13" x1="236.98" y1="180.22" x2="236.98" y2="187.09"/>
<path class="st27" d="M227.05,163.72v-5.31c0-1.1,0.9-2,2-2h5.31c1.1,0,2,0.9,2,2v5.31c0,1.1-0.9,2-2,2h-5.31
	C227.95,165.72,227.05,164.82,227.05,163.72z"/>
<path class="st27" d="M227.05,169.34v-0.15c0-1.1,0.9-2,2-2h5.31c1.1,0,2,0.9,2,2v0.15c0,1.1-0.9,2-2,2h-5.31
	C227.95,171.34,227.05,170.43,227.05,169.34z"/>
<path class="st27" d="M227.05,174.9v-0.15c0-1.1,0.9-2,2-2h5.31c1.1,0,2,0.9,2,2v0.15c0,1.1-0.9,2-2,2h-5.31
	C227.95,176.9,227.05,176,227.05,174.9z"/>
<path class="st27" d="M237.65,168.97v-10.56c0-1.1,0.9-2,2-2h7.09c1.1,0,2,0.9,2,2v10.56c0,1.1-0.9,2-2,2h-7.09
	C238.55,170.97,237.65,170.07,237.65,168.97z"/>
<circle class="st28" cx="239.71" cy="174.82" r="1.79"/>
<circle class="st28" cx="246.59" cy="174.82" r="1.79"/>
<circle class="st28" cx="236.98" cy="179.14" r="1.79"/>
<circle class="st28" cx="243.2" cy="174.82" r="1.79"/>
<path class="st29" d="M244.44,129.39h-87.96c-6.6,0-12-5.4-12-12V61.55c0-6.6,5.4-12,12-12h87.96c6.6,0,12,5.4,12,12v55.84
	C256.44,123.99,251.04,129.39,244.44,129.39z"/>
<path class="st30" d="M179.42,75.75h-24.6c-1.65,0-3-1.35-3-3V58.24c0-1.65,1.35-3,3-3h24.6c1.65,0,3,1.35,3,3v14.51
	C182.42,74.4,181.07,75.75,179.42,75.75z"/>
<path class="st30" d="M228.9,119.91v-24.6c0-1.65,1.35-3,3-3h14.51c1.65,0,3,1.35,3,3v24.6c0,1.65-1.35,3-3,3H231.9
	C230.25,122.91,228.9,121.56,228.9,119.91z"/>
<path class="st31" d="M162.15,125.67h-6c-0.55,0-1-0.45-1-1v-13c0-0.55,0.45-1,1-1h6c0.55,0,1,0.45,1,1v13
	C163.15,125.22,162.7,125.67,162.15,125.67z"/>
<path class="st32" d="M172.39,125.88h-6c-0.55,0-1-0.45-1-1v-13c0-0.55,0.45-1,1-1h6c0.55,0,1,0.45,1,1v13
	C173.39,125.43,172.94,125.88,172.39,125.88z"/>
<path class="st33" d="M182.64,125.67h-6c-0.55,0-1-0.45-1-1v-13c0-0.55,0.45-1,1-1h6c0.55,0,1,0.45,1,1v13
	C183.64,125.22,183.19,125.67,182.64,125.67z"/>
<circle class="st34" cx="193.36" cy="59.35" r="3.4"/>
<circle class="st34" cx="206.04" cy="59.35" r="3.4"/>
<circle class="st34" cx="219.29" cy="59.35" r="3.4"/>
<circle class="st34" cx="200.46" cy="122.91" r="3.4"/>
<circle class="st34" cx="191.21" cy="122.91" r="3.4"/>
<circle class="st34" cx="156.03" cy="87.5" r="3.4"/>
<circle class="st34" cx="191.16" cy="87.32" r="3.4"/>
<circle class="st34" cx="239.16" cy="87.84" r="3.4"/>
<circle class="st34" cx="211.08" cy="122.91" r="3.4"/>
<circle class="st34" cx="156.03" cy="96.23" r="3.4"/>
<circle class="st34" cx="193.36" cy="75.75" r="3.4"/>
<line class="st35" x1="193.36" y1="75.75" x2="193.36" y2="59.15"/>
<circle class="st34" cx="175.64" cy="75.75" r="3.4"/>
<circle class="st34" cx="228.9" cy="114.43" r="3.4"/>
<circle class="st34" cx="228.9" cy="100.7" r="3.4"/>
<circle class="st34" cx="169.39" cy="110.67" r="3.4"/>
<line class="st35" x1="175.64" y1="75.5" x2="193.36" y2="75.75"/>
<line class="st35" x1="169.39" y1="110.67" x2="191.13" y2="87.56"/>
<line class="st35" x1="156.03" y1="87.5" x2="191.21" y2="86.99"/>
<line class="st35" x1="156.03" y1="86.83" x2="156.03" y2="74.63"/>
<line class="st35" x1="155.74" y1="70.41" x2="155.74" y2="59.35"/>
<line class="st35" x1="159.72" y1="70.41" x2="159.72" y2="59.35"/>
<line class="st35" x1="163.44" y1="70.41" x2="163.44" y2="59.35"/>
<circle class="st34" cx="206.04" cy="80.27" r="3.4"/>
<line class="st35" x1="206.04" y1="80.27" x2="206.04" y2="59.35"/>
<line class="st35" x1="191.16" y1="87.32" x2="206.04" y2="80.27"/>
<circle class="st34" cx="219.29" cy="87.84" r="3.4"/>
<line class="st35" x1="219.29" y1="87.84" x2="219.29" y2="59.15"/>
<line class="st35" x1="206.04" y1="80.27" x2="219.29" y2="87.84"/>
<line class="st35" x1="219.29" y1="87.84" x2="239.16" y2="87.84"/>
<circle class="st34" cx="206.04" cy="95.66" r="3.4"/>
<line class="st35" x1="206.04" y1="95.75" x2="219.29" y2="88.46"/>
<line class="st35" x1="206.04" y1="95.75" x2="191.21" y2="86.99"/>
<line class="st35" x1="206.04" y1="95.75" x2="228.9" y2="100.7"/>
<line class="st35" x1="228.9" y1="100.7" x2="244.48" y2="100.7"/>
<line class="st35" x1="228.9" y1="114.43" x2="244.48" y2="114.43"/>
<line class="st35" x1="205.11" y1="103.5" x2="190.28" y2="94.73"/>
<line class="st35" x1="221.33" y1="104.01" x2="205.43" y2="103.72"/>
<line class="st35" x1="204.73" y1="107.21" x2="189.9" y2="98.44"/>
<line class="st35" x1="220.96" y1="107.72" x2="205.05" y2="107.43"/>
<circle class="st34" cx="156.03" cy="105.15" r="3.4"/>
<line class="st35" x1="156.03" y1="105.15" x2="156.03" y2="87.11"/>
<circle class="st34" cx="165.39" cy="96.23" r="3.4"/>
<line class="st35" x1="156.61" y1="96.13" x2="165.98" y2="96.13"/>
<line class="st35" x1="191.21" y1="122.91" x2="211.08" y2="122.91"/>
<circle class="st36" cx="240.1" cy="107.57" r="3.4"/>
<path class="st30" d="M227.67,79.1V58.11c0-1.65,1.35-3,3-3h18.85c1.65,0,3,1.35,3,3V79.1c0,1.65-1.35,3-3,3h-18.85
	C229.02,82.1,227.67,80.75,227.67,79.1z"/>
<path class="st37" d="M200.86,112.03v2c0,0.55-0.45,1-1,1h-13c-0.55,0-1-0.45-1-1v-2c0-0.55,0.45-1,1-1h13
	C200.41,111.03,200.86,111.48,200.86,112.03z"/>
<path class="st37" d="M212.67,112.03v2c0,0.55-0.45,1-1,1h-8c-0.55,0-1-0.45-1-1v-2c0-0.55,0.45-1,1-1h8
	C212.22,111.03,212.67,111.48,212.67,112.03z"/>
<path class="st37" d="M223.08,112.03v2c0,0.55-0.45,1-1,1h-7c-0.55,0-1-0.45-1-1v-2c0-0.55,0.45-1,1-1h7
	C222.63,111.03,223.08,111.48,223.08,112.03z"/>
<path class="st37" d="M212.67,116.84L212.67,116.84c0,0.55-0.45,1-1,1h-8c-0.55,0-1-0.45-1-1l0,0c0-0.55,0.45-1,1-1h8
	C212.22,115.84,212.67,116.29,212.67,116.84z"/>
<line class="st35" x1="191.21" y1="113.03" x2="191.21" y2="122.54"/>
<line class="st35" x1="191.21" y1="112.76" x2="218.58" y2="112.76"/>
<line class="st35" x1="207.68" y1="113.03" x2="207.68" y2="116.84"/>
<line class="st35" x1="221.4" y1="103.96" x2="221.4" y2="107.77"/>
<line class="st35" x1="239.16" y1="80.73" x2="239.16" y2="87.6"/>
<path class="st38" d="M229.23,64.22v-5.31c0-1.1,0.9-2,2-2h5.31c1.1,0,2,0.9,2,2v5.31c0,1.1-0.9,2-2,2h-5.31
	C230.13,66.22,229.23,65.32,229.23,64.22z"/>
<path class="st38" d="M229.23,69.84v-0.15c0-1.1,0.9-2,2-2h5.31c1.1,0,2,0.9,2,2v0.15c0,1.1-0.9,2-2,2h-5.31
	C230.13,71.84,229.23,70.94,229.23,69.84z"/>
<path class="st38" d="M229.23,75.4v-0.15c0-1.1,0.9-2,2-2h5.31c1.1,0,2,0.9,2,2v0.15c0,1.1-0.9,2-2,2h-5.31
	C230.13,77.4,229.23,76.5,229.23,75.4z"/>
<path class="st38" d="M239.83,69.48V58.91c0-1.1,0.9-2,2-2h7.09c1.1,0,2,0.9,2,2v10.56c0,1.1-0.9,2-2,2h-7.09
	C240.73,71.48,239.83,70.58,239.83,69.48z"/>
<circle cx="241.89" cy="75.33" r="1.79"/>
<circle cx="248.77" cy="75.33" r="1.79"/>
<circle cx="239.16" cy="79.65" r="1.79"/>
<circle cx="245.37" cy="75.33" r="1.79"/>
<rect id="_x3C_Slice_x3E_" x="-6.14" y="-5.95" class="st39" width="292" height="281"/>
</svg>
