<?xml version="1.0" encoding="utf-8"?>
<!-- Generator: Adobe Illustrator 24.0.1, SVG Export Plug-In . SVG Version: 6.00 Build 0)  -->
<svg version="1.1" id="Layer_1" xmlns="http://www.w3.org/2000/svg" xmlns:xlink="http://www.w3.org/1999/xlink" x="0px" y="0px"
	 viewBox="0 0 280 270" style="enable-background:new 0 0 280 270;" xml:space="preserve">
<style type="text/css">
	.st0{fill:#010101;}
	.st1{fill:#FDC37D;}
	.st2{fill:#4D3634;}
	.st3{fill:#BF9A6F;}
	.st4{fill:#070707;}
	.st5{fill:#C0AA82;}
	.st6{fill:#801423;}
	.st7{fill:#A47240;}
	.st8{fill:#231F20;}
	.st9{fill:#0F0F1E;}
	.st10{fill:#4B4E53;}
	.st11{fill:#50575C;}
	.st12{fill:#C56528;stroke:#040404;stroke-width:2;stroke-miterlimit:10;}
	.st13{fill:#CE7083;}
	.st14{fill:#3B191C;}
	.st15{fill:#1A1A1A;}
	.st16{fill:#131217;}
	.st17{fill:#5C3F19;}
	.st18{fill:#EE4823;}
	.st19{fill:#818181;}
	.st20{fill:#098D45;}
	.st21{fill:none;stroke:#1E5C2E;stroke-width:0.7087;stroke-miterlimit:10;}
	.st22{fill:#EE3724;stroke:#010101;stroke-width:0.7087;stroke-miterlimit:10;}
	.st23{fill:#EDE81F;stroke:#010101;stroke-width:0.7087;stroke-miterlimit:10;}
	.st24{fill:#2D409A;stroke:#010101;stroke-width:0.7087;stroke-miterlimit:10;}
	.st25{fill:#140B0A;stroke:#010101;stroke-width:0.7087;stroke-miterlimit:10;}
	.st26{fill:#20B24B;stroke:#010101;stroke-width:0.7087;stroke-miterlimit:10;}
	.st27{fill:#D82826;stroke:#010101;stroke-width:0.7087;stroke-miterlimit:10;}
	.st28{fill:none;stroke:#010101;stroke-miterlimit:10;}
	.st29{fill:#D82826;}
	.st30{fill:#20B24B;}
	.st31{fill:#2D409A;}
	.st32{fill:#4D5246;}
	.st33{fill:#84D2F5;}
	.st34{fill:#A4AED9;}
	.st35{fill:#F47A20;}
</style>
<g>
	<g>
		<path class="st0" d="M148.97,184.05c-2.3,1.84-1.76,5.16-0.34,7.34c0.85,1.31,2.07,2.46,2.62,3.95c0.61,1.64-0.46,2.86-1.35,4.15
			c-1.73,2.49-3.53,5.06-3.76,8.18c-0.2,2.64,0.82,5.24,3.06,6.72c1.61,1.07,3.12-1.53,1.51-2.59c-1.79-1.19-1.86-3.72-1.26-5.57
			c0.84-2.6,2.82-4.59,4.15-6.92c1.38-2.41,0.85-4.92-0.69-7.12c-1.01-1.44-3.95-4.34-1.84-6.02
			C152.6,184.97,150.46,182.86,148.97,184.05L148.97,184.05z"/>
	</g>
</g>
<path class="st1" d="M72.26,98H57.62c-1.96,0-3.56-1.6-3.56-3.56V76.26c0-1.96,1.6-3.56,3.56-3.56h14.63c1.96,0,3.56,1.6,3.56,3.56
	v18.18C75.82,96.4,74.21,98,72.26,98z"/>
<path class="st1" d="M89.83,34.16v38c0,12.71-10.3,23-23,23h-4c-12.7,0-23-10.29-23-23v-38c0-10.49,8.51-19,19-19h12
	C81.32,15.16,89.83,23.67,89.83,34.16z"/>
<path class="st2" d="M58.61,39.73h-9c-1.1,0-2-0.9-2-2v-0.67c0-1.1,0.9-2,2-2h9c1.1,0,2,0.9,2,2v0.67
	C60.61,38.83,59.71,39.73,58.61,39.73z"/>
<path class="st2" d="M79.11,39.73h-9c-1.1,0-2-0.9-2-2v-0.67c0-1.1,0.9-2,2-2h9c1.1,0,2,0.9,2,2v0.67
	C81.11,38.83,80.21,39.73,79.11,39.73z"/>
<path class="st3" d="M39.83,55.67h-3.15c-1.1,0-2-0.9-2-2v-7.46c0-1.1,0.9-2,2-2h3.15V55.67z"/>
<circle class="st4" cx="54.11" cy="42.99" r="2.06"/>
<circle class="st4" cx="75.26" cy="42.99" r="2.06"/>
<path class="st5" d="M65.45,57.16H64.3c-1.1,0-2-0.9-2-2v-4.84c0-1.1,0.9-2,2-2h1.15c1.1,0,2,0.9,2,2v4.84
	C67.45,56.26,66.55,57.16,65.45,57.16z"/>
<path class="st6" d="M86.6,163.57H43.29c-3.49,0-6.35-2.86-6.35-6.35v-55.66c0-3.49,2.86-6.35,6.35-6.35H86.6
	c3.49,0,6.35,2.86,6.35,6.35v55.66C92.95,160.71,90.09,163.57,86.6,163.57z"/>
<g>
	<path class="st7" d="M110.1,259.83H67.93V236.5H92.1c9.9,0,18,8.1,18,18V259.83z"/>
	<rect x="67.93" y="255.93" class="st7" width="42.17" height="3.9"/>
	<rect x="67.93" y="257.88" class="st7" width="42.17" height="0.98"/>
	<g>
		<path class="st7" d="M93.52,238.2c0.45,1.54-0.17,3.24-1.21,4.47c-1.04,1.22-2.46,2.06-3.85,2.86"/>
		<g>
			<path class="st8" d="M92.56,238.47c0.17,0.62,0.14,1.17-0.05,1.82c-0.18,0.59-0.55,1.25-0.95,1.72c-1,1.15-2.29,1.9-3.61,2.66
				c-0.47,0.27-0.63,0.91-0.36,1.37c0.28,0.47,0.9,0.63,1.37,0.36c1.57-0.89,3.16-1.86,4.28-3.3c1.13-1.45,1.74-3.33,1.24-5.16
				c-0.14-0.52-0.71-0.84-1.23-0.7C92.73,237.38,92.42,237.94,92.56,238.47L92.56,238.47z"/>
		</g>
	</g>
	<g>
		<path class="st7" d="M99.74,239.84c0.45,1.54-0.17,3.24-1.21,4.47c-1.04,1.22-2.46,2.06-3.85,2.86"/>
		<g>
			<path class="st8" d="M98.77,240.11c0.17,0.62,0.14,1.17-0.05,1.82c-0.18,0.59-0.55,1.25-0.95,1.72c-1,1.15-2.29,1.9-3.61,2.66
				c-0.47,0.27-0.63,0.91-0.36,1.37c0.28,0.47,0.9,0.63,1.37,0.36c1.57-0.89,3.16-1.86,4.28-3.3c1.13-1.45,1.74-3.33,1.24-5.16
				c-0.14-0.52-0.71-0.84-1.23-0.7C98.95,239.02,98.63,239.59,98.77,240.11L98.77,240.11z"/>
		</g>
	</g>
	<g>
		<path class="st7" d="M103.95,243.03c0.45,1.54-0.17,3.24-1.21,4.47c-1.04,1.22-2.46,2.06-3.85,2.86"/>
		<g>
			<path class="st8" d="M102.99,243.3c0.17,0.62,0.14,1.17-0.05,1.82c-0.18,0.59-0.55,1.25-0.95,1.72c-1,1.15-2.29,1.9-3.61,2.66
				c-0.47,0.27-0.63,0.91-0.36,1.37c0.28,0.47,0.9,0.63,1.37,0.36c1.57-0.89,3.16-1.86,4.28-3.3c1.13-1.45,1.74-3.33,1.24-5.16
				c-0.14-0.52-0.71-0.84-1.23-0.7C103.16,242.21,102.85,242.77,102.99,243.3L102.99,243.3z"/>
		</g>
	</g>
</g>
<path class="st9" d="M83.7,231.23H67.93V162.5c0-3.3,2.7-6,6-6h3.77c3.3,0,6,2.7,6,6V231.23z"/>
<rect x="67.93" y="218.02" class="st10" width="15.77" height="14.95"/>
<g>
	<path class="st7" d="M18.03,259.83H60.2V236.5H36.03c-9.9,0-18,8.1-18,18V259.83z"/>
	
		<rect x="18.03" y="255.93" transform="matrix(-1 -4.494994e-11 4.494994e-11 -1 78.2314 515.7692)" class="st7" width="42.17" height="3.9"/>
	
		<rect x="18.03" y="257.88" transform="matrix(-1 -4.482071e-11 4.482071e-11 -1 78.2314 516.7443)" class="st7" width="42.17" height="0.98"/>
	<g>
		<path class="st7" d="M34.61,238.2c-0.45,1.54,0.17,3.24,1.21,4.47s2.46,2.06,3.85,2.86"/>
		<g>
			<path class="st8" d="M33.64,237.94c-0.5,1.82,0.11,3.7,1.24,5.16c1.12,1.44,2.72,2.41,4.28,3.3c0.47,0.27,1.09,0.11,1.37-0.36
				c0.27-0.46,0.11-1.1-0.36-1.37c-1.32-0.75-2.61-1.5-3.61-2.66c-0.39-0.45-0.76-1.09-0.93-1.66c-0.1-0.34-0.16-0.6-0.17-0.88
				c-0.02-0.41,0-0.61,0.11-1c0.14-0.52-0.18-1.09-0.7-1.23C34.35,237.09,33.79,237.41,33.64,237.94L33.64,237.94z"/>
		</g>
	</g>
	<g>
		<path class="st7" d="M28.39,239.84c-0.45,1.54,0.17,3.24,1.21,4.47c1.04,1.22,2.46,2.06,3.85,2.86"/>
		<g>
			<path class="st8" d="M27.43,239.58c-0.5,1.82,0.11,3.7,1.24,5.16c1.12,1.44,2.72,2.41,4.28,3.3c0.47,0.27,1.09,0.11,1.37-0.36
				c0.27-0.46,0.11-1.1-0.36-1.37c-1.32-0.75-2.61-1.5-3.61-2.66c-0.39-0.45-0.76-1.09-0.93-1.66c-0.1-0.34-0.16-0.6-0.17-0.88
				c-0.02-0.41,0-0.61,0.11-1c0.14-0.52-0.18-1.09-0.7-1.23C28.14,238.74,27.57,239.05,27.43,239.58L27.43,239.58z"/>
		</g>
	</g>
	<g>
		<path class="st7" d="M24.18,243.03c-0.45,1.54,0.17,3.24,1.21,4.47c1.04,1.22,2.46,2.06,3.85,2.86"/>
		<g>
			<path class="st8" d="M23.21,242.77c-0.5,1.82,0.11,3.7,1.24,5.16c1.12,1.44,2.72,2.41,4.28,3.3c0.47,0.27,1.09,0.11,1.37-0.36
				c0.27-0.46,0.11-1.1-0.36-1.37c-1.32-0.75-2.61-1.5-3.61-2.66c-0.39-0.45-0.76-1.09-0.93-1.66c-0.1-0.34-0.16-0.6-0.17-0.88
				c-0.02-0.41,0-0.61,0.11-1c0.14-0.52-0.18-1.09-0.7-1.23C23.92,241.92,23.36,242.24,23.21,242.77L23.21,242.77z"/>
		</g>
	</g>
</g>
<path class="st9" d="M44.43,232.39H60.2V162.5c0-3.3-2.7-6-6-6h-3.77c-3.3,0-6,2.7-6,6V232.39z"/>
<rect x="44.43" y="219.1" transform="matrix(-1 -3.299106e-11 3.299106e-11 -1 104.6292 452.2202)" class="st11" width="15.77" height="14.02"/>
<rect x="35.8" y="155.8" class="st8" width="56" height="7.77"/>
<polygon class="st1" points="64.83,105.03 54.07,94.87 75.82,94.87 "/>
<rect x="44.44" y="224.89" class="st7" width="15.75" height="14.95"/>
<rect x="67.94" y="224.89" class="st7" width="15.75" height="14.95"/>
<path class="st12" d="M68.33,165.13h-7.44c-2.06,0-3.74-1.68-3.74-3.74v-3.96c0-2.06,1.68-3.74,3.74-3.74h7.44
	c2.06,0,3.74,1.68,3.74,3.74v3.96C72.07,163.44,70.38,165.13,68.33,165.13z"/>
<path class="st1" d="M36.88,164.56c-0.75,5.13-5.61,8.67-10.87,7.91c-5.25-0.76-8.91-5.55-8.16-10.68c0.31-2.13,1.33-3.98,2.78-5.37
	l2.02-13.85c0.5-3.46,3.82-5.87,7.35-5.35l3.11,0.45c3.54,0.52,6.02,3.77,5.52,7.23l-2.21,15.17
	C36.93,161.46,37.11,162.98,36.88,164.56z"/>
<path class="st6" d="M38.79,98.66l-3.1-0.45c-3.54-0.52-7.61,7.1-9.04,16.93l-4.14,28.44l15.98,2.33l4.14-28.44
	C44.06,107.64,42.33,99.18,38.79,98.66z"/>
<path class="st1" d="M110.63,161.51c0.53,5.15-3.22,9.76-8.38,10.29c-5.15,0.53-9.76-3.22-10.29-8.37
	c-0.09-0.84-0.06-1.65,0.07-2.44l-2.08-20.14c-0.36-3.47,2.19-6.61,5.68-6.97l3.04-0.31c3.47-0.36,6.61,2.19,6.97,5.67l1.65,16.02
	C109.11,156.76,110.37,158.95,110.63,161.51z"/>
<path class="st6" d="M95.21,99.97l-3.05,0.31c-3.48,0.36-5.52,8.41-4.54,17.9l2.83,27.45l15.69-1.62l-2.83-27.45
	C102.33,107.08,98.68,99.62,95.21,99.97z"/>
<path class="st13" d="M45.76,229.75h13.1c1.66,0,3-1.34,3-3v-1.29c0-1.66-1.34-3-3-3h-13.1c-1.66,0-3,1.34-3,3v1.29
	C42.76,228.41,44.11,229.75,45.76,229.75z"/>
<path class="st13" d="M82.37,229.76H69.26c-1.66,0-3-1.34-3-3v-1.29c0-1.66,1.34-3,3-3h13.11c1.66,0,3,1.34,3,3v1.29
	C85.37,228.41,84.03,229.76,82.37,229.76z"/>
<ellipse class="st14" cx="64.94" cy="70.61" rx="5.89" ry="3.46"/>
<g>
	<g>
		<g>
			<g>
				<path class="st15" d="M99.71,29.36c0,0-0.16,0.09-0.45,0.25c-0.3,0.16-0.75,0.37-1.37,0.58c-1.23,0.4-3.15,0.83-5.65,0.44
					c-1.44-0.23-3.04-0.77-4.61-1.73c-0.39-0.24-0.79-0.51-1.16-0.79l-0.55-0.43c-0.18-0.13-0.39-0.33-0.46-0.33
					c-0.43-0.21-0.83-0.39-1.25-0.51c-0.83-0.25-1.76-0.11-2.5,0.2c-0.37,0.15-0.7,0.34-0.97,0.53c-0.03,0.05-0.17,0.09-0.33,0.14
					l-0.45,0.13c-0.32,0.09-0.63,0.18-0.95,0.28c-5.67,1.49-10.82,2.77-13.07,2.78c-6.42,0-11.81-4.56-12.03-10.43
					C53.7,14.61,59.08,9.65,65.94,9.66c2.41,0,7.74,1.33,13.69,3.25c0.88,0.27,1.77,0.55,2.67,0.83c1.19,0.35,2.34,0.77,3.4,1.29
					c2.13,1.02,3.93,2.55,5.08,4.42c0.58,0.93,1.01,1.91,1.39,2.85c0.13,0.29,0.13,0.37,0.16,0.52l0.09,0.39
					c0.06,0.25,0.12,0.48,0.2,0.72c0.31,0.95,0.85,1.85,1.52,2.58c1.14,1.25,2.63,2.02,3.73,2.41c0.55,0.19,1.01,0.3,1.34,0.36
					C99.53,29.33,99.71,29.36,99.71,29.36z"/>
			</g>
		</g>
	</g>
	<g>
		<g>
			<g>
				<path class="st16" d="M54.35,13.17c-1.79,0.38-3.81,1.18-4.63,2.96c-0.47,1.03-0.45,2.15-0.03,3.2
					c0.42,1.04,1.17,1.84,1.66,2.83c0.27,0.55,0.45,1.08-0.16,1.37c-0.83,0.39-1.8,0.49-2.66,0.83c-2.03,0.8-3.84,2.04-5.28,3.68
					c-0.53,0.61-0.6,1.52,0,2.12c0.54,0.54,1.59,0.61,2.12,0c1.24-1.42,2.8-2.55,4.6-3.15c1.85-0.62,4.1-0.95,4.55-3.25
					c0.22-1.13-0.11-2.23-0.64-3.22c-0.44-0.82-1.19-1.53-1.46-2.43c-0.41-1.35,1.6-1.81,2.71-2.05c0.79-0.17,1.25-1.1,1.05-1.85
					C55.97,13.4,55.14,13,54.35,13.17L54.35,13.17z"/>
			</g>
		</g>
		<g>
			<g>
				<path class="st16" d="M57.03,22.99c-4.34-0.82-8.73-0.86-13.08-0.12c-0.8,0.14-1.25,1.12-1.05,1.85
					c0.23,0.85,1.04,1.18,1.85,1.05c3.79-0.64,7.71-0.59,11.49,0.12c0.8,0.15,1.62-0.22,1.85-1.05
					C58.28,24.1,57.83,23.14,57.03,22.99L57.03,22.99z"/>
			</g>
		</g>
		<g>
			<g>
				<path class="st16" d="M56.43,23.56c0.77-2.38-0.87-4.88-3.04-5.81c-2.69-1.15-5.52-0.11-7.98,1.12c-0.7,0.35-0.96,1.4-0.54,2.05
					c0.46,0.72,1.3,0.91,2.05,0.54c0.24-0.12,0.48-0.24,0.72-0.35c0.26-0.12,0.4-0.18,0.53-0.23c0.47-0.19,0.95-0.35,1.44-0.47
					c0.23-0.06,0.46-0.11,0.69-0.14c-0.26,0.04,0.22-0.01,0.22-0.01c0.1-0.01,0.21-0.01,0.31-0.01c0.13,0,0.26,0,0.39,0.01
					c0.08,0,0.35,0.03,0.15,0c0.22,0.03,0.42,0.09,0.63,0.15c0.15,0.04,0.11,0.04-0.01-0.02c0.1,0.04,0.19,0.09,0.28,0.14
					c0.09,0.05,0.18,0.1,0.27,0.16c0.03,0.02,0.32,0.21,0.16,0.1c-0.16-0.11,0.14,0.12,0.14,0.12c0.08,0.07,0.15,0.14,0.22,0.22
					c0.07,0.07,0.14,0.15,0.21,0.23c-0.09-0.09-0.1-0.14-0.01-0.01c0.11,0.17,0.21,0.34,0.3,0.52c-0.09-0.18-0.05-0.13,0,0.03
					c0.03,0.09,0.05,0.19,0.07,0.28c0.05,0.19-0.01,0.06,0-0.05c-0.01,0.09,0.01,0.2,0.01,0.29c0,0.19-0.04,0.19,0.01,0.01
					c-0.03,0.12-0.06,0.23-0.1,0.35c-0.24,0.75,0.28,1.67,1.05,1.85C55.41,24.8,56.18,24.36,56.43,23.56L56.43,23.56z"/>
			</g>
		</g>
		<g>
			<g>
				<path class="st16" d="M55.05,18.26c-0.86-2.36-2.91-4.05-5.42-4.35c-2.42-0.29-4.83,1-6.13,3.02c-0.42,0.66-0.16,1.68,0.54,2.05
					c0.74,0.39,1.6,0.17,2.05-0.54c0.06-0.09,0.12-0.18,0.18-0.27c0.09-0.14-0.15,0.15,0.04-0.05c0.15-0.15,0.3-0.31,0.45-0.45
					c0.1-0.09,0.11-0.09,0-0.01c0.09-0.06,0.17-0.12,0.26-0.18c0.18-0.12,0.37-0.22,0.56-0.32c0.07-0.03,0.33-0.12,0.05-0.03
					c0.08-0.03,0.16-0.06,0.24-0.09c0.2-0.07,0.41-0.11,0.62-0.16c0.39-0.08-0.18,0,0.04-0.01c0.11,0,0.21-0.02,0.32-0.02
					c0.22-0.01,0.43,0.01,0.64,0.03c-0.13-0.01-0.19-0.03-0.03,0c0.1,0.02,0.2,0.04,0.3,0.07c0.1,0.03,0.2,0.06,0.3,0.09
					c0.04,0.01,0.36,0.14,0.17,0.06c-0.19-0.08,0.16,0.08,0.16,0.08c0.09,0.05,0.18,0.1,0.27,0.15c0.09,0.05,0.18,0.11,0.26,0.17
					c0.12,0.08,0.11,0.07,0-0.01c0.16,0.13,0.32,0.27,0.47,0.42c0.07,0.07,0.14,0.15,0.21,0.23c0.05,0.05,0.2,0.29,0.04,0.04
					c0.1,0.16,0.21,0.31,0.3,0.47c0.05,0.09,0.1,0.19,0.14,0.28c0.15,0.28-0.08-0.22,0.04,0.11c0.27,0.74,1.03,1.31,1.85,1.05
					C54.72,19.87,55.34,19.05,55.05,18.26L55.05,18.26z"/>
			</g>
		</g>
		<g>
			<g>
				<path class="st16" d="M57.37,12.57c-4.91-3.81-12.51-3.36-16.69,1.4c-0.53,0.61-0.6,1.52,0,2.12c0.54,0.54,1.58,0.61,2.12,0
					c3.01-3.43,8.77-4.25,12.45-1.4c0.64,0.5,1.5,0.62,2.12,0C57.89,14.18,58.02,13.07,57.37,12.57L57.37,12.57z"/>
			</g>
		</g>
		<g>
			<g>
				<path class="st16" d="M50.48,12.2c-2.52,0.1-5.2,0.32-7.43,1.61c-1.15,0.67-2.16,1.66-2.74,2.86c-0.7,1.43-0.93,3-0.94,4.58
					c-0.01,0.78,0.7,1.54,1.5,1.5c0.82-0.04,1.49-0.66,1.5-1.5c0-0.32,0.01-0.64,0.04-0.97c0.01-0.16,0.03-0.32,0.05-0.48
					c-0.03,0.24,0.04-0.23,0.04-0.24c0.11-0.57,0.26-1.1,0.44-1.45c0.14-0.27,0.29-0.53,0.48-0.77c-0.19,0.25,0.08-0.08,0.1-0.1
					c0.09-0.1,0.18-0.19,0.27-0.28c0.09-0.09,0.19-0.17,0.29-0.26c-0.16,0.14-0.05,0.03,0.06-0.04c0.21-0.15,0.43-0.28,0.66-0.4
					c0.1-0.05,0.19-0.1,0.29-0.15c0.09-0.04,0.37-0.15,0.12-0.06c0.25-0.1,0.5-0.19,0.76-0.26c0.5-0.15,1.02-0.27,1.53-0.35
					c0.11-0.02,0.23-0.04,0.34-0.05c0.36-0.06-0.18,0.01,0.15-0.02c0.28-0.03,0.55-0.06,0.83-0.08c0.55-0.05,1.1-0.07,1.65-0.1
					c0.78-0.03,1.54-0.67,1.5-1.5C51.95,12.92,51.32,12.17,50.48,12.2L50.48,12.2z"/>
			</g>
		</g>
		<g>
			<g>
				<path class="st16" d="M42.72,16.18c-1.6,2.19-2.45,4.9-2.48,7.6c-0.01,0.78,0.7,1.54,1.5,1.5c0.82-0.04,1.49-0.66,1.5-1.5
					c0-0.31,0.02-0.62,0.04-0.93c0.01-0.15,0.02-0.31,0.05-0.46c-0.07,0.38,0,0.03,0.01-0.06c0.1-0.59,0.25-1.18,0.44-1.75
					c0.04-0.13,0.09-0.26,0.14-0.38c0.03-0.07,0.21-0.55,0.06-0.18c0.11-0.27,0.24-0.53,0.37-0.79c0.28-0.53,0.6-1.04,0.95-1.53
					c0.47-0.64,0.13-1.7-0.54-2.05C44,15.23,43.22,15.5,42.72,16.18L42.72,16.18z"/>
			</g>
		</g>
		<g>
			<g>
				<path class="st16" d="M41.4,16.99c-1.31,3.95-1.31,8.31,0,12.26c0.25,0.77,1.04,1.27,1.85,1.05c0.75-0.21,1.3-1.07,1.05-1.85
					c-1.15-3.48-1.15-7.18,0-10.66c0.25-0.77-0.29-1.64-1.05-1.85C42.43,15.72,41.66,16.22,41.4,16.99L41.4,16.99z"/>
			</g>
		</g>
		<g>
			<g>
				<path class="st16" d="M46.63,15.95c-2.05,2-3.59,4.48-4.48,7.21c-0.63,1.92-0.87,4.65-2.51,5.78c-0.67,0.46-0.97,1.32-0.54,2.05
					c0.39,0.66,1.38,1,2.05,0.54c2.27-1.57,2.91-4.13,3.61-6.65c0.73-2.6,2.04-4.91,3.98-6.8C50.14,16.72,48.01,14.6,46.63,15.95
					L46.63,15.95z"/>
			</g>
		</g>
		<g>
			<g>
				<path class="st16" d="M40.17,23.43c0.03,0.11,0.05,0.22,0.08,0.34c0.03,0.13,0.04,0.51,0.02,0.03c0.01,0.23,0.04,0.46,0.05,0.69
					c0,0.23-0.01,0.46-0.03,0.69c-0.01,0.06-0.01,0.11-0.02,0.17c0.04-0.26,0.04-0.3,0.02-0.14c-0.02,0.1-0.03,0.2-0.06,0.3
					c-0.04,0.21-0.1,0.42-0.17,0.63c-0.03,0.11-0.07,0.22-0.11,0.33c-0.02,0.05-0.04,0.11-0.06,0.16c0.1-0.23,0.11-0.27,0.05-0.12
					c-0.1,0.21-0.2,0.41-0.32,0.61c-0.06,0.1-0.12,0.2-0.19,0.29c-0.06,0.08-0.31,0.42-0.02,0.04c-0.26,0.33-0.44,0.63-0.44,1.06
					c0,0.37,0.16,0.81,0.44,1.06c0.29,0.26,0.66,0.46,1.06,0.44c0.37-0.02,0.82-0.13,1.06-0.44c0.76-0.97,1.34-2.04,1.6-3.26
					c0.26-1.22,0.25-2.45-0.06-3.66c-0.19-0.76-1.09-1.29-1.85-1.05C40.43,21.84,39.96,22.61,40.17,23.43L40.17,23.43z"/>
			</g>
		</g>
		<g>
			<g>
				<path class="st16" d="M41.54,20.93c-0.6,0.48-1.2,0.96-1.8,1.43c-0.15,0.14-0.25,0.3-0.31,0.48c-0.09,0.18-0.14,0.37-0.13,0.58
					c-0.01,0.21,0.04,0.4,0.13,0.58c0.06,0.19,0.16,0.35,0.31,0.48c0.29,0.26,0.66,0.46,1.06,0.44c0.13-0.02,0.27-0.04,0.4-0.05
					c0.25-0.07,0.47-0.2,0.66-0.39c0.6-0.48,1.2-0.96,1.8-1.43c0.15-0.14,0.25-0.3,0.31-0.48c0.09-0.18,0.14-0.37,0.13-0.58
					c0.01-0.21-0.04-0.4-0.13-0.58c-0.06-0.19-0.16-0.35-0.31-0.48c-0.29-0.26-0.66-0.46-1.06-0.44c-0.13,0.02-0.27,0.04-0.4,0.05
					C41.95,20.62,41.72,20.75,41.54,20.93L41.54,20.93z"/>
			</g>
		</g>
		<g>
			<g>
				<path class="st16" d="M44.55,28.2c1.31-0.82,2.49-1.86,3.69-2.84c1.23-1.01,2.46-2.01,3.69-3.02c1.16-0.95-0.09-2.97-1.46-2.51
					c-2.32,0.79-4.65,1.58-6.97,2.37c0.49,0.84,0.97,1.67,1.46,2.51c2.8-3.22,5.59-6.43,8.39-9.65c0.53-0.61,0.6-1.52,0-2.12
					c-0.54-0.54-1.59-0.61-2.12,0c-2.8,3.22-5.59,6.43-8.39,9.65c-0.44,0.51-0.59,1.21-0.23,1.82c0.32,0.55,1.07,0.9,1.69,0.69
					c2.32-0.79,4.65-1.58,6.97-2.37c-0.49-0.84-0.97-1.67-1.46-2.51c-1.17,0.95-2.33,1.9-3.5,2.86c-1.07,0.87-2.11,1.79-3.27,2.53
					C41.4,26.63,42.9,29.23,44.55,28.2L44.55,28.2z"/>
			</g>
		</g>
		<g>
			<g>
				<path class="st16" d="M53.21,15.51c0.34,0.57,0.64,1.16,0.91,1.77c-0.13-0.3,0.04,0.1,0.05,0.13c0.06,0.17,0.13,0.33,0.18,0.5
					c0.1,0.29,0.2,0.59,0.28,0.89c0.17,0.6,0.29,1.2,0.39,1.82c0.03,0.18,0.03,0.18,0,0c0.01,0.09,0.02,0.18,0.03,0.26
					c0.01,0.13,0.03,0.26,0.04,0.4c0.03,0.35,0.04,0.71,0.05,1.06c0.01,0.78,0.68,1.54,1.5,1.5c0.8-0.04,1.51-0.66,1.5-1.5
					C58.1,19.41,57.3,16.51,55.8,14c-0.4-0.67-1.37-0.98-2.05-0.54C53.07,13.9,52.78,14.79,53.21,15.51L53.21,15.51z"/>
			</g>
		</g>
		<g>
			<g>
				<path class="st16" d="M40.5,13.33c-2.18,2.06-2.79,5.11-2.79,8c0,3.12,0.73,6.32-0.47,9.32c-0.3,0.75,0.33,1.65,1.05,1.85
					c0.86,0.24,1.54-0.29,1.85-1.05c1.17-2.92,0.73-6.06,0.6-9.11c-0.1-2.4,0.04-5.13,1.89-6.89C44.03,14.12,41.91,12,40.5,13.33
					L40.5,13.33z"/>
			</g>
		</g>
	</g>
</g>
<path class="st3" d="M89.83,56.51h3.15c1.1,0,2-0.9,2-2v-7.46c0-1.1-0.9-2-2-2h-3.15V56.51z"/>
<path class="st17" d="M93.47,60.01c0,0-7,3.86-15.25,2.65c-4.86-0.71-11.71,1.79-13.27,3.79c-1.57-2-8.42-4.51-13.28-3.79
	c-8.26,1.21-15.26-2.65-15.26-2.65s6.81,7.3,12.5,8.49c4.91,1.03,14.03,2.61,16.04-0.41c2,3.01,11.11,1.44,16.03,0.41
	C86.66,67.31,93.47,60.01,93.47,60.01z"/>
<polygon class="st18" points="70,143.93 64.61,149.43 59.21,144.18 61.14,108.75 61.14,108.74 60.34,108.05 64.19,103.73 
	68.06,108.26 67.34,108.86 "/>
<path class="st19" d="M234.02,129.59H130.51c-3.85,0-7-3.15-7-7V59.74c0-3.85,3.15-7,7-7h103.51c3.85,0,7,3.15,7,7v62.85
	C241.02,126.44,237.87,129.59,234.02,129.59z"/>
<rect x="130.6" y="60.01" class="st20" width="70.79" height="55.35"/>
<g>
	<rect x="130.6" y="60.01" class="st21" width="70.79" height="55.35"/>
	<line class="st21" x1="130.6" y1="106.14" x2="201.39" y2="106.14"/>
	<line class="st21" x1="130.6" y1="96.91" x2="201.39" y2="96.91"/>
	<line class="st21" x1="130.6" y1="87.69" x2="201.39" y2="87.69"/>
	<line class="st21" x1="130.6" y1="78.46" x2="201.39" y2="78.46"/>
	<line class="st21" x1="130.6" y1="69.24" x2="201.39" y2="69.24"/>
	<line class="st21" x1="189.59" y1="60.01" x2="189.59" y2="115.36"/>
	<line class="st21" x1="177.79" y1="60.01" x2="177.79" y2="115.36"/>
	<line class="st21" x1="165.99" y1="60.01" x2="165.99" y2="115.36"/>
	<line class="st21" x1="154.2" y1="60.01" x2="154.2" y2="115.36"/>
	<line class="st21" x1="142.4" y1="60.01" x2="142.4" y2="115.36"/>
</g>
<circle class="st22" cx="211.35" cy="64.93" r="4.44"/>
<circle class="st23" cx="230.3" cy="64.93" r="4.44"/>
<circle class="st24" cx="211.35" cy="78.46" r="4.44"/>
<circle class="st25" cx="230.3" cy="78.46" r="4.44"/>
<path class="st0" d="M230.84,104.81h-20.02c-2.15,0-3.9-1.75-3.9-3.9V89.55c0-2.15,1.75-3.9,3.9-3.9h20.02c2.15,0,3.9,1.75,3.9,3.9
	v11.36C234.74,103.06,232.98,104.81,230.84,104.81z"/>
<path class="st0" d="M232.44,115.36h-23.23c-1.26,0-2.3-1.03-2.3-2.3v-3.2c0-1.26,1.03-2.3,2.3-2.3h23.23c1.26,0,2.3,1.03,2.3,2.3
	v3.2C234.74,114.33,233.7,115.36,232.44,115.36z"/>
<circle class="st26" cx="220.82" cy="111.46" r="2.22"/>
<circle class="st24" cx="228.08" cy="111.46" r="2.22"/>
<circle class="st27" cx="213.62" cy="111.46" r="2.22"/>
<path class="st0" d="M197.91,126.28h-63.82c-1.92,0-3.48-1.57-3.48-3.48v0c0-1.92,1.57-3.48,3.48-3.48h63.82
	c1.92,0,3.48,1.57,3.48,3.48v0C201.39,124.71,199.82,126.28,197.91,126.28z"/>
<g>
	<path class="st28" d="M130.53,72.69c7.06-0.03,7.19,29.97,14.25,29.94c7.06-0.03,6.93-30.03,13.99-30.06
		c7.06-0.03,7.19,29.97,14.25,29.94c7.06-0.03,6.93-30.03,13.99-30.06c7.06-0.03,7.19,29.97,14.26,29.94"/>
</g>
<g>
	<g>
		<path class="st29" d="M213.62,110.42c-2.05-0.13-3.48,1.65-3.78,3.54c-0.41,2.56,1.43,4.58,2.17,6.88
			c0.77,2.38,0.45,5.54-1.48,7.31c-0.8,0.74-2.02,1.25-2.96,0.46c-0.76-0.63-1.02-1.92-0.36-2.71c0.59-0.71,1.78-0.92,2.59-0.53
			c1.27,0.62,1.52,2.37,1.46,3.62c-0.12,2.52-1.7,4.77-3.97,5.82c-4.53,2.11-9.9,0.08-14.67,0.53c-2.45,0.24-4.88,0.97-6.68,2.72
			c-0.95,0.92-1.57,2.12-2.54,3.02c-0.7,0.65-2.21,1.3-2.78,0.16c-0.61-1.22-2.45-0.15-1.84,1.07c1.22,2.43,4.46,1.84,6.11,0.27
			c1-0.95,1.65-2.21,2.67-3.14c1.21-1.11,2.81-1.65,4.41-1.89c5.94-0.9,12.76,2.17,18.01-1.91c2.32-1.8,3.65-4.81,3.37-7.74
			c-0.26-2.72-2.12-5.19-5.08-4.79c-2.5,0.34-4.14,2.68-3.37,5.14c0.8,2.57,3.6,3.57,5.91,2.3c2.97-1.63,4.04-5.52,3.6-8.68
			c-0.27-1.94-1.26-3.49-2.01-5.26c-0.52-1.22-0.92-4.21,1.23-4.08C214.99,112.63,214.98,110.5,213.62,110.42L213.62,110.42z"/>
	</g>
</g>
<g>
	<g>
		<path class="st30" d="M219.23,111.06c-0.94,3.77-1.4,8.49,2.63,10.64c0.87,0.46,1.81,0.76,2.6,1.36c0.61,0.46,1.63,1.32,1.66,2.14
			c0.03,0.79-0.94,1.52-1.43,2c-0.62,0.61-1.26,1.19-1.86,1.81c-2.61,2.71-3.61,6.06-2.03,9.62c1.65,3.68,5.3,5.67,8.74,7.38
			c1.72,0.86,3.24-1.73,1.51-2.59c-3.03-1.51-6.64-3.22-7.79-6.68c-1.19-3.59,1.89-5.67,4.07-7.94c1.14-1.19,2.1-2.63,1.69-4.37
			c-0.39-1.65-1.7-3.02-3.04-3.97c-1.42-1.01-3.44-1.26-4.16-3.03c-0.73-1.78-0.14-3.82,0.3-5.59
			C222.59,109.99,219.7,109.19,219.23,111.06L219.23,111.06z"/>
	</g>
</g>
<g>
	<g>
		<path class="st31" d="M228.28,113.07c1.31,0.22,2.58,0.2,3.91,0.1c1.21-0.09,2.59-0.3,3.75,0.15c1.23,0.47,1.83,1.69,2.43,2.77
			c0.66,1.19,1.37,2.32,2.2,3.39c2.84,3.67,8.62,8.7,13.19,4.66c1.84-1.63,2.22-4.37,0.59-6.28c-1.71-1.99-4.69-2.13-6.81-0.73
			c-4.57,3.02-3.32,9.39-0.19,12.93c0.97,1.1,2.12,2.02,3.31,2.88c1.01,0.73,2.88,1.47,3.43,2.63c0.31,0.65,0.15,1.59,0.2,2.28
			c0.05,0.66,0.14,1.32,0.31,1.96c0.42,1.54,1.25,2.9,2.34,4.05c1.32,1.41,3.44-0.71,2.12-2.12c-0.69-0.73-1.21-1.57-1.51-2.54
			c-0.33-1.09-0.22-2.17-0.35-3.29c-0.25-2.26-1.76-3.36-3.53-4.53c-3.09-2.04-7.02-5.18-6.02-9.41c0.38-1.61,2.17-3.58,3.96-2.54
			c1.84,1.06,0.12,3.03-1.4,3.18c-2.17,0.21-4.21-1.65-5.62-3.07c-1.52-1.53-2.68-3.26-3.73-5.13c-1.1-1.98-2.51-3.69-4.84-4.17
			c-2.31-0.47-4.64,0.33-6.95-0.06C227.19,109.86,226.37,112.75,228.28,113.07L228.28,113.07z"/>
	</g>
</g>
<path class="st0" d="M178.7,143.21l-3.06-3.51c-0.21-0.24-0.19-0.61,0.06-0.83l1.36-1.18c0.24-0.21,0.61-0.19,0.83,0.06l3.06,3.51
	c0.21,0.24,0.19,0.61-0.06,0.83l-1.36,1.18C179.29,143.48,178.91,143.45,178.7,143.21z"/>
<path class="st0" d="M233.24,147.64l-4.33-1.71c-0.3-0.12-0.45-0.46-0.33-0.76l1.2-3.02c0.12-0.3,0.46-0.45,0.76-0.33l4.33,1.71
	c0.3,0.12,0.45,0.46,0.33,0.76l-1.2,3.02C233.88,147.61,233.54,147.76,233.24,147.64z"/>
<path class="st0" d="M259.08,147.19l-3.06-3.51c-0.21-0.24-0.19-0.61,0.06-0.83l2.45-2.14c0.24-0.21,0.61-0.19,0.83,0.06l3.06,3.51
	c0.21,0.24,0.19,0.61-0.06,0.83l-2.45,2.14C259.66,147.46,259.29,147.44,259.08,147.19z"/>
<path class="st19" d="M154.18,186.81h-5.53c-3.85,0-6.97-3.12-6.97-6.97v-12.51h19.48v12.51
	C161.15,183.69,158.03,186.81,154.18,186.81z"/>
<rect x="144.55" y="159.05" class="st32" width="2.54" height="8.28"/>
<rect x="156.06" y="159.05" class="st32" width="2.54" height="8.28"/>
<rect x="150.3" y="157.16" class="st32" width="2.54" height="10.17"/>
<path class="st33" d="M223.06,204.53h-35.1c-3.3,0-6-2.7-6-6v-26.84c0-3.3,2.7-6,6-6h35.1c3.3,0,6,2.7,6,6v26.84
	C229.06,201.83,226.36,204.53,223.06,204.53z"/>
<rect x="214.19" y="187.69" class="st0" width="2.52" height="8.42"/>
<polygon class="st0" points="225.47,180.14 223.69,182.1 218.28,176.15 220.06,174.19 "/>
<polygon class="st0" points="206.58,182.1 204.8,180.14 210.2,174.19 211.98,176.15 "/>
<path class="st34" d="M196.44,192.48h-4.53c-1.1,0-2-0.9-2-2v-8.03c0-1.1,0.9-2,2-2h4.53c1.1,0,2,0.9,2,2v8.03
	C198.44,191.58,197.54,192.48,196.44,192.48z"/>
<path class="st35" d="M194.59,185.73h-0.84c-0.86,0-1.57-0.7-1.57-1.57l0,0c0-0.86,0.7-1.57,1.57-1.57h0.84
	c0.86,0,1.57,0.7,1.57,1.57l0,0C196.16,185.02,195.45,185.73,194.59,185.73z"/>
</svg>
