<?xml version="1.0" encoding="utf-8"?>
<!-- Generator: Adobe Illustrator 24.0.1, SVG Export Plug-In . SVG Version: 6.00 Build 0)  -->
<svg version="1.1" id="Layer_1" xmlns="http://www.w3.org/2000/svg" xmlns:xlink="http://www.w3.org/1999/xlink" x="0px" y="0px"
	 viewBox="0 0 280 270" style="enable-background:new 0 0 280 270;" xml:space="preserve">
<style type="text/css">
	.st0{fill:#0E0F23;}
	.st1{fill:#AD662B;}
	.st2{fill:#AD882E;}
	.st3{fill:#AD6348;}
	.st4{fill:#EAAD7E;}
	.st5{fill:#D2BE6A;}
	.st6{fill:#FFFAEC;}
	.st7{fill:#DEBE24;}
	.st8{fill:#231F20;}
	.st9{fill:#FEF1EC;}
	.st10{fill:#22110E;}
	.st11{fill:#635825;}
	.st12{fill:#11112D;}
	.st13{fill:#F7F9E8;stroke:#040404;stroke-width:2.8346;stroke-miterlimit:10;}
	.st14{fill:#CCCCCC;stroke:#333333;stroke-miterlimit:10;}
	.st15{fill:#333333;}
	.st16{fill:#4E4E4E;}
	.st17{fill:#010101;}
	.st18{fill:#1A1A1A;}
	.st19{fill:#2C2A38;}
	.st20{fill:#7E2D18;}
	.st21{fill:#802A1F;}
	.st22{fill:#AD8763;}
	.st23{fill:#EFCFE3;stroke:#010101;stroke-width:2.8346;stroke-miterlimit:10;}
	.st24{fill:#FFFFFF;stroke:#010101;stroke-miterlimit:10;}
	.st25{fill:#F69320;}
	.st26{fill:#DDADCF;}
	.st27{fill:#E31F44;}
	.st28{fill:#F39984;}
	.st29{fill:#C49C2D;stroke:#040404;stroke-width:0.75;stroke-miterlimit:10;}
	.st30{fill:#0E0E1A;}
	.st31{fill:#012E27;}
	.st32{fill:#B5E1E2;stroke:#010101;stroke-width:2.8346;stroke-miterlimit:10;}
	.st33{fill:#FFFFFF;stroke:#010101;stroke-width:0.7087;stroke-miterlimit:10;}
	.st34{fill:#FAF075;stroke:#010101;stroke-width:0.7087;stroke-miterlimit:10;}
</style>
<g>
	<g>
		<path class="st0" d="M168.51,166.35c-3.52,0.1-7.78-1.01-10.49,1.98c-2.1,2.31-1.53,6.06,1.43,7.26c0.46,0.19,1.14-0.03,1.46-0.39
			c1.18-1.3,2.11-3.39,0.46-4.77c-1.8-1.5-4.15,0.45-5.39,1.79c-2.58,2.79-3.09,8.03,0.94,9.86c0.46,0.21,1.06,0.33,1.51,0
			c1.31-0.94,1.64-2.66,0.61-3.97c-1.11-1.42-3.16-1.26-4.46-0.21c-1.47,1.19-1.89,3.33-2.18,5.1c-0.3,1.85-0.23,3.93,1.13,5.37
			c1.15,1.22,3.23,1.73,4.52,0.42c1.05-1.07,1.11-3.02-0.13-3.97c-1.54-1.17-3.49,0.58-4.37,1.84c-1.06,1.51-1.34,3.51-0.72,5.25
			c0.67,1.9,2.3,3.51,4.35,3.77c2.17,0.28,4.26-1.31,4.14-3.59c-0.03-0.6-0.44-1.35-1.1-1.45c-3.98-0.6-5.19,4.68-2.13,6.73
			c3.26,2.18,7.01-0.05,8.63-3.12c0.72-1.37,1.63-3.33,0.75-4.83c-0.96-1.65-3.32-1.37-4.33,0.05c-0.88,1.25-0.78,3.08,0.18,4.26
			c1.15,1.42,3.16,1.59,4.77,0.92c2.07-0.86,3.08-2.83,3.87-4.8c0.54-1.35,1.82-4.99,3.91-3.7c1.65,1.02,3.16-1.58,1.51-2.59
			c-2.51-1.55-5.38-0.07-6.82,2.2c-1.01,1.59-1.83,6.56-4.4,6.3c-0.48-0.05-0.47-0.18-0.64-0.56c-0.04-0.08,0.1-0.26,0.07-0.31
			c-0.08,0.15-0.21,0.1-0.4-0.17c-0.29-0.3-0.41-0.32-0.38-0.05c-0.22,0.19-0.39,1.15-0.53,1.45c-0.31,0.64-0.68,1.27-1.17,1.79
			c-0.74,0.77-1.73,1.23-2.8,0.93c-0.38-0.11-0.92-0.36-1.03-0.78c-0.07-0.27,0.22-0.8,0.14-0.81c-0.37-0.48-0.73-0.96-1.1-1.45
			c0.05,0.89-0.97,0.68-1.5,0.36c-0.65-0.39-1.1-1.12-1.26-1.85c-0.33-1.56,0.62-2.81,1.99-3.41c-0.5,0-1.01,0-1.51,0
			c-0.1-0.12-0.17-0.26-0.2-0.41c0.24-0.13,0.25-0.23,0.05-0.31c-0.14-0.3-0.45-0.51-0.56-0.89c-0.24-0.84-0.07-1.76,0.1-2.59
			c0.15-0.72,0.27-1.55,0.61-2.21c0.18-0.34,0.41-0.45,0.62-0.7c0.25,0.01,0.24-0.06-0.03-0.21c0.05-0.15,0.14-0.28,0.26-0.38
			c0.5,0,1.01,0,1.51,0c-1.46-0.66-1.87-2.32-1.27-3.75c0.34-0.81,0.96-1.5,1.62-2.06c0.16-0.14,0.91-0.55,0.93-0.67
			c-0.2-0.61-0.37-0.75-0.52-0.41c-0.12,0.18-0.26,0.34-0.41,0.49c0.49-0.13,0.97-0.26,1.46-0.39c-0.48-0.2-0.56-1.02-0.49-1.44
			c0.15-0.86,0.96-1.4,1.72-1.69c2.2-0.84,4.75-0.15,7.03-0.21C170.44,169.3,170.44,166.3,168.51,166.35L168.51,166.35z"/>
	</g>
</g>
<path class="st1" d="M240.45,75.41v47.7c0,1.1-0.9,2-2,2h-71.8c-1.1,0-2-0.9-2-2v-47.7c0-1.1,0.9-2,2-2h45.78l2.7-7.02h11.88
	l3.96,7.02h7.48C239.55,73.41,240.45,74.31,240.45,75.41z"/>
<path class="st2" d="M232.67,79.32v47.7c0,1.1-0.9,2-2,2h-71.8c-1.1,0-2-0.9-2-2v-47.7c0-1.1,0.9-2,2-2h45.78l2.7-7.02h11.88
	l3.96,7.02h7.48C231.77,77.32,232.67,78.22,232.67,79.32z"/>
<path class="st3" d="M225.55,82.61v47.7c0,1.1-0.9,2-2,2h-71.8c-1.1,0-2-0.9-2-2v-47.7c0-1.1,0.9-2,2-2h45.78l2.7-7.02h11.88
	l3.96,7.02h7.48C224.65,80.61,225.55,81.51,225.55,82.61z"/>
<path class="st4" d="M89.95,28.79v38c0,9.72-6.03,18.03-14.56,21.4v12.5H54.51v-12.5c-8.53-3.37-14.56-11.68-14.56-21.4v-38
	c0-10.5,8.51-19,19-19h12C81.44,9.79,89.95,18.29,89.95,28.79z"/>
<path class="st5" d="M86.6,163.05H43.29c-3.49,0-6.35-2.86-6.35-6.35v-55.66c0-3.49,2.86-6.35,6.35-6.35H86.6
	c3.49,0,6.35,2.86,6.35,6.35v55.66C92.96,160.19,90.1,163.05,86.6,163.05z"/>
<rect x="79" y="104.88" class="st6" width="7.82" height="7.82"/>
<path class="st7" d="M85.18,117.86h-4.53c-1.59,0-2.89-1.3-2.89-2.89v-4.53c0-1.59,1.3-2.89,2.89-2.89h4.53
	c1.59,0,2.89,1.3,2.89,2.89v4.53C88.07,116.56,86.77,117.86,85.18,117.86z"/>
<g>
	<path class="st8" d="M110.55,259.32H68.38v-23.33h24.17c9.9,0,18,8.1,18,18V259.32z"/>
	<rect x="68.38" y="255.42" class="st9" width="42.17" height="3.9"/>
	<rect x="68.38" y="257.37" class="st10" width="42.17" height="0.98"/>
</g>
<path class="st11" d="M87.38,234.23h-19v-72.25c0-3.3,2.7-6,6-6h7c3.3,0,6,2.7,6,6V234.23z"/>
<g>
	<path class="st8" d="M19.35,259.32h42.17v-23.33H37.35c-9.9,0-18,8.1-18,18V259.32z"/>
	
		<rect x="19.35" y="255.42" transform="matrix(-1 -4.486379e-11 4.486379e-11 -1 80.8669 514.7369)" class="st9" width="42.17" height="3.9"/>
	
		<rect x="19.35" y="257.37" transform="matrix(-1 -4.494994e-11 4.494994e-11 -1 80.8669 515.712)" class="st10" width="42.17" height="0.98"/>
</g>
<rect x="42.52" y="230.44" transform="matrix(-1 -1.072266e-11 1.072266e-11 -1 104.0335 466.4209)" class="st12" width="19" height="5.55"/>
<path class="st11" d="M42.52,229.3h19v-67.32c0-3.3-2.7-6-6-6h-7c-3.3,0-6,2.7-6,6V229.3z"/>
<rect x="36.37" y="155.28" class="st8" width="56" height="7.77"/>
<path class="st13" d="M68.91,164.61h-7.44c-2.06,0-3.74-1.68-3.74-3.74v-3.96c0-2.06,1.68-3.74,3.74-3.74h7.44
	c2.06,0,3.74,1.68,3.74,3.74v3.96C72.65,162.93,70.96,164.61,68.91,164.61z"/>
<path class="st5" d="M99.46,97.49h-5.21c-10.17,0-4.18,12.21-4.18,24.92v36.77h15.77V122.4C105.84,109.7,108.52,100.39,99.46,97.49z
	"/>
<path class="st5" d="M31.84,98.03h5.21c10.17,0,4.18,12.21,4.18,24.92v36.77H25.46v-36.77C25.46,110.24,22.78,100.93,31.84,98.03z"
	/>
<circle class="st4" cx="32.22" cy="162.89" r="9.39"/>
<circle class="st4" cx="99.13" cy="162.09" r="9.39"/>
<g>
	<path class="st14" d="M61.55,44.4H47.07c-1.1,0-2-0.9-2-2V31.5c0-1.1,0.9-2,2-2h14.48c1.1,0,2,0.9,2,2v10.9
		C63.55,43.5,62.65,44.4,61.55,44.4z"/>
	<path class="st14" d="M84.06,44.4H69.58c-1.1,0-2-0.9-2-2V31.5c0-1.1,0.9-2,2-2h14.48c1.1,0,2,0.9,2,2v10.9
		C86.06,43.5,85.16,44.4,84.06,44.4z"/>
	<rect x="63.55" y="38.23" class="st15" width="4.02" height="1.59"/>
	<rect x="85.93" y="36" class="st15" width="4.02" height="2.23"/>
	<rect x="39.95" y="35.83" class="st15" width="4.78" height="2.23"/>
</g>
<path class="st16" d="M89.77,72.28c0,13.58-24.1,23.41-24.1,23.41s-25-9.71-25-23.29s13.06,1.21,25,1.21S89.77,58.7,89.77,72.28z"/>
<ellipse class="st17" cx="64.95" cy="70.72" rx="7.8" ry="4.15"/>
<g>
	<g>
		<g>
			<g>
				<path class="st18" d="M96.35,73.3c0,0-0.32-0.23-0.9-0.63c-0.56-0.4-1.4-0.94-2.42-1.51c-1.01-0.58-2.24-1.13-3.54-1.58
					c-1.3-0.44-2.7-0.7-4-0.73c-1.31-0.03-2.51,0.18-3.52,0.56c-1.02,0.38-1.78,0.89-2.56,1.4c-1.49,1.01-2.81,2.03-3.69,2.28
					c-1.71,0.47-3.99,0.08-6.18-1.12c-2.18-1.2-4.17-3.24-5.28-5.96c-1.11-2.71-1.2-5.55-0.3-7.99c0.9-2.42,2.9-4.51,6.07-5.4
					c0.79-0.22,2-0.37,3.57-0.37c1.57,0.01,3.5,0.16,5.62,0.64c2.09,0.47,4.47,1.3,6.54,2.51c2.09,1.2,3.91,2.77,5.32,4.43
					c2.86,3.35,4.05,6.9,4.63,9.39c0.29,1.26,0.44,2.27,0.52,2.98C96.31,72.9,96.35,73.3,96.35,73.3z"/>
			</g>
		</g>
	</g>
	<g>
		<g>
			<g>
				<path class="st18" d="M34.08,73.3c0,0,0.04-0.4,0.11-1.1c0.07-0.71,0.23-1.73,0.52-2.98c0.58-2.48,1.77-6.04,4.63-9.39
					c1.41-1.66,3.23-3.23,5.32-4.43c2.07-1.21,4.45-2.04,6.54-2.51c2.12-0.48,4.06-0.63,5.62-0.64c1.57,0,2.78,0.15,3.57,0.37
					c3.17,0.89,5.17,2.98,6.07,5.4c0.91,2.43,0.81,5.27-0.3,7.99c-1.11,2.72-3.1,4.76-5.28,5.96c-2.18,1.2-4.46,1.59-6.18,1.12
					c-0.88-0.24-2.2-1.27-3.69-2.28c-0.78-0.5-1.54-1.02-2.56-1.4c-1.01-0.38-2.21-0.59-3.52-0.56c-1.3,0.03-2.7,0.29-4,0.73
					c-1.29,0.44-2.53,1-3.54,1.58c-1.02,0.57-1.86,1.11-2.42,1.51C34.41,73.07,34.08,73.3,34.08,73.3z"/>
			</g>
		</g>
	</g>
</g>
<path class="st19" d="M61.4,230.54H42.12c-0.93,0-1.69-0.76-1.69-1.69v-3.92c0-0.93,0.76-1.69,1.69-1.69H61.4
	c0.93,0,1.69,0.76,1.69,1.69v3.92C63.09,229.79,62.33,230.54,61.4,230.54z"/>
<rect x="68.38" y="230.44" transform="matrix(-1 -1.072266e-11 1.072266e-11 -1 155.7607 466.4209)" class="st12" width="19" height="5.55"/>
<path class="st19" d="M87.26,230.54H67.99c-0.93,0-1.69-0.76-1.69-1.69v-3.92c0-0.93,0.76-1.69,1.69-1.69h19.28
	c0.93,0,1.69,0.76,1.69,1.69v3.92C88.95,229.79,88.2,230.54,87.26,230.54z"/>
<path class="st20" d="M66.6,52.28h-2.08c-0.55,0-1-0.45-1-1v-5.96c0-0.55,0.45-1,1-1h2.08c0.55,0,1,0.45,1,1v5.96
	C67.6,51.83,67.15,52.28,66.6,52.28z"/>
<path class="st21" d="M92.02,49.78h-2.08V40.4h2.08c1.1,0,2,0.9,2,2v5.39C94.02,48.89,93.13,49.78,92.02,49.78z"/>
<path class="st21" d="M37.87,40.4h2.08v9.39h-2.08c-1.1,0-2-0.9-2-2V42.4C35.87,41.29,36.77,40.4,37.87,40.4z"/>
<path class="st22" d="M219.35,86.51v47.7c0,1.1-0.9,2-2,2h-71.8c-1.1,0-2-0.9-2-2v-47.7c0-1.1,0.9-2,2-2h45.78l2.7-7.02h11.88
	l3.96,7.02h7.48C218.45,84.51,219.35,85.41,219.35,86.51z"/>
<path class="st23" d="M212.75,109.6h-62.6c-1.1,0-2-0.9-2-2V97.49c0-1.1,0.9-2,2-2h62.6c1.1,0,2,0.9,2,2v10.12
	C214.75,108.7,213.85,109.6,212.75,109.6z"/>
<path class="st24" d="M212.75,122.33h-9.95c-1.1,0-2-0.9-2-2v-4.23c0-1.1,0.9-2,2-2h9.95c1.1,0,2,0.9,2,2v4.23
	C214.75,121.43,213.85,122.33,212.75,122.33z"/>
<rect x="253.04" y="72.4" class="st25" width="7.33" height="62.31"/>
<path class="st26" d="M259.37,136.71h-5.33c-0.55,0-1-0.45-1-1v-7.67h7.33v7.67C260.37,136.26,259.92,136.71,259.37,136.71z"/>
<rect x="253.04" y="127.13" class="st27" width="7.33" height="3.5"/>
<polygon class="st28" points="256.71,59.35 260.37,72.4 253.04,72.4 "/>
<polygon class="st8" points="258.39,65.34 256.71,59.35 255.02,65.34 "/>
<circle class="st29" cx="66.11" cy="106" r="1.44"/>
<circle class="st29" cx="66.11" cy="113.74" r="1.44"/>
<circle class="st29" cx="66.22" cy="122.05" r="1.44"/>
<circle class="st29" cx="66.22" cy="129.8" r="1.44"/>
<circle class="st29" cx="66.22" cy="137.72" r="1.44"/>
<circle class="st29" cx="66.22" cy="145.28" r="1.44"/>
<polygon class="st30" points="222.41,215.98 178.07,215.98 170.43,208.27 230.05,208.27 "/>
<polygon class="st31" points="230.05,208.27 170.43,208.27 178.07,175.41 222.41,175.41 "/>
<path class="st17" d="M194.45,175.41h-6.88v-3.09c0-1.1,0.9-2,2-2h2.88c1.1,0,2,0.9,2,2V175.41z"/>
<path class="st17" d="M212.61,175.41h-6.88v-3.09c0-1.1,0.9-2,2-2h2.88c1.1,0,2,0.9,2,2V175.41z"/>
<circle class="st32" cx="200.24" cy="191.84" r="13.6"/>
<circle class="st33" cx="200.24" cy="182.28" r="1.74"/>
<circle class="st33" cx="200.24" cy="201.77" r="1.74"/>
<circle class="st33" cx="210.27" cy="191.22" r="1.74"/>
<circle class="st33" cx="190.19" cy="191.22" r="1.74"/>
<circle class="st33" cx="193.67" cy="185.77" r="1.74"/>
<circle class="st33" cx="206.78" cy="185.77" r="1.74"/>
<circle class="st33" cx="193.67" cy="197.89" r="1.74"/>
<circle class="st33" cx="206.78" cy="197.89" r="1.74"/>
<circle class="st34" cx="200.24" cy="191.22" r="2.25"/>
<path class="st17" d="M228.86,173.33c-2.75,2.24-11.39-2.14-14.64-3.24c-3.74-1.27-10.48-2.12-14.43-2.12
	c-3.69,0-18.59,3.53-18.59,3.53s-9.71,4.28-12.86,2.24c-2.96-1.92-2.41-8.53-0.05-11.09c2.49-2.71,11.02-1.37,15-1.74
	c3.94-0.37,12.82-1.27,16.5-1.27c3.96,0,11.4,0.59,15.71,1.06c3.56,0.39,10.89-0.23,13.37,2.23
	C230.85,164.9,231.58,171.11,228.86,173.33z"/>
</svg>
