<?xml version="1.0" encoding="utf-8"?>
<!-- Generator: Adobe Illustrator 24.0.1, SVG Export Plug-In . SVG Version: 6.00 Build 0)  -->
<svg version="1.1" id="Layer_1" xmlns="http://www.w3.org/2000/svg" xmlns:xlink="http://www.w3.org/1999/xlink" x="0px" y="0px"
	 viewBox="0 0 280 270" style="enable-background:new 0 0 280 270;" xml:space="preserve">
<style type="text/css">
	.st0{fill:#79D0EA;}
	.st1{fill:#24B574;}
	.st2{fill:#522E13;}
	.st3{fill:#FFDCB2;}
	.st4{fill:#3E2437;}
	.st5{fill:#F6B488;}
	.st6{fill:#010101;}
	.st7{fill:#A55F41;}
	.st8{fill:#231F20;}
	.st9{fill:#510F37;}
	.st10{fill:#B4B4B4;stroke:#040404;stroke-width:2;stroke-miterlimit:10;}
	.st11{fill:#22120B;}
	.st12{fill:#7E2D18;}
	.st13{fill:#F38188;}
	.st14{fill:#FCB42C;}
	.st15{fill:#F68B20;stroke:#F68B20;stroke-miterlimit:10;}
	.st16{fill:#9DB4B6;stroke:#010101;stroke-width:1.4173;stroke-miterlimit:10;}
	.st17{fill:#EC9622;}
	.st18{fill:#704220;}
	.st19{fill:#412312;}
	.st20{fill:#432610;}
	.st21{fill:#046937;}
	.st22{fill:#3A7A4B;}
	.st23{fill:#4BB74D;}
	.st24{fill:#39824A;}
	.st25{fill:#818381;}
</style>
<rect x="216.27" y="164.37" class="st0" width="21.12" height="3.86"/>
<rect x="203.3" y="159.46" class="st0" width="13.48" height="8.76"/>
<rect x="176.71" y="149.7" class="st0" width="16.46" height="8.76"/>
<polygon class="st1" points="139.84,169.11 141.28,166.62 143.2,165.27 144.28,163.5 146.08,161.39 149.32,161 150.4,159.54 
	150.4,156.9 151.72,155.7 154.96,154.74 158.08,153.66 159.28,152.34 159.28,150.42 160.12,149.34 161.44,147.54 162.16,147.54 
	164.56,147.54 166.6,148.27 168.28,148.27 169.48,149.46 171.16,149.58 172.36,149.1 174.88,148.27 176.92,148.27 178.12,148.86 
	179.39,149.82 179.39,150.54 181.36,152.9 182.44,153.66 183.04,153.66 183.88,153.66 184.36,152.9 184.36,152.22 185.32,151.62 
	186.04,151.5 186.76,152.22 187.72,152.9 188.3,154.14 189.4,155.7 189.4,157.14 190.6,158.33 192.28,159.42 193.12,161 
	194.92,163.5 195.52,165.27 196.72,165.27 198.04,166.98 198.88,169.11 "/>
<path class="st2" d="M93.41,229.66H77.64V169c0-3.3,2.7-6,6-6h3.77c3.3,0,6,2.7,6,6V229.66z"/>
<path class="st2" d="M54.14,230.81h15.77v-61.81c0-3.3-2.7-6-6-6h-3.77c-3.3,0-6,2.7-6,6V230.81z"/>
<path class="st3" d="M70.77,95.46h4"/>
<path class="st4" d="M78.27,168.13h-9.18c-14.85,0-27-12.15-27-27v-29.17c0-7.4,6.06-13.46,13.46-13.46c0,0,3.39,0,7.36,0
	c4,0,4.07,1.98,11.05,1.98c5.92,0,6.69-1.98,10.67-1.98c3.88,0,7.18,0,7.18,0c7.4,0,13.46,6.06,13.46,13.46v29.17
	C105.27,155.98,93.12,168.13,78.27,168.13z"/>
<path class="st4" d="M112.69,131.1h-4.32c-3.3,0-6-2.7-6-6v-13.26c0-3.3,2.7-6,6-6h4.32c3.3,0,6,2.7,6,6v13.26
	C118.69,128.4,115.99,131.1,112.69,131.1z"/>
<rect x="102.38" y="124.84" class="st5" width="16.32" height="39.46"/>
<ellipse class="st5" cx="110.53" cy="162.3" rx="9.31" ry="9.77"/>
<path class="st4" d="M39.71,131.1H35.4c-3.3,0-6-2.7-6-6v-13.26c0-3.3,2.7-6,6-6h4.32c3.3,0,6,2.7,6,6v13.26
	C45.71,128.4,43.01,131.1,39.71,131.1z"/>
<rect x="29.4" y="124.84" class="st5" width="16.32" height="39.46"/>
<ellipse class="st5" cx="37.56" cy="162.3" rx="9.31" ry="9.77"/>
<path class="st6" d="M93.84,168.23H53.52c-1.1,0-2-0.9-2-2v-3.03c0-1.1,0.9-2,2-2h40.32c1.1,0,2,0.9,2,2v3.03
	C95.84,167.33,94.94,168.23,93.84,168.23z"/>
<g>
	<path class="st7" d="M113.81,258.26H77.64v-23.33h18.17c9.9,0,18,8.1,18,18V258.26z"/>
	<rect x="77.64" y="254.36" class="st7" width="36.17" height="3.9"/>
	<rect x="77.64" y="256.31" class="st7" width="36.17" height="0.98"/>
	<g>
		<path class="st7" d="M99.59,236.63c0.38,1.54-0.15,3.24-1.04,4.47c-0.89,1.22-2.11,2.06-3.3,2.86"/>
		<g>
			<path class="st8" d="M98.63,236.89c0.28,1.2-0.11,2.49-0.84,3.56c-0.77,1.12-1.92,1.89-3.04,2.64c-0.45,0.3-0.64,0.88-0.36,1.37
				c0.26,0.45,0.92,0.66,1.37,0.36c1.44-0.96,2.86-1.99,3.83-3.45c0.96-1.46,1.38-3.29,0.98-5c-0.12-0.53-0.72-0.84-1.23-0.7
				C98.79,235.81,98.5,236.37,98.63,236.89L98.63,236.89z"/>
		</g>
	</g>
	<g>
		<path class="st7" d="M104.92,238.27c0.38,1.54-0.15,3.24-1.04,4.47c-0.89,1.22-2.11,2.06-3.3,2.86"/>
		<g>
			<path class="st8" d="M103.96,238.53c0.28,1.2-0.11,2.49-0.84,3.56c-0.77,1.12-1.92,1.89-3.04,2.64c-0.45,0.3-0.64,0.88-0.36,1.37
				c0.26,0.45,0.92,0.66,1.37,0.36c1.44-0.96,2.86-1.99,3.83-3.45c0.96-1.46,1.38-3.29,0.98-5c-0.12-0.53-0.72-0.84-1.23-0.7
				C104.12,237.45,103.84,238.01,103.96,238.53L103.96,238.53z"/>
		</g>
	</g>
	<g>
		<path class="st7" d="M108.54,241.46c0.38,1.54-0.15,3.24-1.04,4.47c-0.89,1.22-2.11,2.06-3.3,2.86"/>
		<g>
			<path class="st8" d="M107.57,241.72c0.28,1.2-0.11,2.49-0.84,3.56c-0.77,1.12-1.92,1.89-3.04,2.64c-0.45,0.3-0.64,0.88-0.36,1.37
				c0.26,0.45,0.92,0.66,1.37,0.36c1.44-0.96,2.86-1.99,3.83-3.45c0.96-1.46,1.38-3.29,0.98-5c-0.12-0.53-0.72-0.84-1.23-0.7
				C107.73,240.64,107.45,241.2,107.57,241.72L107.57,241.72z"/>
		</g>
	</g>
</g>
<g>
	<path class="st7" d="M32.77,258.26h37.14v-23.33H50.77c-9.9,0-18,8.1-18,18V258.26z"/>
	
		<rect x="32.77" y="254.36" transform="matrix(-1 -5.103929e-11 5.103929e-11 -1 102.6809 512.6212)" class="st7" width="37.14" height="3.9"/>
	
		<rect x="32.77" y="256.31" transform="matrix(-1 -5.094159e-11 5.094159e-11 -1 102.6809 513.5963)" class="st7" width="37.14" height="0.98"/>
	<g>
		<path class="st7" d="M47.37,236.63c-0.39,1.54,0.15,3.24,1.07,4.47c0.92,1.22,2.16,2.06,3.39,2.86"/>
		<g>
			<path class="st8" d="M46.41,236.36c-0.41,1.71,0.02,3.55,1,5c1,1.47,2.45,2.5,3.92,3.45c0.45,0.29,1.1,0.09,1.37-0.36
				c0.28-0.49,0.1-1.07-0.36-1.37c-1.15-0.74-2.34-1.51-3.14-2.64c-0.75-1.07-1.15-2.36-0.87-3.56c0.13-0.52-0.17-1.08-0.7-1.23
				C47.13,235.52,46.53,235.83,46.41,236.36L46.41,236.36z"/>
		</g>
	</g>
	<g>
		<path class="st7" d="M41.9,238.27c-0.39,1.54,0.15,3.24,1.07,4.47c0.92,1.22,2.16,2.06,3.39,2.86"/>
		<g>
			<path class="st8" d="M40.93,238c-0.41,1.71,0.02,3.55,1,5c1,1.47,2.45,2.5,3.92,3.45c0.45,0.29,1.1,0.09,1.37-0.36
				c0.28-0.49,0.1-1.07-0.36-1.37c-1.15-0.74-2.34-1.51-3.14-2.64c-0.75-1.07-1.15-2.36-0.87-3.56c0.13-0.52-0.17-1.08-0.7-1.23
				C41.65,237.17,41.06,237.48,40.93,238L40.93,238z"/>
		</g>
	</g>
	<g>
		<path class="st7" d="M38.19,241.46c-0.39,1.54,0.15,3.24,1.07,4.47c0.92,1.22,2.16,2.06,3.39,2.86"/>
		<g>
			<path class="st8" d="M37.22,241.19c-0.41,1.71,0.02,3.55,1,5c1,1.47,2.45,2.5,3.92,3.45c0.45,0.29,1.1,0.09,1.37-0.36
				c0.28-0.49,0.1-1.07-0.36-1.37c-1.15-0.74-2.34-1.51-3.14-2.64c-0.75-1.07-1.15-2.36-0.87-3.56c0.13-0.52-0.17-1.08-0.7-1.23
				C37.94,240.35,37.35,240.66,37.22,241.19L37.22,241.19z"/>
		</g>
	</g>
</g>
<rect x="54.15" y="223.32" class="st7" width="15.75" height="14.95"/>
<rect x="77.65" y="223.32" class="st7" width="15.75" height="14.95"/>
<path class="st9" d="M55.47,228.17h13.1c1.66,0,3-1.34,3-3v-1.29c0-1.66-1.34-3-3-3h-13.1c-1.66,0-3,1.34-3,3v1.29
	C52.47,226.83,53.81,228.17,55.47,228.17z"/>
<path class="st9" d="M92.08,228.18h-13.1c-1.66,0-3-1.34-3-3v-1.29c0-1.66,1.34-3,3-3h13.1c1.66,0,3,1.34,3,3v1.29
	C95.08,226.84,93.73,228.18,92.08,228.18z"/>
<path class="st10" d="M77.49,170.02h-7.44c-2.06,0-3.74-1.68-3.74-3.74v-3.96c0-2.06,1.68-3.74,3.74-3.74h7.44
	c2.06,0,3.74,1.68,3.74,3.74v3.96C81.23,168.34,79.55,170.02,77.49,170.02z"/>
<rect x="77.65" y="252.93" class="st11" width="36.16" height="5.22"/>
<rect x="32.78" y="252.93" class="st11" width="37.13" height="5.22"/>
<path class="st5" d="M63.64,103.37c-8.53-3.37-14.56-11.68-14.56-21.4v-38c0-10.5,8.51-19,19-19h12c10.49,0,19,8.5,19,19v38
	c0,9.72-6.03,18.03-14.56,21.4"/>
<ellipse class="st6" cx="74.5" cy="86.22" rx="7.8" ry="4.56"/>
<path class="st12" d="M75.16,67.46h-2.08c-0.55,0-1-0.45-1-1V60.5c0-0.55,0.45-1,1-1h2.08c0.55,0,1,0.45,1,1v5.96
	C76.16,67.01,75.71,67.46,75.16,67.46z"/>
<path class="st13" d="M101.15,64.51h-2.08v-9.39h2.08c1.1,0,2,0.9,2,2v5.39C103.15,63.61,102.26,64.51,101.15,64.51z"/>
<path class="st13" d="M47.13,55.12h2.08v9.39h-2.08c-1.1,0-2-0.9-2-2v-5.39C45.13,56.02,46.03,55.12,47.13,55.12z"/>
<path class="st14" d="M74.28,108.87c0,0-25-8.28-25-19.84s13.06,1.03,25,1.03s24.1-12.7,24.1-1.13S74.28,108.87,74.28,108.87"/>
<g>
	<g>
		<g>
			<g>
				<path class="st15" d="M74.16,76.98c-0.82-1.11-1.43-2.45-1.03-4.03c0.1-0.39,0.23-0.82,0.46-1.22c0.24-0.4,0.56-0.81,0.95-1.21
					c0.38-0.42,0.88-0.75,1.44-1.09c0.57-0.35,1.2-0.61,1.89-0.81c0.35-0.1,0.72-0.2,1.09-0.27c0.35-0.06,0.71-0.1,1.09-0.14
					c0.37-0.03,0.78-0.05,1.15-0.05c0.35,0.01,0.72,0.03,1.09,0.06c0.79,0.06,1.44,0.19,2.15,0.36c0.75,0.17,1.31,0.37,1.98,0.62
					c2.51,0.97,4.48,2.37,6.03,3.91c0.76,0.77,1.59,1.86,2.31,3.08c0.71,1.2,1.33,2.5,1.92,3.82c0.58,1.32,1.13,2.65,1.61,3.8
					c0.48,1.16,0.85,2.05,0.99,2.74c0,0.11,0.07,0.36,0.09,0.47c0.02,0.07,0.05,0.16,0.09,0.25c0.03,0.06,0.08,0.12,0.13,0.2
					c0.23,0.26,0.63,0.47,1.09,0.48c0.97,0.03,2.13-0.52,3.01-1.12c0.91-0.61,1.61-1.26,2.1-1.72c0.48-0.47,0.74-0.75,0.74-0.75
					s0.05,0.38,0.07,1.07c0.02,0.69,0.04,1.71-0.17,3.01c-0.22,1.29-0.6,2.92-1.92,4.68c-0.67,0.88-1.66,1.74-2.92,2.38
					c-1.28,0.7-2.85,0.97-4.39,1.01c-3.04-0.03-5.56-0.98-7.65-1.88c-2.1-0.93-3.85-1.94-5.38-2.87c-1.52-0.93-2.83-1.81-3.85-2.52
					c-1-0.7-1.74-1.23-2.22-1.72c-0.95-0.96-1.54-1.8-1.64-2.45c0-0.13-0.05-0.37,0.02-0.48l0.07-0.24c0.13-0.39,0.27-0.59,0.37-0.9
					c0.11-0.29,0.19-0.58,0.26-0.88c0.07-0.26,0.12-0.38,0.16-0.59c0.04-0.19,0.07-0.38,0.08-0.58c0.02-0.11,0.03-0.18,0.04-0.27
					c0.01-0.09,0-0.19-0.01-0.29c0-0.05,0-0.01,0-0.03c0.01,0.02-0.03-0.14,0.02,0.07c0.02,0.06,0.04,0.13,0.05,0.17
					c-0.04-0.13-0.1-0.27-0.16-0.41c-0.13-0.27-0.31-0.48-0.49-0.73C76.1,78.91,75,78.12,74.16,76.98z"/>
			</g>
		</g>
	</g>
	<g>
		<g>
			<g>
				<path class="st15" d="M75.42,77.01c-0.87,1.12-1.99,1.88-2.81,2.86c-0.2,0.24-0.39,0.46-0.54,0.7c-0.14,0.23-0.3,0.69-0.19,0.38
					c0.02-0.04,0.05-0.21,0.04-0.17c0,0.01,0,0,0,0s0.01-0.01,0.01-0.03c-0.01,0.05-0.02,0.16-0.02,0.23c0,0.08,0.01,0.16,0.02,0.22
					c0.01,0.11,0.02,0.34,0.05,0.5c0.03,0.17,0.07,0.34,0.12,0.51c0.05,0.28,0.12,0.56,0.21,0.84c0.18,0.47,0.35,0.95,0.53,1.44
					c0.08,0.11,0.05,0.32,0.05,0.46c-0.07,0.62-0.65,1.41-1.6,2.34c-0.48,0.47-1.22,0.98-2.23,1.65c-1.03,0.7-2.35,1.55-3.9,2.45
					c-1.56,0.9-3.34,1.88-5.5,2.77c-0.55,0.22-1.08,0.43-1.7,0.63l-0.89,0.29l-0.98,0.25c-0.61,0.16-1.38,0.28-2.06,0.36
					c-0.35,0.04-0.76,0.05-1.12,0.07c-0.38,0.01-0.73,0.02-1.14-0.02c-1.54-0.09-3.1-0.58-4.3-1.29c-0.6-0.35-1.09-0.79-1.57-1.18
					c-0.45-0.44-0.83-0.88-1.13-1.32c-1.21-1.78-1.54-3.39-1.73-4.68c-0.18-1.29-0.15-2.3-0.12-2.99c0.03-0.69,0.08-1.07,0.08-1.07
					s0.26,0.29,0.73,0.76c0.48,0.47,1.18,1.13,2.07,1.75c0.88,0.61,2.02,1.21,3.02,1.24c0.25,0.02,0.47-0.03,0.66-0.09
					c0.21-0.1,0.38-0.16,0.51-0.29c0.13-0.15,0.21-0.24,0.27-0.43c0.04-0.13,0.09-0.32,0.1-0.47c0.07-0.62,0.43-1.49,0.9-2.59
					c0.47-1.1,1.03-2.4,1.62-3.69c0.6-1.3,1.24-2.58,1.96-3.75c0.74-1.21,1.58-2.28,2.37-3.04c1.59-1.52,3.61-2.89,6.19-3.82
					c0.67-0.23,1.27-0.42,2.03-0.57c0.36-0.07,0.71-0.14,1.06-0.19c0.35-0.05,0.77-0.08,1.14-0.1c0.38-0.02,0.75-0.03,1.11-0.02
					c0.4,0.02,0.79,0.05,1.17,0.1c0.38,0.05,0.73,0.1,1.09,0.19c0.37,0.09,0.73,0.2,1.07,0.32c0.34,0.12,0.66,0.24,0.97,0.39
					c0.31,0.16,0.6,0.33,0.87,0.51c0.54,0.35,1.01,0.71,1.37,1.14c0.36,0.41,0.66,0.83,0.88,1.23c0.2,0.42,0.32,0.84,0.4,1.23
					C76.91,74.6,76.27,75.92,75.42,77.01z"/>
			</g>
		</g>
	</g>
</g>
<g>
	<path class="st16" d="M64.69,66.46H59.7c-3.84,0-6.99-3.14-6.99-6.99v-4.99c0-3.84,3.14-6.99,6.99-6.99h4.99
		c3.84,0,6.99,3.14,6.99,6.99v4.99C71.68,63.32,68.53,66.46,64.69,66.46z"/>
	<path class="st16" d="M88.45,66.46h-4.99c-3.84,0-6.99-3.14-6.99-6.99v-4.99c0-3.84,3.14-6.99,6.99-6.99h4.99
		c3.84,0,6.99,3.14,6.99,6.99v4.99C95.44,63.32,92.29,66.46,88.45,66.46z"/>
	<rect x="71.05" y="56.12" class="st6" width="5.94" height="1.71"/>
</g>
<path class="st17" d="M99.28,40.85h-50v0c0-16.5,13.5-30,30-30h20c8.25,0,15,6.75,15,15v0C114.28,34.1,107.53,40.85,99.28,40.85z"/>
<rect x="145.69" y="177.94" class="st18" width="6.43" height="79.16"/>
<rect x="240.56" y="177.94" class="st18" width="6.43" height="79.16"/>
<rect x="191.06" y="117.52" transform="matrix(6.123234e-17 -1 1 6.123234e-17 22.3179 369.001)" class="st19" width="9.19" height="111.64"/>
<polygon class="st20" points="165.68,177.94 152.12,193.52 152.12,198.42 169.94,177.94 "/>
<polygon class="st20" points="227,177.94 240.56,193.52 240.56,198.42 222.74,177.94 "/>
<polygon class="st21" points="140.09,168.75 141.05,164.3 142.41,161.1 144.17,158.58 145.01,154.86 146.21,153.9 148.73,152.53 
	150.41,152.53 151.97,153.42 153.53,155.94 154.53,158.22 154.97,160.64 156.53,162.3 156.53,164.3 156.53,166.38 157.25,167.22 
	157.73,168.75 "/>
<polygon class="st22" points="143.93,168.75 144.72,164.3 146.57,164.04 147.41,162.3 147.89,158.94 149.09,156.9 151.49,156.18 
	152.45,154.26 153.89,153.3 156.89,153.3 158.09,154.02 158.09,155.7 160.61,158.82 159.77,160.64 162.53,162.3 163.73,160.64 
	164.81,158.58 165.77,158.82 166.73,159.9 166.73,161.82 167.57,163.26 169.85,164.3 170.44,165.78 171.53,167.7 171.53,168.75 "/>
<path class="st22" d="M180.54,168.75l-0.6-3.09l1.44-2.4l2.4-2.62l0.91-3.14l0.77-3.12l1.2-1.08h2.04l1.32-1.44l1.32-1.44h1.44
	l1.92-2.52h2.04l1.92,1.56l1.68,2.04v1.8l0.84,1.68l1.33,0.24v1.92l1.55,2.04c0,0,0,1.53,0,1.84c0,0.32,0,1.28,0,1.28l1.67,1.32
	c0,0-0.49,1.68,0,2.28c0.49,0.6,0.97,1.32,0.97,1.32l0.84,1.53H180.54z"/>
<polygon class="st23" points="193.74,168.75 195.59,168.18 195.59,166.98 196.91,166.02 197.99,164.3 201.83,162.3 201.83,160.64 
	203.51,158.94 206.99,158.94 208.19,160.64 209.75,161.02 211.56,163.14 212.99,164.91 213.71,164.91 214.77,166.86 214.77,168.75 
	"/>
<polygon class="st23" points="206.11,168.75 209.59,167.58 212.11,167.58 212.95,166.26 213.55,164.3 214.51,163.14 215.83,162.3 
	215.83,160.64 216.67,158.94 217.87,158.33 219.79,158.94 220.75,159.78 220.75,161.02 221.95,162.9 222.67,164.3 222.67,165.66 
	223.39,166.98 224.47,168.75 "/>
<polygon class="st24" points="216.07,168.75 217.75,167.46 219.29,166.38 221.11,166.38 223.63,166.38 226.27,166.38 227.23,166.38 
	228.91,166.38 230.11,166.98 232.27,167.56 234.07,167.56 235.39,166.38 236.11,164.91 236.83,163.54 238.51,163.02 239.12,164.04 
	239.12,164.91 238.63,167.1 239.12,168.75 "/>
<polygon class="st25" points="207.7,159.46 190.74,151.08 191.31,150.48 209.56,159.5 "/>
<polygon class="st25" points="222.67,165.01 215.83,161.63 215.83,160.75 222.67,164.3 "/>
</svg>
