<?xml version="1.0" encoding="utf-8"?>
<!-- Generator: Adobe Illustrator 24.0.1, SVG Export Plug-In . SVG Version: 6.00 Build 0)  -->
<svg version="1.1" id="Layer_1" xmlns="http://www.w3.org/2000/svg" xmlns:xlink="http://www.w3.org/1999/xlink" x="0px" y="0px"
	 viewBox="0 0 250 270" style="enable-background:new 0 0 250 270;" xml:space="preserve">
<style type="text/css">
	.st0{fill:#7A7A7A;stroke:#000000;stroke-miterlimit:10;}
	.st1{fill:#FFF7B6;}
	.st2{fill:#FFBC2E;}
	.st3{fill:#001322;}
	.st4{fill:#002443;}
	.st5{fill:#808080;}
	.st6{fill:#FFE3B2;}
	.st7{fill:#A67C52;}
	.st8{fill:#BFA981;}
	.st9{fill:#050505;}
	.st10{fill:#00091F;}
	.st11{fill:#603B15;}
	.st12{fill:#FFF0EB;}
	.st13{fill:#200E0A;}
	.st14{fill:#231F20;}
	.st15{fill:#670E0C;}
	.st16{fill:#007F59;stroke:#030202;stroke-width:2;stroke-miterlimit:10;}
	.st17{fill:#8C6239;}
	.st18{fill:#FFFFFF;stroke:#000000;stroke-miterlimit:10;}
	.st19{fill:#704120;}
	.st20{fill:#452403;}
	.st21{fill:#68F0FF;stroke:#000000;stroke-width:3;stroke-miterlimit:10;}
	.st22{fill:#FFFFFF;}
	.st23{fill:#004C41;}
	.st24{fill:#7A7A7A;}
</style>
<circle class="st0" cx="237.5" cy="42.5" r="6"/>
<polygon class="st1" points="215,60 215,103 148,68 197,47 "/>
<path class="st2" d="M201.95,48.75l8.16,5.79l-1.16,1.63c-1.6,2.25-4.72,2.78-6.97,1.18l0,0c-2.25-1.6-2.78-4.72-1.18-6.97
	L201.95,48.75z"/>
<g>
	<g>
		<path class="st3" d="M231.54,163.24c2.16-1.46,4.53-2.52,7-3.36c1.23-0.41,2.57-0.94,3.89-0.86c1.2,0.07,3.2,1.39,1.99,2.72
			c-0.75,0.82-2.07,0.65-2.91,0.12c-1.05-0.67-1.71-1.8-2.32-2.85c-1.05-1.83-2.13-3.54-4.14-4.4c-1.89-0.81-4.01-0.82-6.03-0.63
			c-2.25,0.21-4.61,0.5-6.73,1.3c-0.92,0.35-1.79,0.8-2.57,1.39c-0.95,0.72-1.7,1.7-2.71,2.33c-2.64,1.65-4.97,0.15-7.2-1.35
			c-1.79-1.19-4.28-2.2-6.26-0.82c-1.96,1.37-1.98,4.39-2.31,6.5c-0.15,0.94,1.3,1.35,1.45,0.4c0.38-2.43,0.42-6.85,4.07-5.93
			c2.48,0.63,4.11,2.94,6.7,3.35c2.58,0.41,4.47-0.86,6.27-2.53c2.04-1.89,4.53-2.51,7.21-2.9c2.38-0.35,5.08-0.75,7.38,0.18
			c2.55,1.02,3.24,3.77,4.82,5.76c1.25,1.57,3.16,2.66,5.17,1.87c1.64-0.64,2.44-2.43,1.57-4.03c-1.37-2.51-4.42-2.12-6.72-1.41
			c-2.95,0.91-5.82,2.11-8.38,3.84C229.99,162.48,230.74,163.78,231.54,163.24L231.54,163.24z"/>
	</g>
</g>
<path class="st4" d="M232,168h-13v-2.5c0-2.48,2.02-4.5,4.5-4.5h4c2.48,0,4.5,2.02,4.5,4.5V168z"/>
<polygon points="179.5,167.5 166.5,167.5 170,149 175,149 "/>
<path class="st5" d="M210,168h-77v-1c0-2.21,1.79-4,4-4h69c2.21,0,4,1.79,4,4V168z"/>
<path class="st6" d="M57.91,101.63H43.28c-1.96,0-3.56-1.6-3.56-3.56V76.89c0-1.96,1.6-3.56,3.56-3.56h14.63
	c1.96,0,3.56,1.6,3.56,3.56v21.18C61.47,100.03,59.87,101.63,57.91,101.63z"/>
<path class="st6" d="M75.67,58.41c-0.11-0.28,0.08-0.47,0.33-0.53V37.1C76,27.66,67.49,20,57,20H45c-10.49,0-19,7.66-19,17.1v34.2
	C26,82.73,36.3,92,49,92h4c12.7,0,23-9.27,23-20.7V59.22C75.89,58.95,75.78,58.68,75.67,58.41z"/>
<path class="st7" d="M45.27,48.85h-9c-1.1,0-2-0.9-2-2v-0.67c0-1.1,0.9-2,2-2h9c1.1,0,2,0.9,2,2v0.67
	C47.27,47.95,46.37,48.85,45.27,48.85z"/>
<path class="st7" d="M65.77,48.85h-9c-1.1,0-2-0.9-2-2v-0.67c0-1.1,0.9-2,2-2h9c1.1,0,2,0.9,2,2v0.67
	C67.77,47.95,66.87,48.85,65.77,48.85z"/>
<path class="st8" d="M26.6,58.75h-3.15c-1.1,0-2-0.9-2-2v-4.63c0-1.1,0.9-2,2-2h3.15V58.75z"/>
<path class="st8" d="M78.75,58.75H75.6v-8.63h3.15c1.1,0,2,0.9,2,2v4.63C80.75,57.86,79.85,58.75,78.75,58.75z"/>
<circle class="st9" cx="40.77" cy="52.11" r="2.06"/>
<circle class="st9" cx="61.91" cy="52.11" r="2.06"/>
<path class="st8" d="M52.1,66.28h-1.15c-1.1,0-2-0.9-2-2v-4.84c0-1.1,0.9-2,2-2h1.15c1.1,0,2,0.9,2,2v4.84
	C54.1,65.38,53.2,66.28,52.1,66.28z"/>
<path class="st10" d="M72.25,165.69H28.94c-3.49,0-6.35-2.86-6.35-6.35v-55.66c0-3.49,2.86-6.35,6.35-6.35h10.86
	c0,0,8.32,3.69,11.19,3.67c2.7-0.02,10.47-3.67,10.47-3.67h10.78c3.49,0,6.35,2.86,6.35,6.35v55.66
	C78.6,162.84,75.75,165.69,72.25,165.69z"/>
<g>
	<path class="st11" d="M95.75,261.96H53.59v-23.33h24.17c9.9,0,18,8.1,18,18V261.96z"/>
	<rect x="53.59" y="258.06" class="st12" width="42.17" height="3.9"/>
	<rect x="53.59" y="260.01" class="st13" width="42.17" height="0.98"/>
	<g>
		<g>
			<path class="st14" d="M84.43,242.23c0.17,0.62,0.14,1.17-0.05,1.82c-0.18,0.59-0.55,1.25-0.95,1.72c-1,1.15-2.29,1.9-3.61,2.66
				c-0.47,0.27-0.63,0.91-0.36,1.37c0.28,0.47,0.9,0.63,1.37,0.36c1.57-0.89,3.16-1.86,4.28-3.3c1.13-1.45,1.74-3.33,1.24-5.16
				c-0.14-0.52-0.71-0.84-1.23-0.7C84.6,241.15,84.29,241.71,84.43,242.23L84.43,242.23z"/>
		</g>
	</g>
	<g>
		<g>
			<path class="st14" d="M88.64,245.42c0.17,0.62,0.14,1.17-0.05,1.82c-0.18,0.59-0.55,1.25-0.95,1.72c-1,1.15-2.29,1.9-3.61,2.66
				c-0.47,0.27-0.63,0.91-0.36,1.37c0.28,0.47,0.9,0.63,1.37,0.36c1.57-0.89,3.16-1.86,4.28-3.3c1.13-1.45,1.74-3.33,1.24-5.16
				c-0.14-0.52-0.71-0.84-1.23-0.7C88.82,244.34,88.5,244.9,88.64,245.42L88.64,245.42z"/>
		</g>
	</g>
</g>
<path d="M69.36,233.35H53.59v-68.73c0-3.3,2.7-6,6-6h3.77c3.3,0,6,2.7,6,6V233.35z"/>
<rect x="53.59" y="220.14" class="st15" width="15.77" height="14.95"/>
<path class="st15" d="M68.02,227.87h-13.1c-1.66,0-3-1.34-3-3v-1.29c0-1.66,1.34-3,3-3h13.1c1.66,0,3,1.34,3,3v1.29
	C71.02,226.53,69.68,227.87,68.02,227.87z"/>
<g>
	<path class="st11" d="M3.69,261.96h42.17v-23.33H21.69c-9.9,0-18,8.1-18,18V261.96z"/>
	
		<rect x="3.69" y="258.06" transform="matrix(-1 -4.494994e-11 4.494994e-11 -1 49.5409 520.019)" class="st12" width="42.17" height="3.9"/>
	
		<rect x="3.69" y="260.01" transform="matrix(-1 -4.486379e-11 4.486379e-11 -1 49.5409 520.9941)" class="st13" width="42.17" height="0.98"/>
	<g>
		<g>
			<path class="st14" d="M13.08,241.7c-0.5,1.82,0.11,3.7,1.24,5.16c1.12,1.44,2.72,2.41,4.28,3.3c0.47,0.27,1.09,0.11,1.37-0.36
				c0.27-0.46,0.11-1.1-0.36-1.37c-1.32-0.75-2.61-1.5-3.61-2.66c-0.39-0.45-0.76-1.09-0.93-1.66c-0.1-0.34-0.16-0.6-0.17-0.88
				c-0.02-0.41,0-0.61,0.11-1c0.14-0.52-0.18-1.09-0.7-1.23C13.79,240.86,13.23,241.18,13.08,241.7L13.08,241.7z"/>
		</g>
	</g>
	<g>
		<g>
			<path class="st14" d="M8.87,244.89c-0.5,1.82,0.11,3.7,1.24,5.16c1.12,1.44,2.72,2.41,4.28,3.3c0.47,0.27,1.09,0.11,1.37-0.36
				c0.27-0.46,0.11-1.1-0.36-1.37c-1.32-0.75-2.61-1.5-3.61-2.66c-0.39-0.45-0.76-1.09-0.93-1.66c-0.1-0.34-0.16-0.6-0.17-0.88
				c-0.02-0.41,0-0.61,0.11-1c0.14-0.52-0.18-1.09-0.7-1.23C9.58,244.05,9.01,244.37,8.87,244.89L8.87,244.89z"/>
		</g>
	</g>
</g>
<path d="M30.08,234.51h15.77v-69.88c0-3.3-2.7-6-6-6h-3.77c-3.3,0-6,2.7-6,6V234.51z"/>
<rect x="30.08" y="221.23" transform="matrix(-1 -3.299106e-11 3.299106e-11 -1 75.9387 456.47)" class="st15" width="15.77" height="14.02"/>
<path class="st15" d="M31.42,227.87h13.1c1.66,0,3-1.34,3-3v-1.29c0-1.66-1.34-3-3-3h-13.1c-1.66,0-3,1.34-3,3v1.29
	C28.42,226.53,29.76,227.87,31.42,227.87z"/>
<rect x="21.45" y="157.93" class="st14" width="56" height="7.77"/>
<circle class="st6" cx="83.21" cy="164.73" r="9.39"/>
<path class="st6" d="M83.56,168.99H80.5c-3.49,0-6.35-2.86-6.35-6.35v-48.96c0-3.49,2.86-6.35,6.35-6.35h3.06
	c3.49,0,6.35,2.86,6.35,6.35v48.96C89.92,166.13,87.06,168.99,83.56,168.99z"/>
<circle class="st6" cx="17.3" cy="165.53" r="9.39"/>
<path class="st6" d="M19.25,168.99h-3.06c-3.49,0-6.35-2.86-6.35-6.35v-48.96c0-3.49,2.86-6.35,6.35-6.35h3.06
	c3.49,0,6.35,2.86,6.35,6.35v48.96C25.6,166.13,22.75,168.99,19.25,168.99z"/>
<path class="st16" d="M53.98,167.25h-7.44c-2.06,0-3.74-1.68-3.74-3.74v-3.96c0-2.06,1.68-3.74,3.74-3.74h7.44
	c2.06,0,3.74,1.68,3.74,3.74v3.96C57.72,165.57,56.04,167.25,53.98,167.25z"/>
<path class="st10" d="M83.56,101.95H80.5c-3.49,0-6.35,2.86-6.35,6.35v10.11h15.77V108.3C89.92,104.81,87.06,101.95,83.56,101.95z"
	/>
<path class="st10" d="M19.25,100.13h-3.06c-3.49,0-6.35,2.86-6.35,6.35v10.11H25.6v-10.11C25.6,102.99,22.75,100.13,19.25,100.13z"
	/>
<rect x="70.03" y="66.21" class="st6" width="5.57" height="6.06"/>
<rect x="30.1" y="235" class="st11" width="15.75" height="6.97"/>
<rect x="53.59" y="235" class="st11" width="15.75" height="6.97"/>
<g>
	<g>
		<path class="st17" d="M26.37,23.88c0.16,0.91,0.16,1.76,0.95,2.34c0.14,0.11,0.32,0.19,0.47,0.28c0.8,0.48,1.6,0.96,2.4,1.44
			c1.38,0.83,2.76,1.65,4.15,2.48c-0.1-0.79-0.2-1.57-0.3-2.36c-1.74,1.45-3.47,2.91-5.21,4.36c-0.89,0.74-0.36,2.23,0.66,2.51
			c0.72,0.2,1.44,0.4,2.17,0.59c1.31,0.36,2.29-1.06,1.69-2.2c-0.49-0.93-1.09-1.77-1.81-2.53c-0.7-0.76-2.35-0.47-2.51,0.66
			c-0.01,0.1-0.03,0.19-0.04,0.29c-0.27,1.87,2.26,2.67,2.89,0.8c0.38-1.14-0.07-2.41,0.81-3.31c1.02-1.04,2.15-2,3.22-3
			c1.81-1.68,3.84-4,6.54-3.65c0.77,0.1,1.55-0.77,1.5-1.5c-0.01-0.07-0.01-0.15-0.02-0.22c-0.5,0.5-1,1-1.5,1.5
			c0.64,0,1.28,0,1.92,0c-0.35-0.85-0.71-1.71-1.06-2.56c-0.08,0.07-0.16,0.14-0.23,0.21c-1,0.9-0.18,2.53,1.06,2.56
			c4.54,0.11,9.08,0.22,13.62,0.33c2.05,0.05,4.2-0.02,6.14,0.71c1.85,0.69,3.47,2.04,5.01,3.24c1.44,1.12,2.92,2.35,3.9,3.91
			c1.07,1.71,1.15,3.71,1.9,5.54c0.69,1.7,2.27,3,2.54,4.87c0.27,1.93-0.49,3.95-1.11,5.73c0.98,0.13,1.96,0.27,2.95,0.4
			c-0.03-0.25-0.06-0.51-0.1-0.76c-0.5,0.5-1,1-1.5,1.5c0.16,0,0.32,0,0.48,0c-0.5-0.5-1-1-1.5-1.5c0,0.15,0.01,0.3,0.01,0.45
			c0.02,0.51,0.27,1.05,0.74,1.3c0.16,0.08,0.32,0.16,0.48,0.24c1.47,0.75,3.08-1.11,1.82-2.36c-1.66-1.63-3.4-3.14-4.26-5.37
			c-0.48,0.63-0.96,1.27-1.45,1.9c1.64,0.04,3.16-0.37,3.43-2.26c-0.91,0.12-1.83,0.24-2.74,0.36c0.55,0.95,0.88,1.82,0.46,2.88
			c-0.34,0.86,0.54,1.99,1.45,1.9c0.52-0.05,1.06-0.08,1.58-0.16c1.32-0.2,1.77-1.58,2.69-2.42c1.3-1.19-0.35-3.12-1.82-2.36
			c-1.3,0.68-2.61,1.36-3.91,2.03c-0.8,0.42-1.6,0.83-2.4,1.25c-0.78,0.4-1.14,0.81-1.67,1.58c-0.34,0.49-0.25,1.43,0.23,1.82
			c1.61,1.29,3.23,2.58,4.84,3.87c0.97,0.77,2.57,0.34,2.56-1.06c0-0.61,0.07-1.27-0.03-1.87c-0.21-1.2-1.6-1.8-2.7-1.76
			c0.35,0.15,0.71,0.29,1.06,0.44c-0.27-0.28-0.55-0.62-0.85-0.88c-0.23-0.2-0.38-0.42-0.19,0.03c-0.12-0.28-0.16-0.73-0.2-1.04
			c-0.04-0.38-0.01-0.79-0.18-1.22c-0.12-0.31-0.3-0.61-0.44-0.92c-0.18-0.38-0.22-0.6-0.27-1.02c-0.01-0.11-0.25-1.23-0.21-0.7
			c0.02,0.3-0.02,0.08,0.03-0.06c0.23-0.63,0.39-1.3,0.59-1.95c0.23-0.76-0.27-1.66-1.05-1.85c-0.32-0.08-0.64-0.16-0.96-0.23
			c0.35,0.62,0.7,1.23,1.05,1.85c0.21-1.14,0.41-2.27,0.62-3.41c-0.35,0.35-0.7,0.7-1.05,1.05c0.63-0.11,0.92-0.46,1.29-0.94
			c0.3-0.4,0.27-1.11,0-1.51c-0.03-0.04-0.05-0.08-0.08-0.12c-0.56,0.73-1.13,1.47-1.69,2.2c1.61,0.63,3.23,1.26,4.84,1.89
			c-0.22-0.84-0.44-1.67-0.66-2.51c-0.05,0.05-0.1,0.11-0.15,0.16c0.35-0.15,0.71-0.29,1.06-0.44c-0.2,0.02-1.04-0.71-1.24-0.85
			c-0.54-0.38-1.08-0.75-1.62-1.13c-0.12,0.91-0.24,1.83-0.36,2.74c2.4-0.54,3.04-3.57,1.85-5.52c-0.44-0.73-0.93-1.44-1.41-2.15
			c-0.56-0.82-1.19-0.92-2.12-0.92c0.48,0.37,0.96,0.73,1.45,1.1c-0.18-0.68-0.32-1.36-0.39-2.06c-0.06-0.6,0.06-1.35-0.26-1.89
			c-0.28-0.46-0.84-0.72-1.28-0.99c-1.1-0.67-2.17-1.36-3.33-1.93c-0.99-0.5-2.27,0.1-2.26,1.3c0,0.24,0,0.47,0.01,0.71
			c0.63-0.48,1.27-0.96,1.9-1.45c-1.3-0.49-2.6-0.99-3.89-1.48c-1.09-0.41-1.84-0.49-2.98-0.49c0.48,0.37,0.96,0.73,1.45,1.1
			c-0.16-0.47-0.32-0.94-0.49-1.41c-0.16-0.47-0.52-0.95-1.05-1.05c-0.5-0.09-1.66-0.55-2.15-0.4c-0.3-0.12-0.33-0.04-0.08,0.23
			c-0.02-0.03-0.04-0.05-0.07-0.08c-0.09-0.06-0.15-0.18-0.22-0.26c-0.43-0.46-0.78-1.09-1.38-1.34c-1.09-0.46-2.74-0.25-3.9-0.13
			c-1.39,0.15-2.74,0.45-4.06,0.92c-0.96,0.35-1.6,1.73-0.66,2.51c0.41,0.34,0.82,0.68,1.22,1.02c0.35-0.85,0.71-1.71,1.06-2.56
			c-0.88,0-1.76,0-2.64,0c-1.07,0-1.59,0.95-1.45,1.9c0.09,0.59,0.18,1.18,0.27,1.77c0.09,0.59,0.85,1.16,1.45,1.1
			c2.41-0.22,4.82-0.35,7.23-0.37c0.98-0.01,2.04-0.09,3.01,0.15c1.03,0.25,1.85,0.96,2.69,1.57c1.93,1.4,3.87,2.77,5.79,4.19
			c0.73,0.54,1.43,1.07,1.79,1.92c0.41,0.97,0.47,2.1,0.63,3.13c0.62-0.62,1.23-1.23,1.85-1.85c-0.59-0.21-1.18-0.42-1.77-0.63
			c0.3,0.23,0.6,0.46,0.9,0.69c-0.75-1.12-2.03-1.15-2.9-2.18c-0.53-0.63-0.97-1.42-1.56-1.99c-1.07-1.02-3.41-0.37-4.75-0.28
			c0.48,0.37,0.96,0.73,1.45,1.1c-0.24-1.22-0.21-2.89-1.37-3.61c-0.54-0.34-1.38-0.24-1.82,0.23c-0.42,0.45-0.6,1.01-0.42,1.61
			c0.25,0.84,1.03,1.18,1.85,1.05c0.79-0.13,1.62-1.06,2.24-1.53c-0.39,0.05-0.77,0.1-1.16,0.15c0.33,0.14,0.66,0.27,0.99,0.39
			c1.58,0.59,2.72-2.06,1.16-2.74c-1.62-0.7-3.24-1.36-4.78-2.22c-0.76-0.42-1.57-0.13-2.05,0.54c-0.64,0.89-1.28,1.77-1.93,2.66
			c0.68-0.18,1.37-0.36,2.05-0.54c-1.72-1.15-4.17-1.41-6.18-1.8c-2.03-0.4-4.47-0.1-6.55-0.1c0.43,0.25,0.86,0.5,1.3,0.74
			c-0.68-1.31-1.19-2.11-2.3-3.03c-1.37-1.12-3.75-0.57-3.91-2.96c-0.08-1.2-1.64-2.1-2.56-1.06c-0.51,0.58-1.02,1.15-1.53,1.73
			c-0.59,0.66-0.62,1.92,0.3,2.36c0.55,0.26,1.1,0.52,1.65,0.78c-0.23-0.3-0.46-0.6-0.69-0.9c0.1,0.38,0.19,0.77,0.29,1.15
			c0.13-0.49,0.26-0.97,0.39-1.46c-0.32,0.4-0.64,0.8-0.96,1.2c0.61-0.08,1.21-0.16,1.82-0.23c-0.88-0.4-1.76-0.86-2.66-1.22
			c-1.49-0.58-2.65,0.37-3.9,1.08c-0.46,0.26-0.94,0.49-1.38,0.78c-0.64,0.42-0.64,1.11-1.11,1.59c-0.43,0.44-1.09,0.57-1.52,1.04
			c-0.96,1.04-1.75,2.32-2.59,3.45c-0.39,0.52-0.2,1.39,0.23,1.82c0.66,0.65,1.31,1.31,1.97,1.96c1.29,1.29,2.99-0.34,2.36-1.82
			c-0.49-1.14-1.31-2.01-2.36-2.66c-0.92-0.57-2.35,0.15-2.26,1.3c0.17,2.14,0.35,4.28,0.52,6.43c0.15-0.35,0.29-0.71,0.44-1.06
			c-0.33,0.32-0.76,0.64-1,1.05c-0.26,0.44-0.25,0.97-0.49,1.42c-0.24,0.45-0.59,0.8-1.01,1.08c-0.99,0.66-0.99,2.47,0.36,2.74
			c0.86,0.18,1.86,0.23,2.5,0.88c0.49-0.84,0.97-1.67,1.46-2.51c-1.08-0.15-2.16-0.31-3.24-0.46c-1.32-0.19-2.45-0.52-3.68,0.11
			c-0.44,0.22-0.78,0.8-0.74,1.3c0.32,4.17,0.65,8.34,0.97,12.5c0.12,1.55,1.9,1.95,2.8,0.76c0.24-0.32,0.48-0.64,0.72-0.96
			c0.57-0.75-0.02-2.02-0.9-2.2c-0.4-0.08-0.79-0.16-1.19-0.25c0.3,0.23,0.6,0.46,0.9,0.69c-0.54-1.05-0.78-2.14-0.79-3.32
			c-0.63,0.48-1.27,0.96-1.9,1.45c0.25,0.08,0.5,0.16,0.75,0.24c-0.37-0.48-0.73-0.96-1.1-1.45c0,0.64,0,1.28,0,1.92
			c0,0.69,0.47,1.23,1.1,1.45c0.48,0.16,0.95,0.33,1.43,0.49c1.3,0.45,2.28-1.12,1.69-2.2c-0.02-0.02-0.04-0.03-0.06-0.05
			c0.21-1.38-1.37-2.63-2.51-1.46c-0.16,0.16-0.32,0.33-0.47,0.49c0.79,0.61,1.57,1.21,2.36,1.82c0.58-1.03,1.03-2.11,1.32-3.25
			c-0.62,0.35-1.23,0.7-1.85,1.05c0.25,0.08,0.49,0.16,0.74,0.25c0.72,0.24,1.71-0.28,1.85-1.05c0.62-3.5-0.2-7.08,0.72-10.52
			c0.81-3.01,1.6-5.94-0.49-8.62c-1.03-1.32-2.72,0.18-2.51,1.46c0.04,0.22,0.07,0.44,0.11,0.65c0.05-0.39,0.1-0.77,0.15-1.16
			c-0.25,0.35-0.5,0.71-0.74,1.06c-0.06,0.08-0.65,0.99-0.38,0.64c0.18-0.23-0.08,0.06-0.18,0.14c-0.11,0.09-0.23,0.17-0.35,0.25
			c-1.25,0.9-0.75,2.62,0.76,2.8c0.81,0.09,1.62,0.18,2.44,0.28c-0.35-0.85-0.71-1.71-1.06-2.56c-1.21,1.45-3.62,3.26-2.11,5.2
			c0.34,0.44,0.97,0.47,1.46,0.39c0.07-0.01,0.13-0.02,0.2-0.03c-0.49-0.84-0.97-1.67-1.46-2.51c-0.47,0.54-0.94,1.07-1.4,1.62
			c-0.49,0.6-0.56,1.22-0.71,1.96c-0.31,1.57,1.94,2.77,2.74,1.16c0.08-0.16,0.16-0.32,0.24-0.48c-0.56,0.23-1.13,0.46-1.69,0.69
			c0.05,0.02,0.46,0.12,0.46,0.14c-0.11-0.04-0.22-0.07-0.33-0.11c0.1,0.13,0.19,0.27,0.27,0.42c0.19,0.64,0.34,1.08,0.18,1.76
			c-0.27,1.13,0.72,2.12,1.85,1.85c0.33-0.08,0.66-0.16,0.99-0.24c-0.56-0.73-1.13-1.47-1.69-2.2c-1,1.48-2.37,2.52-3.58,3.79
			c0.61-0.08,1.21-0.16,1.82-0.23c-0.16-0.08-0.32-0.16-0.48-0.24c-0.6-0.3-1.33-0.26-1.82,0.23c-0.08,0.08-0.16,0.16-0.24,0.24
			c-0.81,0.81-0.41,2.19,0.66,2.51c1.76,0.52,3.51,1.05,5.27,1.57c1.11,0.33,2.13-0.76,1.85-1.85c-0.45-1.71-1.07-3.77-0.38-5.51
			c0.67-1.69,2.35-2.8,3.12-4.49c1.57-3.43,1.33-7.41,4.6-9.89c0.5-0.38,0.94-1.03,0.69-1.69c-0.21-0.57-0.42-1.14-0.64-1.71
			c-0.36-0.95-1.28-1.35-2.2-0.9c-1.55,0.75-2.79,2.01-3.52,3.58c-0.39,0.85-0.11,1.94,0.9,2.2c0.62,0.16,1.24,0.35,1.86,0.48
			c1.1,0.24,2.32-0.01,3.42-0.22c2.8-0.54,5.35-1.86,7.56-3.64c1.28-1.03-0.15-2.76-1.46-2.51c-1.07,0.21-2.13,0.45-3.18,0.77
			c-0.91,0.27-2.21,0.55-3.01,1.09c-0.83,0.56-0.86,1.7-1.05,2.6c-0.24,1.12,0.69,2.13,1.85,1.85c0.32-0.08,0.64-0.16,0.96-0.24
			c0.57-0.04,0.64-0.12,0.2-0.23c0.21-0.02,0.49,0.08,0.69,0.11c0.43,0.07,0.92,0.21,1.35,0.2c1.63-0.04,2.14-2.06,2.5-3.22
			c0.3-0.97,0.75-1.92,1.12-2.87c0.53-1.36,1.67-2.51,2.54-3.72c0.98-1.37-0.85-2.58-2.05-2.05c-0.34,0.15-0.68,0.3-1.03,0.45
			c0.39-0.05,0.77-0.1,1.16-0.15c-0.96-0.14-1.8-0.13-2.73,0.19c-0.96,0.34-1.61,1.74-0.66,2.51c0.39,0.32,0.77,0.65,1.18,0.95
			c0.98,0.72,2.05,0.33,3.17,0.17c-0.39-0.05-0.77-0.1-1.16-0.15c0.49,0.34,0.98,0.67,1.47,1.01c0.41,0.28,1.11,0.28,1.51,0
			c0.71-0.49,1.65-1.34,2.57-1.46c-0.6,0.08-0.07,0.22,0.28,0.19c0.33-0.03,0.66-0.07,0.98-0.14c0.77-0.18,1.49-0.53,2.13-0.98
			c0.97-0.68,0.95-1.9,0-2.59c-0.47-0.34-0.97-0.56-1.53-0.68c-1.88-0.4-2.69,2.49-0.8,2.89c0.36,0.08,0.52,0.15,0.82,0.37
			c0-0.86,0-1.73,0-2.59c-0.55,0.38-1.12,0.67-1.79,0.73c-0.53,0.04-0.96-0.03-1.47,0.14c-1,0.35-1.83,0.92-2.69,1.52
			c0.5,0,1.01,0,1.51,0c-0.44-0.3-0.87-0.65-1.34-0.92c-0.9-0.52-1.99-0.14-2.96,0.01c0.49,0.13,0.97,0.26,1.46,0.39
			c-0.4-0.33-0.81-0.65-1.21-0.98c-0.22,0.84-0.44,1.67-0.66,2.51c0.8-0.28,1.54-0.06,2.32-0.36c0.34-0.13,0.67-0.29,1-0.44
			c-0.68-0.68-1.37-1.37-2.05-2.05c-0.85,1.18-1.96,2.39-2.56,3.71c-0.18,0.4-0.32,0.82-0.48,1.23c-0.26,0.67-0.52,1.35-0.79,2.02
			c-0.25,0.64-0.28,1.31-0.81,1.81c0.49-0.13,0.97-0.26,1.46-0.39c-0.49-0.08-0.97-0.15-1.46-0.23c-1.02-0.15-1.96,0.2-2.94,0.45
			c0.62,0.62,1.23,1.23,1.85,1.85c0.12-0.57,0.24-1.14,0.37-1.71c-0.35,0.35-0.7,0.7-1.05,1.05c1.89-0.76,3.83-1.31,5.83-1.7
			c-0.49-0.84-0.97-1.67-1.46-2.51c-1.81,1.45-3.97,2.43-6.24,2.86c-0.73,0.14-1.4,0.26-2.09,0.15c-0.54-0.09-1.07-0.28-1.6-0.41
			c0.3,0.73,0.6,1.47,0.9,2.2c0.54-1.16,1.29-1.94,2.44-2.5c-0.73-0.3-1.47-0.6-2.2-0.9c0.21,0.57,0.42,1.14,0.64,1.71
			c0.23-0.56,0.46-1.13,0.69-1.69c-1.73,1.31-3.08,2.91-3.9,4.94c-0.84,2.06-0.95,4.39-1.95,6.39c-0.98,1.97-2.88,3.17-3.41,5.4
			c-0.52,2.18-0.02,4.42,0.54,6.54c0.62-0.62,1.23-1.23,1.85-1.85c-1.76-0.52-3.51-1.05-5.27-1.57c0.22,0.84,0.44,1.67,0.66,2.51
			c0.08-0.08,0.16-0.16,0.24-0.24c-0.61,0.08-1.21,0.16-1.82,0.23c0.16,0.08,0.32,0.16,0.48,0.24c0.59,0.29,1.34,0.27,1.82-0.23
			c1.4-1.47,2.9-2.69,4.05-4.4c0.76-1.14-0.49-2.49-1.69-2.2c-0.33,0.08-0.66,0.16-0.99,0.24c0.62,0.62,1.23,1.23,1.85,1.85
			c0.55-2.28-0.24-5.16-2.67-5.91c-0.6-0.18-1.41,0.11-1.69,0.69c-0.08,0.16-0.16,0.32-0.24,0.48c0.91,0.39,1.83,0.77,2.74,1.16
			c0.05-0.26,0.15-0.55,0.16-0.82c0.03-0.68,0.31,0.1-0.29,0.26c0.07-0.02,0.16-0.19,0.21-0.25c0.44-0.46,0.83-0.97,1.25-1.45
			c1.02-1.18,0.03-2.76-1.46-2.51c-0.07,0.01-0.13,0.02-0.2,0.03c0.49,0.13,0.97,0.26,1.46,0.39c-0.05-0.06-0.09-0.12-0.14-0.18
			c0.13,0.49,0.26,0.97,0.39,1.46c0.07-0.3,0.63-0.75,0.84-1c0.34-0.41,0.69-0.83,1.03-1.24c0.88-1.05,0.26-2.41-1.06-2.56
			c-0.81-0.09-1.62-0.18-2.44-0.28c0.25,0.93,0.5,1.86,0.76,2.8c0.78-0.56,1.29-1.12,1.85-1.92c0.38-0.54,0.96-1.12,1.05-1.8
			c0.05-0.4-0.07-0.85-0.14-1.25c-0.84,0.49-1.67,0.97-2.51,1.46c1.54,1.98-0.34,5.33-0.66,7.44c-0.45,2.91,0.17,5.88-0.34,8.78
			c0.62-0.35,1.23-0.7,1.85-1.05c-0.25-0.08-0.49-0.16-0.74-0.25c-0.76-0.25-1.65,0.3-1.85,1.05c-0.23,0.91-0.56,1.72-1.02,2.54
			c-0.83,1.46,1.15,3.06,2.36,1.82c0.16-0.16,0.32-0.33,0.47-0.49c-0.84-0.49-1.67-0.97-2.51-1.46c-0.14,0.89-0.07,1.56,0.36,2.36
			c0.56-0.73,1.13-1.47,1.69-2.2c-0.48-0.16-0.95-0.33-1.43-0.49c0.37,0.48,0.73,0.96,1.1,1.45c0-0.64,0-1.28,0-1.92
			c0-0.68-0.47-1.24-1.1-1.45c-0.25-0.08-0.5-0.16-0.75-0.24c-0.93-0.3-1.91,0.5-1.9,1.45c0.01,1.58,0.32,3.25,1.11,4.64
			c0.5,0.89,1.27,0.94,2.18,1.12c-0.3-0.73-0.6-1.47-0.9-2.2c-0.24,0.32-0.48,0.64-0.72,0.96c0.93,0.25,1.86,0.5,2.8,0.76
			c-0.32-4.17-0.65-8.34-0.97-12.5c-0.25,0.43-0.5,0.86-0.74,1.3c0.16-0.08,0.32-0.16,0.48-0.24c-0.39,0.05-0.77,0.1-1.16,0.15
			c1.76,0.25,3.53,0.5,5.29,0.75c1.39,0.2,2.61-1.34,1.46-2.51c-1.08-1.1-2.38-1.36-3.82-1.65c0.12,0.91,0.24,1.83,0.36,2.74
			c0.9-0.61,1.67-1.35,2.17-2.33c0.14-0.27,0.31-0.58,0.38-0.88c0.07-0.31,0.07-0.52-0.16-0.11c0.13-0.23,0.45-0.42,0.63-0.61
			c0.81-0.87,0.46-2.04,0.38-3.13c-0.12-1.48-0.24-2.97-0.36-4.45c-0.75,0.43-1.5,0.86-2.26,1.3c0.64,0.4,0.99,0.89,1.29,1.58
			c0.79-0.61,1.57-1.21,2.36-1.82c-0.66-0.65-1.31-1.31-1.97-1.96c0.08,0.61,0.16,1.21,0.23,1.82c0.55-0.73,1.1-1.47,1.65-2.2
			c0.06-0.08,0.9-1.05,0.33-0.59c0.16-0.13,0.38-0.22,0.56-0.33c1.1-0.65,1.83-1.46,2.2-2.72c-0.23,0.3-0.46,0.6-0.69,0.9
			c0.42-0.24,0.85-0.48,1.27-0.72c0.52-0.29,1.53-0.63,1.92-1.08c0.03-0.04,0.16-0.06,0.18-0.1c-0.13,0.28-1.14-0.34-0.87,0.06
			c0.11,0.16,0.69,0.31,0.86,0.39c0.55,0.25,1.11,0.51,1.66,0.76c0.55,0.25,1.38,0.31,1.82-0.23c0.85-1.06,1.56-1.73,1.23-3.13
			c-0.08-0.33-0.14-0.74-0.32-1.04c-0.42-0.7-1.49-0.99-2.19-1.31c0.1,0.79,0.2,1.57,0.3,2.36c0.51-0.58,1.02-1.15,1.53-1.73
			c-0.85-0.35-1.71-0.71-2.56-1.06c0.14,2.19,1.44,4.17,3.55,4.92c0.47,0.17,1.02,0.14,1.47,0.33c-0.28-0.12,0.06,0.08,0.15,0.17
			c0.22,0.21,0.52,0.37,0.7,0.6c0.29,0.37,0.51,1.05,0.74,1.49c0.24,0.46,0.79,0.74,1.3,0.74c1.86,0.01,3.94-0.2,5.75,0
			c0.98,0.1,1.99,0.46,2.94,0.68c0.93,0.21,1.78,0.33,2.52,0.82c0.72,0.48,1.6,0.09,2.05-0.54c0.64-0.89,1.28-1.77,1.93-2.66
			c-0.68,0.18-1.37,0.36-2.05,0.54c1.54,0.86,3.16,1.52,4.78,2.22c0.39-0.91,0.77-1.83,1.16-2.74c-0.98-0.37-1.62-0.58-2.51,0.03
			c-0.29,0.2-0.56,0.42-0.84,0.63c-0.13,0.1-0.29,0.19-0.41,0.31c-0.18,0.17-0.36,0.09,0.08,0.02c0.62,0.35,1.23,0.7,1.85,1.05
			c-0.01-0.03-0.02-0.06-0.03-0.09c-0.13,0.49-0.26,0.97-0.39,1.46c0.02-0.02,0.04-0.04,0.06-0.06c-0.61,0.08-1.21,0.16-1.82,0.23
			c0.04,0.03,0.09,0.06,0.13,0.08c-0.23-0.3-0.46-0.6-0.69-0.9c0.29,0.82,0.38,1.78,0.54,2.63c0.12,0.61,0.83,1.14,1.45,1.1
			c1.21-0.08,2.42-0.16,3.63-0.24c-0.35-0.15-0.71-0.29-1.06-0.44c1.34,1.71,2.48,3.48,4.74,4.01c-0.3-0.23-0.6-0.46-0.9-0.69
			c0.69,1.03,1.75,1.24,2.88,1.64c1.19,0.42,2-0.82,1.85-1.85c-0.36-2.28-0.73-4.36-2.59-5.92c-2.07-1.75-4.41-3.23-6.6-4.82
			c-0.97-0.7-1.91-1.47-3.04-1.9c-1.08-0.42-2.25-0.5-3.4-0.51c-2.81-0.03-5.61,0.11-8.4,0.37c0.48,0.37,0.96,0.73,1.45,1.1
			c-0.09-0.59-0.18-1.18-0.27-1.77c-0.48,0.63-0.96,1.27-1.45,1.9c0.88,0,1.76,0,2.64,0c1.21,0,2.09-1.7,1.06-2.56
			c-0.41-0.34-0.82-0.68-1.22-1.02c-0.22,0.84-0.44,1.67-0.66,2.51c2.16-0.77,4.3-1.04,6.58-0.82c-0.35-0.15-0.71-0.29-1.06-0.44
			c0.37,0.43,0.72,0.89,1.12,1.29c0.84,0.83,2.51,0.81,3.62,1.02c-0.35-0.35-0.7-0.7-1.05-1.05c0.16,0.47,0.32,0.94,0.49,1.41
			c0.22,0.63,0.76,1.1,1.45,1.1c0.4,0,0.92-0.09,1.32,0c0.42,0.1,0.91,0.4,1.33,0.56c1.15,0.44,2.29,0.87,3.44,1.31
			c0.92,0.35,1.91-0.55,1.9-1.45c0-0.24,0-0.47-0.01-0.71c-0.75,0.43-1.5,0.86-2.26,1.3c1.41,0.71,2.73,1.57,4.07,2.39
			c-0.25-0.43-0.5-0.86-0.74-1.3c0.04,1.35,0.22,2.68,0.56,4c0.17,0.64,0.8,1.1,1.45,1.1c0.24,0,0.47,0,0.71,0
			c-0.43-0.25-0.86-0.5-1.3-0.74c0.44,0.67,0.88,1.33,1.32,2c0.1,0.16,0.34,0.48,0.37,0.59c0.09,0.33-0.12,0.57-0.1,0.85
			c0.46-0.13,0.52-0.15,0.18-0.07c-0.1,0.02-0.2,0.05-0.3,0.07c-1.35,0.31-1.35,2.05-0.36,2.74c1.4,0.98,3.91,3.57,5.59,1.79
			c0.83-0.88,0.38-2.1-0.66-2.51c-1.61-0.63-3.23-1.26-4.84-1.89c-1.21-0.47-2.39,1.16-1.69,2.2c0.03,0.04,0.05,0.08,0.08,0.12
			c0-0.5,0-1.01,0-1.51c-0.05,0.07-0.1,0.14-0.16,0.21c0.3-0.23,0.6-0.46,0.9-0.69c-0.08,0.01-0.15,0.03-0.23,0.04
			c-0.47,0.09-0.96,0.58-1.05,1.05c-0.21,1.14-0.41,2.27-0.62,3.41c-0.14,0.78,0.2,1.64,1.05,1.85c0.32,0.08,0.64,0.16,0.96,0.23
			c-0.35-0.62-0.7-1.23-1.05-1.85c-0.22,0.71-0.55,1.47-0.67,2.21c-0.23,1.45,0.48,3.06,1.09,4.36c0.29,0.62-0.06,0.12-0.01,0.01
			c-0.11,0.21,0.04,0.65,0.08,0.88c0.07,0.42,0.11,0.88,0.28,1.27c0.31,0.71,1.25,1.61,1.88,2.06c0.34,0.24,0.61,0.22,0.99,0.32
			c0.79,0.21-0.53-0.35,0.39,0.26c-0.25-0.43-0.5-0.86-0.74-1.3c0,0.56,0,1.11,0.01,1.67c0.85-0.35,1.71-0.71,2.56-1.06
			c-1.61-1.29-3.23-2.58-4.84-3.87c0.08,0.61,0.16,1.21,0.23,1.82c0.57-0.83-0.38-0.05,0.16-0.28c0.25-0.11,0.48-0.25,0.72-0.37
			c0.81-0.42,1.63-0.85,2.44-1.27c1.2-0.62,2.39-1.24,3.59-1.86c-0.61-0.79-1.21-1.57-1.82-2.36c-0.73,0.67-1.33,1.43-1.84,2.29
			c0.43-0.25,0.86-0.5,1.3-0.74c-0.53,0.05-1.07,0.11-1.6,0.16c0.48,0.63,0.96,1.27,1.45,1.9c0.7-1.77,0.16-3.62-0.76-5.2
			c-0.59-1.01-2.55-0.97-2.74,0.36c-0.02,0.17,0.58,0.02-0.01,0.07c-0.17,0.01-0.36-0.01-0.53-0.01c-0.9-0.02-1.8,0.99-1.45,1.9
			c1.07,2.78,2.97,4.67,5.03,6.7c0.61-0.79,1.21-1.57,1.82-2.36c-0.16-0.08-0.32-0.16-0.48-0.24c0.25,0.43,0.5,0.86,0.74,1.3
			c0-0.15-0.01-0.3-0.01-0.45c-0.02-0.81-0.67-1.5-1.5-1.5c-0.16,0-0.32,0-0.48,0c-0.73,0-1.6,0.69-1.5,1.5
			c0.03,0.25,0.06,0.51,0.1,0.76c0.21,1.64,2.36,2.08,2.95,0.4c0.73-2.08,1.43-4.29,1.22-6.53c-0.1-1.08-0.4-2.1-0.93-3.05
			c-0.5-0.9-1.23-1.66-1.69-2.59c-0.93-1.9-0.95-4.08-2.03-5.96c-1.06-1.83-2.62-3.3-4.26-4.6c-1.72-1.37-3.5-2.84-5.5-3.78
			c-1.97-0.93-4.09-1.17-6.25-1.25c-5.15-0.18-10.31-0.25-15.46-0.38c0.35,0.85,0.71,1.71,1.06,2.56c0.08-0.07,0.16-0.14,0.23-0.21
			c0.98-0.89,0.19-2.56-1.06-2.56c-0.64,0-1.28,0-1.92,0c-0.77,0-1.56,0.69-1.5,1.5c0.01,0.07,0.01,0.15,0.02,0.22
			c0.5-0.5,1-1,1.5-1.5c-3.37-0.43-6.03,2.09-8.31,4.2c-1.3,1.21-2.78,2.36-3.93,3.72c-0.44,0.52-0.78,1.1-0.94,1.76
			c-0.21,0.82-0.01,1.69-0.28,2.49c0.96,0.27,1.93,0.53,2.89,0.8c0.01-0.1,0.03-0.19,0.04-0.29c-0.84,0.22-1.67,0.44-2.51,0.66
			c0.55,0.59,0.97,1.21,1.34,1.93c0.56-0.73,1.13-1.47,1.69-2.2c-0.72-0.2-1.44-0.4-2.17-0.59c0.22,0.84,0.44,1.67,0.66,2.51
			c1.74-1.45,3.47-2.91,5.21-4.36c0.76-0.64,0.47-1.9-0.3-2.36c-2.34-1.4-4.69-2.8-7.03-4.2c0.23,0.3,0.46,0.6,0.69,0.9
			c-0.08-0.48-0.17-0.96-0.25-1.44C28.94,21.18,26.04,21.98,26.37,23.88L26.37,23.88z"/>
	</g>
</g>
<g>
	<g>
		<path class="st17" d="M44.82,22.38c0.16,0.19,0.34,0.37,0.54,0.53c0.28,0.23,0.58,0.46,0.9,0.64c0.54,0.3,1.14,0.53,1.75,0.62
			c0.2,0.06,0.4,0.07,0.6,0.03c0.2-0.01,0.39-0.07,0.56-0.18c0.31-0.18,0.61-0.54,0.69-0.9c0.09-0.38,0.07-0.81-0.15-1.16
			c-0.2-0.31-0.52-0.63-0.9-0.69c-0.34-0.05-0.68-0.15-1-0.28c0.12,0.05,0.24,0.1,0.36,0.15c-0.32-0.14-0.62-0.31-0.89-0.52
			c0.1,0.08,0.2,0.16,0.3,0.23c-0.23-0.18-0.44-0.38-0.63-0.61c-0.24-0.28-0.71-0.44-1.06-0.44c-0.37,0-0.81,0.16-1.06,0.44
			c-0.26,0.29-0.46,0.66-0.44,1.06c0.02,0.13,0.04,0.27,0.05,0.4C44.5,21.97,44.63,22.19,44.82,22.38L44.82,22.38z"/>
	</g>
</g>
<g>
	<g>
		<path class="st17" d="M51.86,24.72c0.79,0.03,1.57-0.13,2.35-0.24c0.19-0.03,0.22-0.03,0.09-0.01c0.11-0.01,0.22-0.02,0.34-0.03
			c0.17-0.01,0.34-0.02,0.5-0.02c0.36,0,0.73,0.01,1.09,0.05c0.08,0.01,0.17,0.02,0.25,0.03c-0.12-0.02-0.09-0.01,0.1,0.02
			c0.17,0.03,0.33,0.06,0.5,0.09c0.36,0.07,0.72,0.16,1.08,0.25c0.74,0.19,1.47,0.42,2.21,0.65c0.75,0.23,1.67-0.28,1.85-1.05
			c0.19-0.82-0.25-1.59-1.05-1.85c-1.57-0.49-3.13-0.93-4.76-1.12c-0.75-0.09-1.51-0.09-2.26,0c-0.46,0.06-0.91,0.14-1.37,0.2
			c0.22-0.03-0.26,0.03-0.25,0.02c-0.22,0.02-0.43,0.02-0.65,0.01c-0.78-0.03-1.54,0.71-1.5,1.5
			C50.39,24.06,51.02,24.69,51.86,24.72L51.86,24.72z"/>
	</g>
</g>
<g>
	<g>
		<path class="st17" d="M62.29,26.33c1.48,0.79,2.89,1.69,4.24,2.7c0.39-0.91,0.77-1.83,1.16-2.74c-0.96-0.2-1.91-0.41-2.87-0.61
			c-0.77-0.16-1.66,0.23-1.85,1.05c-0.18,0.77,0.23,1.65,1.05,1.85c1.22,0.3,2.45,0.61,3.62,1.08c-0.34-0.14,0.15,0.07,0.21,0.1
			c0.11,0.05,0.22,0.11,0.33,0.16c0.29,0.15,0.57,0.32,0.84,0.5c0.1,0.07,0.2,0.14,0.3,0.21c-0.29-0.21,0.12,0.1,0.17,0.15
			c0.25,0.22,0.47,0.46,0.68,0.71c0.51,0.6,1.6,0.56,2.12,0c0.59-0.64,0.54-1.48,0-2.12c-1.86-2.21-4.78-3.03-7.48-3.68
			c-0.27,0.96-0.53,1.93-0.8,2.89c0.96,0.2,1.91,0.41,2.87,0.61c0.74,0.16,1.47-0.16,1.77-0.87c0.31-0.74-0.01-1.42-0.61-1.87
			c-1.34-1.01-2.76-1.91-4.24-2.7c-0.69-0.37-1.66-0.2-2.05,0.54C61.38,24.97,61.55,25.93,62.29,26.33L62.29,26.33z"/>
	</g>
</g>
<g>
	<g>
		<path class="st17" d="M72.81,33.7c0.69,0.93,1.32,1.89,1.89,2.89c0.29,0.5,0.56,1.01,0.82,1.52c0.12,0.24,0.24,0.48,0.35,0.73
			c0.06,0.14,0.13,0.28,0.19,0.42c0.03,0.07,0.06,0.14,0.09,0.21c0.1,0.25,0.08,0.13-0.07-0.36c0.07-0.25,0.14-0.5,0.2-0.76
			c0.15-0.23,0.35-0.39,0.6-0.48c0.13-0.04,0.26-0.04,0.39,0c-0.07-0.01-0.13-0.03-0.2-0.05c0.19,0.09,0.22,0.09,0.07,0.02
			c-0.07-0.05-0.5-0.27-0.15-0.08c-0.11-0.06-0.21-0.18-0.3-0.26c-0.46-0.41-0.9-0.83-1.34-1.27c-0.55-0.56-1.58-0.59-2.12,0
			c-0.55,0.6-0.59,1.52,0,2.12c0.85,0.87,1.78,1.89,2.95,2.32c0.78,0.29,1.77,0.2,2.39-0.39c0.4-0.39,0.56-0.92,0.48-1.47
			c-0.05-0.4-0.26-0.76-0.42-1.13c-0.88-1.95-1.96-3.8-3.23-5.51c-0.24-0.32-0.49-0.58-0.9-0.69c-0.36-0.1-0.84-0.05-1.16,0.15
			C72.72,32.05,72.31,33.02,72.81,33.7L72.81,33.7z"/>
	</g>
</g>
<g>
	<g>
		<path class="st17" d="M58.54,25.64c0,0.4,0,0.8,0,1.2c-0.01,0.21,0.04,0.4,0.13,0.58c0.06,0.19,0.16,0.35,0.31,0.48
			c0.14,0.15,0.3,0.25,0.48,0.31c0.18,0.09,0.37,0.14,0.58,0.13c0.13-0.02,0.27-0.04,0.4-0.05c0.25-0.07,0.47-0.2,0.66-0.39
			c0.08-0.1,0.16-0.2,0.23-0.3c0.14-0.23,0.2-0.49,0.2-0.76c0-0.4,0-0.8,0-1.2c0.01-0.21-0.04-0.4-0.13-0.58
			c-0.06-0.19-0.16-0.35-0.31-0.48c-0.14-0.15-0.3-0.25-0.48-0.31c-0.18-0.09-0.37-0.14-0.58-0.13c-0.13,0.02-0.27,0.04-0.4,0.05
			c-0.25,0.07-0.47,0.2-0.66,0.39c-0.08,0.1-0.16,0.2-0.23,0.3C58.61,25.12,58.54,25.37,58.54,25.64L58.54,25.64z"/>
	</g>
</g>
<g>
	<g>
		<path class="st17" d="M23.58,46.73c-0.06,0.41-0.13,0.83-0.09,1.25c0.05,0.43,0.11,0.69,0.29,1.08c0.11,0.23,0.27,0.44,0.45,0.61
			c0.36,0.33,0.79,0.55,1.26,0.68c0.27,0.07,0.54,0.12,0.8,0.22c-0.12-0.05-0.24-0.1-0.36-0.15c0.1,0.04,0.2,0.1,0.29,0.16
			c-0.1-0.08-0.2-0.16-0.3-0.23c0.03,0.03,0.06,0.06,0.09,0.09c-0.08-0.1-0.16-0.2-0.23-0.3c0.02,0.02,0.03,0.05,0.04,0.07
			c-0.05-0.12-0.1-0.24-0.15-0.36c0,0.01,0.01,0.03,0.01,0.04c-0.02-0.13-0.04-0.27-0.05-0.4c0,0.01,0,0.03,0,0.04
			c0.02-0.13,0.04-0.27,0.05-0.4c0,0.01-0.01,0.03-0.01,0.04c0.05-0.12,0.1-0.24,0.15-0.36c-0.01,0.03-0.03,0.05-0.05,0.08
			c0.08-0.1,0.16-0.2,0.23-0.3c-0.06,0.07-0.14,0.13-0.22,0.19c0.1-0.08,0.2-0.16,0.3-0.23c-0.15,0.11-0.3,0.2-0.47,0.27
			c0.12-0.05,0.24-0.1,0.36-0.15c-0.17,0.07-0.34,0.11-0.52,0.14c0.13-0.02,0.27-0.04,0.4-0.05c-0.2,0.03-0.39,0.03-0.59,0
			c0.13,0.02,0.27,0.04,0.4,0.05c-0.02,0-0.03-0.01-0.05-0.01c-0.2-0.06-0.4-0.07-0.6-0.03c-0.2,0.01-0.39,0.07-0.56,0.18
			c-0.31,0.18-0.61,0.54-0.69,0.9c-0.09,0.38-0.07,0.81,0.15,1.16c0.2,0.31,0.52,0.63,0.9,0.69c0.63,0.1,1.26,0.12,1.87-0.1
			c0.73-0.26,1.49-0.7,1.8-1.44c0.27-0.65,0.12-1.45-0.42-1.92c-0.33-0.29-0.61-0.43-1.02-0.59c-0.33-0.12-0.68-0.16-1-0.29
			c0.12,0.05,0.24,0.1,0.36,0.15c-0.1-0.04-0.19-0.09-0.28-0.16c0.1,0.08,0.2,0.16,0.3,0.23c-0.06-0.04-0.1-0.09-0.15-0.15
			c0.08,0.1,0.16,0.2,0.23,0.3c-0.06-0.07-0.1-0.15-0.14-0.23c0.05,0.12,0.1,0.24,0.15,0.36c-0.04-0.1-0.06-0.2-0.08-0.31
			c0.02,0.13,0.04,0.27,0.05,0.4c-0.03-0.27-0.01-0.54,0.03-0.8c-0.02,0.13-0.04,0.27-0.05,0.4c0-0.02,0-0.03,0.01-0.05
			c0.06-0.2,0.07-0.4,0.03-0.6c-0.01-0.2-0.07-0.39-0.18-0.56c-0.18-0.31-0.54-0.61-0.9-0.69c-0.38-0.09-0.81-0.07-1.16,0.15
			C23.97,46.03,23.63,46.35,23.58,46.73L23.58,46.73z"/>
	</g>
</g>
<g>
	<g>
		<path class="st17" d="M25.48,38.05c0.81-2.01,1.61-4.03,2.42-6.04c0.41-1.03,0.86-2.01,0.71-3.15c-0.14-1.05-0.68-1.96-1.28-2.81
			c-0.47-0.66-1.31-0.97-2.05-0.54c-0.65,0.38-1.01,1.39-0.54,2.05c0.25,0.35,0.49,0.7,0.7,1.08c0.12,0.23,0.25,0.55,0.22,0.77
			c-0.08,0.69-0.6,1.67-0.89,2.4c-0.73,1.82-1.46,3.63-2.18,5.45c-0.3,0.75,0.33,1.65,1.05,1.85C24.49,39.33,25.18,38.8,25.48,38.05
			L25.48,38.05z"/>
	</g>
</g>
<g>
	<g>
		<path class="st17" d="M28.46,27.16c2.22,0.6,4.16-0.95,5.25-2.74c0.46-0.75,0.85-1.53,1.34-2.27c0.18-0.27-0.18,0.22,0-0.01
			c0.14-0.17,0.29-0.34,0.41-0.53c0.15-0.23,0.27-0.49,0.33-0.76c0.21-0.87-0.15-1.82-0.94-2.27c-0.68-0.39-1.67-0.19-2.05,0.54
			c-0.37,0.71-0.19,1.64,0.54,2.05c-0.28-0.16-0.48-0.57-0.49-0.88c0.01,0.23,0.06-0.19,0.07-0.26c0.06-0.12,0.05-0.12-0.01-0.01
			c-0.02,0.03-0.03,0.05-0.05,0.08c0.13-0.16,0.16-0.2,0.09-0.12c-0.03,0.04-0.06,0.07-0.09,0.11c-0.27,0.33-0.52,0.67-0.74,1.04
			c-0.37,0.61-0.68,1.25-1.06,1.85c-0.09,0.14-0.18,0.28-0.28,0.41c-0.14,0.2-0.07,0.04,0.04-0.04c-0.06,0.05-0.12,0.15-0.18,0.21
			c-0.1,0.11-0.21,0.22-0.33,0.32c-0.03,0.03-0.07,0.06-0.11,0.09c-0.09,0.07-0.05,0.04,0.12-0.09c-0.05,0-0.15,0.11-0.19,0.13
			c-0.14,0.09-0.3,0.15-0.43,0.24c0.05-0.03,0.31-0.11,0.11-0.05c-0.08,0.03-0.17,0.05-0.25,0.07c-0.06,0.01-0.32,0.06-0.06,0.02
			c0.26-0.04,0-0.01-0.06-0.01c-0.08,0-0.18-0.02-0.26-0.01c0.08,0.01,0.15,0.02,0.23,0.03c-0.06-0.01-0.12-0.03-0.17-0.04
			c-0.76-0.2-1.66,0.25-1.85,1.05C27.23,26.1,27.65,26.94,28.46,27.16L28.46,27.16z"/>
	</g>
</g>
<g>
	<g>
		<path class="st17" d="M56.75,19.48c1.44,0.25,2.9,0.4,4.37,0.39c0.78,0,1.54-0.69,1.5-1.5c-0.04-0.81-0.66-1.5-1.5-1.5
			c-1.02,0-2.05-0.06-3.06-0.2c0.13,0.02,0.27,0.04,0.4,0.05c-0.3-0.04-0.61-0.09-0.91-0.14c-0.41-0.07-0.79-0.06-1.16,0.15
			c-0.31,0.18-0.61,0.54-0.69,0.9c-0.09,0.38-0.07,0.81,0.15,1.16C56.05,19.1,56.37,19.41,56.75,19.48L56.75,19.48z"/>
	</g>
</g>
<g>
	<g>
		<path class="st17" d="M63.01,21.89c0.35-0.35,0.66-0.74,0.95-1.14c0.22-0.31,0.42-0.63,0.59-0.96c0.11-0.17,0.17-0.36,0.18-0.56
			c0.04-0.2,0.04-0.4-0.03-0.6c-0.05-0.2-0.14-0.37-0.27-0.51c-0.11-0.16-0.25-0.29-0.42-0.39c-0.35-0.18-0.77-0.28-1.16-0.15
			c-0.36,0.12-0.72,0.34-0.9,0.69c-0.2,0.39-0.44,0.77-0.71,1.12c0.08-0.1,0.16-0.2,0.23-0.3c-0.19,0.24-0.39,0.47-0.6,0.68
			c-0.27,0.27-0.44,0.68-0.44,1.06c-0.01,0.21,0.04,0.4,0.13,0.58c0.06,0.19,0.16,0.35,0.31,0.48c0.29,0.26,0.66,0.46,1.06,0.44
			C62.35,22.31,62.72,22.18,63.01,21.89L63.01,21.89z"/>
	</g>
</g>
<g>
	<g>
		<path class="st17" d="M67.23,23.11c0.05-0.05,0.09-0.11,0.14-0.16c0.11-0.15,0.24-0.29,0.34-0.45c0.14-0.22,0.24-0.47,0.34-0.71
			c0.05-0.13,0.09-0.26,0.12-0.39c0.04-0.19,0.06-0.38,0.08-0.57c0.01-0.07,0.01-0.15,0.01-0.22c0.01-0.21-0.04-0.4-0.13-0.58
			c-0.06-0.19-0.16-0.35-0.31-0.48c-0.14-0.15-0.3-0.25-0.48-0.31c-0.18-0.09-0.37-0.14-0.58-0.13c-0.13,0.02-0.27,0.04-0.4,0.05
			c-0.25,0.07-0.47,0.2-0.66,0.39c-0.08,0.1-0.16,0.2-0.23,0.3c-0.14,0.23-0.2,0.49-0.2,0.76c0,0.09-0.01,0.17-0.02,0.26
			c0.02-0.13,0.04-0.27,0.05-0.4c-0.03,0.19-0.08,0.37-0.15,0.54c0.05-0.12,0.1-0.24,0.15-0.36c-0.07,0.17-0.17,0.34-0.28,0.49
			c0.08-0.1,0.16-0.2,0.23-0.3c-0.04,0.06-0.09,0.11-0.14,0.16c-0.15,0.14-0.25,0.3-0.31,0.48c-0.09,0.18-0.14,0.37-0.13,0.58
			c-0.01,0.21,0.04,0.4,0.13,0.58c0.06,0.19,0.16,0.35,0.31,0.48c0.1,0.08,0.2,0.16,0.3,0.23c0.23,0.14,0.49,0.2,0.76,0.2
			c0.13-0.02,0.27-0.04,0.4-0.05C66.82,23.42,67.04,23.29,67.23,23.11L67.23,23.11z"/>
	</g>
</g>
<g>
	<g>
		<path class="st17" d="M69.09,25.57c0.25,0.11,0.49,0.23,0.76,0.27c0.28,0.04,0.54,0.09,0.82,0.06c0.28-0.03,0.55-0.06,0.81-0.16
			c0.17-0.07,0.37-0.14,0.53-0.24c0.16-0.09,0.32-0.23,0.47-0.34c0.42-0.34,0.68-0.82,0.87-1.32c0.1-0.25,0.13-0.53,0.15-0.8
			c0.03-0.27-0.02-0.54-0.07-0.81c-0.05-0.2-0.14-0.37-0.27-0.51c-0.11-0.16-0.25-0.29-0.42-0.39c-0.17-0.11-0.36-0.17-0.56-0.18
			c-0.2-0.04-0.4-0.04-0.6,0.03c-0.36,0.12-0.71,0.34-0.9,0.69c-0.05,0.12-0.1,0.24-0.15,0.36c-0.07,0.27-0.07,0.53,0,0.8
			c0,0.02,0.01,0.04,0.01,0.06c-0.02-0.13-0.04-0.27-0.05-0.4c0.02,0.13,0.01,0.25,0,0.38c0.02-0.13,0.04-0.27,0.05-0.4
			c-0.02,0.14-0.05,0.27-0.11,0.4c0.05-0.12,0.1-0.24,0.15-0.36c-0.05,0.13-0.12,0.25-0.21,0.36c0.08-0.1,0.16-0.2,0.23-0.3
			c-0.08,0.1-0.17,0.19-0.27,0.27c0.1-0.08,0.2-0.16,0.3-0.23c-0.1,0.08-0.22,0.14-0.34,0.19c0.12-0.05,0.24-0.1,0.36-0.15
			c-0.12,0.05-0.25,0.08-0.37,0.1c0.13-0.02,0.27-0.04,0.4-0.05c-0.14,0.02-0.28,0.02-0.42,0c0.13,0.02,0.27,0.04,0.4,0.05
			c-0.14-0.02-0.27-0.06-0.4-0.11c0.12,0.05,0.24,0.1,0.36,0.15c-0.01,0-0.02-0.01-0.03-0.01c-0.17-0.11-0.36-0.17-0.56-0.18
			c-0.2-0.04-0.4-0.04-0.6,0.03c-0.35,0.1-0.73,0.36-0.9,0.69c-0.18,0.35-0.28,0.77-0.15,1.16c0.05,0.12,0.1,0.24,0.15,0.36
			C68.68,25.26,68.86,25.43,69.09,25.57L69.09,25.57z"/>
	</g>
</g>
<g>
	<g>
		<path class="st17" d="M65.58,20.68c-0.23-0.57-0.45-1.13-0.68-1.7c-0.05-0.2-0.14-0.37-0.27-0.51c-0.11-0.16-0.25-0.29-0.42-0.39
			c-0.17-0.11-0.36-0.17-0.56-0.18c-0.2-0.04-0.4-0.04-0.6,0.03c-0.36,0.12-0.71,0.34-0.9,0.69c-0.05,0.12-0.1,0.24-0.15,0.36
			c-0.07,0.27-0.07,0.53,0,0.8c0.23,0.57,0.45,1.13,0.68,1.7c0.05,0.2,0.14,0.37,0.27,0.51c0.11,0.16,0.25,0.29,0.42,0.39
			c0.17,0.11,0.36,0.17,0.56,0.18c0.2,0.04,0.4,0.04,0.6-0.03c0.36-0.12,0.71-0.34,0.9-0.69c0.05-0.12,0.1-0.24,0.15-0.36
			C65.65,21.21,65.65,20.94,65.58,20.68L65.58,20.68z"/>
	</g>
</g>
<g>
	<g>
		<path class="st17" d="M28.85,31.59c-0.58,0.89-0.76,1.96-1.15,2.93c0.05-0.12,0.1-0.24,0.15-0.36c-0.19,0.46-0.44,0.87-0.73,1.28
			c-0.1,0.15,0.21-0.25,0.09-0.11c-0.04,0.05-0.08,0.1-0.13,0.15c-0.08,0.09-0.16,0.18-0.24,0.26c-0.18,0.18-0.36,0.35-0.56,0.51
			c-0.28,0.23-0.44,0.72-0.44,1.06c0,0.37,0.16,0.81,0.44,1.06c0.29,0.26,0.66,0.46,1.06,0.44c0.42-0.02,0.73-0.18,1.06-0.44
			c0.73-0.59,1.36-1.36,1.8-2.19c0.47-0.88,0.67-1.85,1.04-2.77c-0.05,0.12-0.1,0.24-0.15,0.36c0.1-0.23,0.21-0.45,0.35-0.67
			c0.43-0.66,0.15-1.69-0.54-2.05C30.16,30.66,29.31,30.89,28.85,31.59L28.85,31.59z"/>
	</g>
</g>
<g>
	<g>
		<path class="st17" d="M31.75,35.58c0.87-0.19,1.51-0.81,2-1.52c0.35-0.5,0.59-1.06,0.93-1.56c0.05-0.07,0.13-0.14,0.15-0.21
			c-0.04,0.05-0.08,0.11-0.13,0.16c0.04-0.05,0.07-0.09,0.11-0.14c0.1-0.12,0.21-0.25,0.32-0.36c0.23-0.25,0.47-0.49,0.73-0.71
			c0.26-0.24,0.54-0.47,0.82-0.69c0.14-0.11,0.28-0.22,0.42-0.33c-0.09,0.08-0.24,0.18-0.06,0.04c0.08-0.06,0.16-0.13,0.25-0.19
			c0.32-0.25,0.58-0.49,0.69-0.9c0.1-0.36,0.05-0.84-0.15-1.16c-0.21-0.32-0.51-0.6-0.9-0.69c-0.37-0.08-0.84-0.09-1.16,0.15
			c-1.16,0.88-2.34,1.76-3.24,2.92c-0.45,0.58-0.79,1.18-1.16,1.8c-0.07,0.12-0.14,0.23-0.22,0.34c-0.15,0.21,0.07-0.05,0.08-0.1
			c-0.02,0.05-0.1,0.12-0.14,0.16c-0.04,0.05-0.11,0.09-0.15,0.14c0.19-0.24,0.25-0.17,0.09-0.08c-0.15,0.09-0.23,0.01,0.12-0.03
			c-0.07,0.01-0.14,0.04-0.2,0.06c-0.77,0.17-1.29,1.1-1.05,1.85C30.17,35.34,30.93,35.77,31.75,35.58L31.75,35.58z"/>
	</g>
</g>
<g>
	<g>
		<path class="st17" d="M37.36,29.27c1.24,0.09,2.48,0.17,3.72,0.26c0.37,0.03,0.81-0.19,1.06-0.44c0.26-0.26,0.46-0.69,0.44-1.06
			c-0.02-0.39-0.14-0.79-0.44-1.06c-0.3-0.28-0.65-0.41-1.06-0.44c-1.24-0.09-2.48-0.17-3.72-0.26c-0.37-0.03-0.81,0.19-1.06,0.44
			c-0.26,0.26-0.46,0.69-0.44,1.06c0.02,0.39,0.14,0.79,0.44,1.06C36.61,29.11,36.95,29.24,37.36,29.27L37.36,29.27z"/>
	</g>
</g>
<g>
	<g>
		<path class="st17" d="M41.24,26.43c0.26,0.21,0.51,0.43,0.77,0.64c0.42,0.34,0.81,0.72,1.33,0.9c0.03,0.01,0.05,0.02,0.08,0.02
			c0.13,0.03,0.33,0.06,0.46,0.06c0.26-0.01,0.48-0.06,0.71-0.16c0.28-0.12,0.52-0.28,0.72-0.51c0.23-0.26,0.46-0.52,0.69-0.78
			c0.27-0.3,0.44-0.65,0.44-1.06c0-0.37-0.16-0.81-0.44-1.06c-0.29-0.26-0.66-0.46-1.06-0.44c-0.38,0.02-0.8,0.14-1.06,0.44
			c-0.14,0.16-0.29,0.33-0.43,0.49c-0.13,0.14-0.25,0.3-0.4,0.43c0.1-0.08,0.2-0.16,0.3-0.23c-0.03,0.02-0.06,0.04-0.1,0.06
			c0.12-0.05,0.24-0.1,0.36-0.15c-0.02,0.01-0.05,0.02-0.07,0.02c0.13-0.02,0.27-0.04,0.4-0.05c-0.03,0.01-0.06,0.01-0.08,0
			c0.13,0.02,0.27,0.04,0.4,0.05c-0.04-0.01-0.08-0.02-0.12-0.03c0.12,0.05,0.24,0.1,0.36,0.15c-0.07-0.03-0.13-0.07-0.19-0.11
			c0.1,0.08,0.2,0.16,0.3,0.23c-0.43-0.33-0.84-0.69-1.25-1.04c-0.14-0.15-0.3-0.25-0.48-0.31c-0.18-0.09-0.37-0.14-0.58-0.13
			c-0.37,0-0.81,0.16-1.06,0.44c-0.26,0.29-0.46,0.66-0.44,1.06C40.82,25.75,40.94,26.18,41.24,26.43L41.24,26.43z"/>
	</g>
</g>
<g>
	<g>
		<path class="st17" d="M46.3,27.62c1.31,0.36,2.64,0.17,3.98,0.25c0.09,0.01,0.59,0,0.19,0.01c0.14,0,0.32,0.06,0.46,0.1
			c0.04,0.01,0.31,0.07,0.34,0.11c-0.17-0.08-0.18-0.08-0.03-0.01c0.07,0.03,0.15,0.07,0.22,0.1c0.85,0.4,1.67,0.7,2.61,0.45
			c0.76-0.2,1.3-1.08,1.05-1.85c-0.25-0.78-1.03-1.27-1.85-1.05c-0.17,0.04-0.15,0.04,0.06,0c-0.17-0.01-0.15,0,0.06,0.01
			c-0.03,0.02-0.47-0.16-0.27-0.08c0.19,0.08-0.23-0.11-0.27-0.13c-0.23-0.11-0.46-0.21-0.69-0.3c-0.6-0.23-1.25-0.32-1.89-0.36
			c-0.56-0.03-1.12-0.01-1.68,0c-0.28,0-0.56,0-0.84-0.02c-0.08-0.01-0.16-0.01-0.24-0.02c0.2,0.03,0.22,0.03,0.05,0
			c-0.16-0.03-0.31-0.06-0.46-0.11c-0.76-0.21-1.66,0.26-1.85,1.05C45.07,26.57,45.49,27.4,46.3,27.62L46.3,27.62z"/>
	</g>
</g>
<g>
	<g>
		<path class="st17" d="M55.15,27.9c0.56,0.71,1.3,1.31,2.09,1.74c0.92,0.51,1.89,0.78,2.92,0.89c0.36,0.04,0.82-0.2,1.06-0.44
			c0.26-0.26,0.46-0.69,0.44-1.06c-0.02-0.39-0.14-0.79-0.44-1.06c-0.1-0.08-0.2-0.16-0.3-0.23c-0.23-0.14-0.49-0.2-0.76-0.2
			c-0.04,0-0.08-0.01-0.12-0.01c0.13,0.02,0.27,0.04,0.4,0.05c-0.51-0.07-1.01-0.21-1.49-0.4c0.12,0.05,0.24,0.1,0.36,0.15
			c-0.48-0.2-0.92-0.46-1.33-0.78c0.1,0.08,0.2,0.16,0.3,0.23c-0.37-0.29-0.71-0.63-1.01-1c-0.22-0.28-0.72-0.44-1.06-0.44
			c-0.37,0-0.81,0.16-1.06,0.44c-0.26,0.29-0.46,0.66-0.44,1.06c0.02,0.13,0.04,0.27,0.05,0.4C54.83,27.49,54.96,27.71,55.15,27.9
			L55.15,27.9z"/>
	</g>
</g>
<g>
	<g>
		<path class="st17" d="M40.57,26.76c-0.65,0.16-1.28,0.4-1.88,0.7c-0.61,0.29-1.14,0.67-1.68,1.09c-0.28,0.22-0.44,0.72-0.44,1.06
			c0,0.37,0.16,0.81,0.44,1.06c0.29,0.26,0.66,0.46,1.06,0.44c0.13-0.02,0.27-0.04,0.4-0.05c0.25-0.07,0.47-0.2,0.66-0.39
			c0.01-0.01,0.03-0.02,0.04-0.03c-0.1,0.08-0.2,0.16-0.3,0.23c0.52-0.39,1.08-0.72,1.67-0.98c-0.12,0.05-0.24,0.1-0.36,0.15
			c0.38-0.16,0.78-0.29,1.18-0.39c0.36-0.09,0.71-0.37,0.9-0.69c0.19-0.32,0.27-0.8,0.15-1.16c-0.12-0.36-0.34-0.71-0.69-0.9
			C41.36,26.72,40.98,26.66,40.57,26.76L40.57,26.76z"/>
	</g>
</g>
<g>
	<g>
		<path class="st17" d="M36.88,31.04c0.04,0.04,0.07,0.08,0.1,0.12c-0.08-0.1-0.16-0.2-0.23-0.3c0.09,0.13,0.17,0.26,0.23,0.4
			c-0.05-0.12-0.1-0.24-0.15-0.36c0.06,0.15,0.11,0.31,0.13,0.48c-0.02-0.13-0.04-0.27-0.05-0.4c0.02,0.16,0.02,0.33,0,0.49
			c0.02-0.13,0.04-0.27,0.05-0.4c-0.01,0.06-0.02,0.12-0.03,0.18c-0.09,0.39-0.05,0.81,0.15,1.16c0.09,0.17,0.22,0.32,0.39,0.42
			c0.14,0.13,0.31,0.22,0.51,0.27c0.13,0.02,0.27,0.04,0.4,0.05c0.27,0,0.52-0.07,0.76-0.2c0.32-0.21,0.6-0.51,0.69-0.9
			c0.05-0.2,0.07-0.4,0.09-0.6c0.01-0.08,0.01-0.16,0.01-0.23c0-0.28-0.04-0.57-0.11-0.85c-0.02-0.08-0.04-0.15-0.07-0.22
			c-0.07-0.18-0.15-0.37-0.24-0.55c-0.13-0.25-0.31-0.47-0.5-0.68c-0.14-0.15-0.3-0.25-0.48-0.31c-0.18-0.09-0.37-0.14-0.58-0.13
			c-0.21-0.01-0.4,0.04-0.58,0.13c-0.19,0.06-0.35,0.16-0.48,0.31c-0.26,0.29-0.46,0.66-0.44,1.06c0.02,0.13,0.04,0.27,0.05,0.4
			C36.56,30.63,36.69,30.85,36.88,31.04L36.88,31.04z"/>
	</g>
</g>
<g>
	<g>
		<path class="st17" d="M33.45,32.48c-0.01,0.13-0.02,0.26-0.03,0.38c0.02-0.13,0.04-0.27,0.05-0.4c-0.05,0.35-0.14,0.69-0.28,1.02
			c0.05-0.12,0.1-0.24,0.15-0.36c-0.14,0.33-0.32,0.63-0.53,0.91c0.08-0.1,0.16-0.2,0.23-0.3c-0.21,0.27-0.44,0.51-0.71,0.72
			c0.1-0.08,0.2-0.16,0.3-0.23c-0.04,0.03-0.08,0.06-0.12,0.09c-0.33,0.24-0.58,0.49-0.69,0.9c-0.1,0.36-0.05,0.84,0.15,1.16
			c0.21,0.32,0.51,0.6,0.9,0.69c0.37,0.08,0.84,0.08,1.16-0.15c0.71-0.51,1.31-1.13,1.73-1.91c0.42-0.78,0.65-1.62,0.68-2.51
			c0.02-0.37-0.18-0.8-0.44-1.06c-0.26-0.26-0.69-0.46-1.06-0.44C34.11,31.02,33.48,31.64,33.45,32.48L33.45,32.48z"/>
	</g>
</g>
<g>
	<g>
		<path class="st17" d="M60.08,31.21c0.78,0.39,1.61,0.62,2.49,0.64c0.42,0.01,0.85-0.04,1.27-0.12c0.44-0.08,0.84-0.25,1.25-0.43
			c0.32-0.14,0.6-0.57,0.69-0.9c0.1-0.36,0.05-0.84-0.15-1.16c-0.21-0.32-0.51-0.6-0.9-0.69c-0.13-0.02-0.27-0.04-0.4-0.05
			c-0.27,0-0.52,0.07-0.76,0.2c-0.02,0.01-0.04,0.02-0.05,0.02c0.12-0.05,0.24-0.1,0.36-0.15c-0.34,0.14-0.7,0.24-1.06,0.29
			c0.13-0.02,0.27-0.04,0.4-0.05c-0.37,0.04-0.74,0.04-1.1-0.01c0.13,0.02,0.27,0.04,0.4,0.05c-0.35-0.05-0.68-0.14-1.01-0.27
			c0.12,0.05,0.24,0.1,0.36,0.15c-0.09-0.04-0.18-0.08-0.26-0.12c-0.36-0.18-0.76-0.26-1.16-0.15c-0.35,0.1-0.73,0.36-0.9,0.69
			c-0.18,0.35-0.28,0.77-0.15,1.16C59.51,30.68,59.73,31.04,60.08,31.21L60.08,31.21z"/>
	</g>
</g>
<g>
	<g>
		<path class="st17" d="M34.62,32.46c0.2,0.16,0.4,0.32,0.6,0.48c0.14,0.15,0.3,0.25,0.48,0.31c0.18,0.09,0.37,0.14,0.58,0.13
			c0.21,0.01,0.4-0.04,0.58-0.13c0.19-0.06,0.35-0.16,0.48-0.31c0.08-0.1,0.16-0.2,0.23-0.3c0.14-0.23,0.2-0.49,0.2-0.76
			c-0.02-0.13-0.04-0.27-0.05-0.4c-0.07-0.25-0.2-0.47-0.39-0.66c-0.2-0.16-0.4-0.32-0.6-0.48c-0.14-0.15-0.3-0.25-0.48-0.31
			c-0.18-0.09-0.37-0.14-0.58-0.13c-0.21-0.01-0.4,0.04-0.58,0.13c-0.19,0.06-0.35,0.16-0.48,0.31c-0.08,0.1-0.16,0.2-0.23,0.3
			c-0.14,0.23-0.2,0.49-0.2,0.76c0.02,0.13,0.04,0.27,0.05,0.4C34.3,32.05,34.43,32.27,34.62,32.46L34.62,32.46z"/>
	</g>
</g>
<rect x="74.15" y="151" width="15.85" height="4"/>
<ellipse class="st18" cx="82" cy="153.25" rx="5" ry="4.75"/>
<path d="M82,155L82,155c-0.55,0-1-0.45-1-1v-3c0-0.55,0.45-1,1-1l0,0c0.55,0,1,0.45,1,1v3C83,154.55,82.55,155,82,155z"/>
<g>
	<g>
		<path d="M48.32,81.92c2.71,0.19,5.45-0.46,7.85-1.73c0.93-0.49,1.29-1.85,0.72-2.74c-0.61-0.94-1.75-1.24-2.74-0.72
			c-0.32,0.17-0.65,0.32-0.97,0.47c0.57-0.26-0.05,0.01-0.19,0.06c-0.17,0.06-0.34,0.12-0.51,0.17c-0.71,0.22-1.43,0.38-2.17,0.48
			c0.18-0.02,0.35-0.05,0.53-0.07c-0.84,0.1-1.67,0.13-2.52,0.07c-1.05-0.07-2.05,0.97-2,2C46.37,81.07,47.2,81.85,48.32,81.92
			L48.32,81.92z"/>
	</g>
</g>
<rect x="128.89" y="173.88" class="st19" width="6.43" height="86.64"/>
<rect x="223.76" y="173.88" class="st19" width="6.43" height="86.64"/>
<rect x="175.65" y="114.84" transform="matrix(6.123234e-17 -1 1 6.123234e-17 8.1981 349.5219)" class="st19" width="6.43" height="111.64"/>
<polygon class="st20" points="148.88,173.88 135.32,189.46 135.32,194.36 153.14,173.88 "/>
<polygon class="st20" points="210.2,173.88 223.76,189.46 223.76,194.36 205.94,173.88 "/>
<path class="st21" d="M202.5,152.5h-63c-2.2,0-4-1.8-4-4v-33c0-2.2,1.8-4,4-4h63c2.2,0,4,1.8,4,4v33
	C206.5,150.7,204.7,152.5,202.5,152.5z"/>
<rect x="224.99" y="161" transform="matrix(-1 -1.224647e-16 1.224647e-16 -1 450.99 326)" class="st22" width="1.01" height="4"/>
<path class="st23" d="M156,126h-5c-0.55,0-1-0.45-1-1v-5c0-0.55,0.45-1,1-1h5c0.55,0,1,0.45,1,1v5C157,125.55,156.55,126,156,126z"
	/>
<path class="st23" d="M165,126h-5c-0.55,0-1-0.45-1-1v-5c0-0.55,0.45-1,1-1h5c0.55,0,1,0.45,1,1v5C166,125.55,165.55,126,165,126z"
	/>
<path class="st23" d="M165,135h-5c-0.55,0-1-0.45-1-1v-5c0-0.55,0.45-1,1-1h5c0.55,0,1,0.45,1,1v5C166,134.55,165.55,135,165,135z"
	/>
<path class="st23" d="M156,135h-5c-0.55,0-1-0.45-1-1v-5c0-0.55,0.45-1,1-1h5c0.55,0,1,0.45,1,1v5C157,134.55,156.55,135,156,135z"
	/>
<path class="st23" d="M174,126h-5c-0.55,0-1-0.45-1-1v-5c0-0.55,0.45-1,1-1h5c0.55,0,1,0.45,1,1v5C175,125.55,174.55,126,174,126z"
	/>
<path class="st23" d="M183,126h-5c-0.55,0-1-0.45-1-1v-5c0-0.55,0.45-1,1-1h5c0.55,0,1,0.45,1,1v5C184,125.55,183.55,126,183,126z"
	/>
<path class="st23" d="M183,135h-5c-0.55,0-1-0.45-1-1v-5c0-0.55,0.45-1,1-1h5c0.55,0,1,0.45,1,1v5C184,134.55,183.55,135,183,135z"
	/>
<path class="st23" d="M192,126h-5c-0.55,0-1-0.45-1-1v-5c0-0.55,0.45-1,1-1h5c0.55,0,1,0.45,1,1v5C193,125.55,192.55,126,192,126z"
	/>
<path class="st23" d="M192,135h-5c-0.55,0-1-0.45-1-1v-5c0-0.55,0.45-1,1-1h5c0.55,0,1,0.45,1,1v5C193,134.55,192.55,135,192,135z"
	/>
<path class="st23" d="M174,135h-5c-0.55,0-1-0.45-1-1v-5c0-0.55,0.45-1,1-1h5c0.55,0,1,0.45,1,1v5C175,134.55,174.55,135,174,135z"
	/>
<path class="st23" d="M165,144h-5c-0.55,0-1-0.45-1-1v-5c0-0.55,0.45-1,1-1h5c0.55,0,1,0.45,1,1v5C166,143.55,165.55,144,165,144z"
	/>
<path class="st23" d="M156,144h-5c-0.55,0-1-0.45-1-1v-5c0-0.55,0.45-1,1-1h5c0.55,0,1,0.45,1,1v5C157,143.55,156.55,144,156,144z"
	/>
<path class="st23" d="M183,144h-5c-0.55,0-1-0.45-1-1v-5c0-0.55,0.45-1,1-1h5c0.55,0,1,0.45,1,1v5C184,143.55,183.55,144,183,144z"
	/>
<path class="st23" d="M192,144h-5c-0.55,0-1-0.45-1-1v-5c0-0.55,0.45-1,1-1h5c0.55,0,1,0.45,1,1v5C193,143.55,192.55,144,192,144z"
	/>
<path class="st23" d="M174,144h-5c-0.55,0-1-0.45-1-1v-5c0-0.55,0.45-1,1-1h5c0.55,0,1,0.45,1,1v5C175,143.55,174.55,144,174,144z"
	/>
<path d="M172,117h-25c-0.55,0-1-0.45-1-1v-1c0-0.55,0.45-1,1-1h25c0.55,0,1,0.45,1,1v1C173,116.55,172.55,117,172,117z"/>
<path d="M196,117h-19c-0.55,0-1-0.45-1-1v-1c0-0.55,0.45-1,1-1h19c0.55,0,1,0.45,1,1v1C197,116.55,196.55,117,196,117z"/>
<path d="M173,148h-25c-0.55,0-1-0.45-1-1l0,0c0-0.55,0.45-1,1-1h25c0.55,0,1,0.45,1,1l0,0C174,147.55,173.55,148,173,148z"/>
<path d="M178,148h-2c-0.55,0-1-0.45-1-1l0,0c0-0.55,0.45-1,1-1h2c0.55,0,1,0.45,1,1l0,0C179,147.55,178.55,148,178,148z"/>
<path d="M190,148.26h-8.76c-0.55,0-1-0.45-1-1l0,0c0-0.55,0.45-1,1-1H190c0.55,0,1,0.45,1,1l0,0
	C191,147.81,190.55,148.26,190,148.26z"/>
<path d="M142,163h-4v-2c0-0.55,0.45-1,1-1h2c0.55,0,1,0.45,1,1V163z"/>
<path d="M148,163h-4v-2c0-0.55,0.45-1,1-1h2c0.55,0,1,0.45,1,1V163z"/>
<path d="M154,163h-4v-2c0-0.55,0.45-1,1-1h2c0.55,0,1,0.45,1,1V163z"/>
<path d="M160,163h-4v-2c0-0.55,0.45-1,1-1h2c0.55,0,1,0.45,1,1V163z"/>
<path d="M166,163h-4v-2c0-0.55,0.45-1,1-1h2c0.55,0,1,0.45,1,1V163z"/>
<path d="M172,163h-4v-2c0-0.55,0.45-1,1-1h2c0.55,0,1,0.45,1,1V163z"/>
<path d="M178,163h-4v-2c0-0.55,0.45-1,1-1h2c0.55,0,1,0.45,1,1V163z"/>
<path d="M184,163h-4v-2c0-0.55,0.45-1,1-1h2c0.55,0,1,0.45,1,1V163z"/>
<path d="M190,163h-4v-2c0-0.55,0.45-1,1-1h2c0.55,0,1,0.45,1,1V163z"/>
<path d="M196,163h-4v-2c0-0.55,0.45-1,1-1h2c0.55,0,1,0.45,1,1V163z"/>
<path d="M145,167h-4v-2c0-0.55,0.45-1,1-1h2c0.55,0,1,0.45,1,1V167z"/>
<path d="M151,167h-4v-2c0-0.55,0.45-1,1-1h2c0.55,0,1,0.45,1,1V167z"/>
<path d="M157,167h-4v-2c0-0.55,0.45-1,1-1h2c0.55,0,1,0.45,1,1V167z"/>
<path d="M163,167h-4v-2c0-0.55,0.45-1,1-1h2c0.55,0,1,0.45,1,1V167z"/>
<path d="M169,167h-4v-2c0-0.55,0.45-1,1-1h2c0.55,0,1,0.45,1,1V167z"/>
<path d="M175,167h-4v-2c0-0.55,0.45-1,1-1h2c0.55,0,1,0.45,1,1V167z"/>
<path d="M181,167h-4v-2c0-0.55,0.45-1,1-1h2c0.55,0,1,0.45,1,1V167z"/>
<path d="M187,167h-4v-2c0-0.55,0.45-1,1-1h2c0.55,0,1,0.45,1,1V167z"/>
<path d="M193,167h-4v-2c0-0.55,0.45-1,1-1h2c0.55,0,1,0.45,1,1V167z"/>
<path d="M199,167h-4v-2c0-0.55,0.45-1,1-1h2c0.55,0,1,0.45,1,1V167z"/>
<path d="M201,163h-4v-2c0-0.55,0.45-1,1-1h2c0.55,0,1,0.45,1,1V163z"/>
<path d="M226.78,35.12l-9.79-6.95l1.16-1.63c1.59-2.24,4.73-2.78,6.97-1.18l1.64,1.16c2.24,1.59,2.78,4.73,1.18,6.97L226.78,35.12z"
	/>
<polygon class="st24" points="217.11,27.82 227.01,35.08 222.28,41.53 215.22,60.18 196.71,46.62 212.38,34.28 "/>
<rect x="223" y="33" transform="matrix(0.7682 -0.6402 0.6402 0.7682 26.0168 153.8614)" class="st24" width="5" height="16"/>
<rect x="230" y="39.07" transform="matrix(-0.3931 -0.9195 0.9195 -0.3931 283.4614 275.0552)" class="st24" width="5" height="9.82"/>
</svg>
